<?xml version="1.0" encoding="iso-8859-1"?>
<!-- Generator: Adobe Illustrator 19.0.0, SVG Export Plug-In . SVG Version: 6.00 Build 0)  -->
<svg version="1.1" id="Capa_1" xmlns="http://www.w3.org/2000/svg" xmlns:xlink="http://www.w3.org/1999/xlink" x="0px" y="0px"
	 viewBox="0 0 100 100" style="enable-background:new 0 0 100 100;" xml:space="preserve">
<g id="apple_2_">
	<g>
		<path style="fill-rule:evenodd;clip-rule:evenodd;" d="M94.257,38.973c-1.065-3.567-3.08-6.184-4.83-9.062
			c-2.179-1.85-4.466-3.592-6.952-5.135c-2.949-1.181-5.82-2.438-9.362-3.023H61.631c-2.206,0.516-4.538,0.902-6.947,1.209
			c-0.548-0.764-2.362-0.258-3.024-0.907c-0.88-0.529-1.149-1.669-1.208-3.021c3.205,0.69,7.484,1.345,11.179,0.604
			c1.4-0.914,2.625-2.007,3.93-3.019c1.073-1.24,1.843-2.789,3.019-3.928c0.787-3.726,3.575-6.788,2.416-11.48
			C67.294-0.324,61.669,0.065,56.495,0c-0.941,0.369-1.916,0.703-3.325,0.605c-3.473,2.267-6.099,5.381-8.459,8.76
			c-1.326-1.092-2.109-2.724-3.323-3.927c-1.64-0.776-2.088-2.745-4.831-2.417c-1.133-0.024-0.079,2.139-1.21,2.116
			c-0.384,0.722-1.104,1.11-0.908,2.417c2.7,5.353,8.138,7.973,10.272,13.896c-4.04-1.196-8.865-1.609-14.197-1.51
			c-7.044,2.119-12.912,5.415-18.43,9.063c-0.924,0.989-1.522,2.306-2.718,3.02c-0.021,0.887-0.69,1.123-1.21,1.512
			c-0.184,0.82-0.598,1.415-1.208,1.813c-0.2,1.208-0.751,2.069-1.206,3.021c-0.316,1.198-0.703,2.321-1.212,3.321
			c0.22,0.924-0.518,0.889-0.301,1.813c0.043,0.402-1.017,1.125-0.303,1.208c-0.06,1.449-0.465,2.557-0.602,3.928v12.385
			c0.469,6.781,2.117,12.385,4.529,17.223c1.385,2.242,2.445,4.805,4.229,6.646c1.738,1.987,3.509,3.944,5.137,6.043
			c3.941,2.906,7.297,6.397,12.385,8.155c3.535,0.799,8.085,0.581,12.086,0.908c1.449-0.263,2.106-1.317,3.925-1.209
			c1.789-1.335,3.513-2.733,6.042-3.324c2.43-0.211,4.107,0.325,5.438,1.209c1.295-0.186,1.236,0.984,2.417,0.906
			c0.098,1.014,1.912,0.305,2.117,1.209c1.078-0.029,2.072-0.142,2.416-0.907c0.751,0.358,1.779,0.438,2.72,0.606
			c1.506-0.812,3.81-0.823,5.742-1.208c2.141-1.384,4.696-2.353,6.643-3.93c2.122-1.504,3.853-3.402,6.046-4.833
			c2.427-3.713,5.655-6.629,7.247-11.178c2.103-4.041,3.414-8.874,4.231-14.199V50.453C96.168,46.328,95.612,42.25,94.257,38.973z
			 M48.642,12.387c0.488-0.515,0.912-1.099,0.902-2.113c1.506-1.014,2.422-2.616,3.627-3.928c0.923,0.013,1.176-0.638,1.813-0.907
			h10.577c-0.19,2.634-2.017,3.627-2.418,6.043c-1.531,1.191-2.446,2.99-4.231,3.927c-4.275,0.048-8.631,0.172-11.478-1.208
			C47.474,13.238,48.549,13.303,48.642,12.387z M12.084,56.495c-1.032-0.161-0.463-1.455-0.3-2.114
			C13.137,54.358,11.598,55.5,12.084,56.495z M88.82,62.237c-0.399,2.42-1.23,4.407-1.51,6.949
			c-0.888,4.85-3.683,7.797-6.345,10.877c-0.181,0.721-0.434,1.376-0.302,2.415c-1.6,1.723-3.172,3.473-5.133,4.834
			c-2.757,0.972-6.182,1.272-9.066,2.114h-3.321c-1.112-0.199-2.033-0.586-3.324-0.604c-1.184,0.023-1.886,0.531-2.722,0.905
			c-3.25-0.935-6.744,0.229-9.664,0.604c-1.163,0.052-0.653-1.563-1.816-1.51c-2.074-0.062-2.264,1.764-3.019,3.021
			c-2.136-0.224-2.588,1.237-4.532,1.208c0.174-1.777,0.697-3.63-0.907-4.229c-1.313-0.207-1.673,0.543-2.112,1.209
			c-0.572,0.031-0.21,0.998-0.907,0.905c-0.068,0.436-0.902,0.104-0.908,0.604c-1.504-1.517,0.549-5.119-0.604-7.252
			c-1.752-0.339-2.198,0.623-3.324,0.908c0.127-1.438-0.438-2.18-0.602-3.326c-0.598-0.598-1.726-0.191-2.417,0
			c-0.192-1.116-0.211-2.406-1.211-2.717c-3.031-0.213-3.368,2.271-3.928,4.53c-0.687-0.417-0.112-2.103-0.3-3.021
			c0.629-0.479,0.103-2.114,0.606-2.719c-0.006-0.802,0.113-1.727-0.306-2.115c0.441-2.416,1.362-5.842,0.607-8.457
			c-2.549-0.337-2.358,2.072-3.022,3.624c-0.861-0.687,0.426-1.771,0-3.021c0.086-1.023,0.481-1.734,0.304-3.021
			c0.476-0.631,0.627-1.59,0.604-2.719c0.779-0.415,0.067-1.851,0-2.418c-2.334,0.082-2.807,2.028-3.324,3.928
			c-1.439-0.799-0.02-2.984-0.302-4.53c0.636-3.292,1.57-6.284,2.417-9.368c0.855-0.756,0.961-2.262,1.815-3.018
			c-0.201-0.812-0.867-1.149-1.21-1.814c-1.181-0.3-1.756,0.666-2.417,0c0.525-1.691,1.051-3.382,1.812-4.836
			c0.411-1.701,1.771-2.457,1.815-4.53c-0.285-1.228-1.247-1.775-3.022-1.509c1.06-2.566,4.17-3.079,6.042-4.836
			c0.919,0.014,1.175-0.638,1.811-0.903c0.47-0.438,1.414-0.405,1.815-0.908c1.524-0.289,3.014-0.612,4.533-0.907
			c5.032,0.205,10.987-0.516,15.103,0.607c0.544,1.366,0.213,3.61,0.301,5.437c-1.943,0.279-3.551,0.145-5.437-0.302
			c-1.981,0.032-4.465-0.437-4.532,1.51c0.144,1.874,1.633,2.397,3.325,2.72c1.143,0.867,3.012,1.016,4.53,1.51h7.854
			c3.334-0.996,6.492-2.17,9.67-3.321c0.843-1.073,1.678-2.149,1.811-3.93c-0.112-1.196-0.875-1.741-1.811-2.114
			c-2.005-0.089-2.961,0.865-3.929,1.812c-2.117,0.097-3.163,1.267-5.438,1.209c0.017-1.394-0.134-2.953,0.301-3.928
			c1.841-0.229,2.739,0.482,4.532,0.303c1.33,0.119,0.789-1.628,1.812-1.812c3.704-0.838,7.809,0.138,11.784,0
			c4.244,0.892,8.04,2.23,11.177,4.229c0.974-0.266,0.415,0.996,1.21,0.906c0.089,0.615,0.817,0.593,0.906,1.209
			c1.016,0.397,1.257,1.565,2.118,2.116c0.058,1.146,0.265,2.146,0.602,3.02c-0.181,6.525,1.33,11.36,2.415,16.616
			C89.292,56.865,89.014,59.51,88.82,62.237z M66.464,56.193c2.127-1.317,2.036-5.257,0.607-7.249
			C61.354,47.297,60.853,57.314,66.464,56.193z M80.363,50.152c-0.286,0.925-1.471,0.947-1.513,2.114
			c0.131,2.391,0.092,4.946,3.023,4.533C83.258,54.989,83.28,50.23,80.363,50.152z M74.016,56.193
			c-4.3-0.086-2.904,6.153-2.718,9.669c1.075,0.035,1.096,1.117,2.416,0.906c1.084,0.076,1.108-0.906,2.118-0.906
			C76.551,62.276,76.235,57.777,74.016,56.193z"/>
	</g>
</g>
<g>
</g>
<g>
</g>
<g>
</g>
<g>
</g>
<g>
</g>
<g>
</g>
<g>
</g>
<g>
</g>
<g>
</g>
<g>
</g>
<g>
</g>
<g>
</g>
<g>
</g>
<g>
</g>
<g>
</g>
</svg>
