<?xml version="1.0" encoding="iso-8859-1"?>
<!-- Generator: Adobe Illustrator 19.0.0, SVG Export Plug-In . SVG Version: 6.00 Build 0)  -->
<svg version="1.1" id="Capa_1" xmlns="http://www.w3.org/2000/svg" xmlns:xlink="http://www.w3.org/1999/xlink" x="0px" y="0px"
	 viewBox="0 0 110 110" style="enable-background:new 0 0 110 110;" xml:space="preserve">
<g id="bomb_1_">
	<g>
		<path style="fill-rule:evenodd;clip-rule:evenodd;" d="M106.569,17.679c1.477-1.521,3.692-2.294,3.405-5.574
			c-0.542-1.727-2.064-2.479-4.642-2.17c-0.505-0.633-2.289,0.013-2.788-0.62c-0.942-0.193-2.671,0.398-3.099-0.31
			c-0.244-3.059,0.348-6.954-2.478-7.433c-2.138,0.339-3.746,1.209-5.264,2.168c-1.334,1.251-1.792,3.373-3.097,4.645
			c-2.209-0.682-2.397-3.389-5.269-3.403c-0.066,0.24-0.258,0.358-0.617,0.306c-1.185,0.368-1.411,1.689-1.242,3.411
			c0.911,0.261-0.183,0.995,0,1.548c-0.432,0.397-0.189,1.462-0.616,1.859c-1.843-0.624-4.107-0.317-4.958,0.928
			c-0.375,3.471,1.51,4.686,2.787,6.503c0.975-0.149,0.699,0.952,1.856,0.619c0.198,1.124,1.448-0.717,1.548,0.311
			c-2.511,3.167-5.131,6.223-8.982,8.051c-0.946-0.226-0.91,0.538-1.855,0.314c-1.2,0.166-1.512-0.556-2.786-0.314
			c-3.91-2.386-5.227-7.368-7.127-11.767c-0.806-0.134-0.789-1.055-1.238-1.549c-0.75-0.824-2.256-1.659-2.786-2.168
			c-1.312-1.254-3.239-1.581-4.956-2.169c-4.336-0.409-6.863,0.984-10.224,1.551c-0.557,0.783-1.518,1.163-2.474,1.549
			c-2.101,2.236-3.651,5.021-5.887,7.12c-0.098,1.351-0.812,2.078-0.931,3.409c-0.888,0.557-0.274,2.613-0.929,3.409
			c-3.16-0.066-6.486-0.293-7.744,1.545c-0.547,1.473-0.354,4.068,0,5.579c0.382,1.684,0.478,3.651,0.931,5.264
			c-0.873,1.189-3.2,0.929-5.265,0.927c-0.708,0.429-1.64,0.635-2.479,0.93c-0.787,0.35-1.512,0.761-2.169,1.241
			c-1.499,0.872-3.017,1.733-4.024,3.096c-0.706,0.432-1.2,1.073-1.859,1.55c-0.959,0.176-0.813,1.457-1.861,1.547
			c-0.604,1.77-2.479,2.27-2.786,4.34c-1.234,1.036-1.571,2.968-2.167,4.643c-0.529,0.611-0.356,1.916-0.932,2.477
			c-0.021,1.218-0.148,2.33-0.618,3.1c-0.336,4.311-1.084,8.206-0.931,13.009c0.446,2.448,0.786,4.997,1.549,7.123
			c0.474,0.973,1.034,1.858,1.243,3.096c0.622,0.821,1.15,1.738,1.546,2.787c1.329,1.566,2.585,3.201,3.717,4.956
			c1.779,1.114,2.609,3.172,4.644,4.029c2.794,2.988,6.696,4.869,10.844,6.504c4.205,1.678,9.414,2.358,14.866,2.787
			c2.123-0.462,4.807-0.35,7.123-0.62c1.678-1.006,4.146-1.225,5.578-2.479c1.97-0.814,3.686-1.887,4.954-3.404
			c1.846-0.942,2.98-2.595,4.335-4.026c1.182-1.609,2.624-2.952,3.408-4.957c2.472-3.1,3.83-7.321,5.572-11.148
			c1.444-4.347,2.625-8.976,2.789-13.938c0.388-11.543-4.349-19.473-9.91-24.78c-1.451-0.308-1.957-1.555-3.406-1.861
			c-0.927-0.93-2.634-1.084-3.718-1.856c-1.488-0.369-2.766-0.948-4.336-1.241c-0.74-0.187-1.411-0.443-2.477-0.307
			c-0.043-0.886-2.125,0.267-2.168-0.623c-0.188-3.236,1.26-7.259-0.929-8.981c-1.677-0.595-4.349-0.193-6.505-0.307
			c-0.393-0.747-2.441,0.168-2.786-0.62c-0.185-1.634,0.23-2.663,0.307-4.029c1.801-3.052,3.685-6.021,7.127-7.433
			c3.158-0.037,4.857-1.541,8.36-1.236c2.121,0.77,4.192,1.591,5.266,3.405c2.348,4.674,3.511,10.532,7.123,13.938
			c1.051,0.398,1.967,0.924,2.787,1.55c0.462,0.052,1.146-0.112,1.241,0.31h5.884c0.057-0.461,0.748-0.283,1.239-0.31
			c1.583-0.997,3.277-1.887,4.646-3.097c0.396-0.842,1.583-0.892,1.857-1.862c0.715,0.099,0.346-0.894,0.931-0.924
			c0.091-0.278,0.838-1.359,0.929-0.625c-0.21,1.552,0.284,2.399,0.307,3.719c-0.197,1.646,0.781,2.114,1.55,2.788
			c2.665,0.289,2.899-1.851,4.955-2.167c0.177,1.885,0.803,3.327,1.241,4.956c0.604,1.558,0.89,3.443,3.094,3.405
			c1.772-0.193,2.036-1.89,2.79-3.096c0.163-0.87,0.456-1.614,0.618-2.479c0.19-0.837-0.393-2.458,0.312-2.786
			c1.46-0.019,1.7,1.19,2.788,1.547c0.905,0.535,2.158,0.729,3.714,0.62c0.205-0.417,0.661-0.579,1.242-0.62
			c0.694-1.398,1.343-3.321,0.926-4.954c-0.737-2.468-2.568-3.834-3.404-6.197C105.27,20.923,106.021,19.402,106.569,17.679z
			 M40.286,33.164c0.712,0.527,1.33,1.148,1.857,1.861c0.206,2.163-0.276,3.642-0.311,5.572c1.012,1.467,3.375,1.581,4.958,2.479
			c2.153,0.43,4.05,1.111,5.577,2.169c1.723,0.752,2.995,1.956,4.645,2.786c1.55,1.033,2.79,2.376,4.336,3.409
			c0.867,1.815,2.218,3.151,2.787,5.265c1.142,1.542,1.479,3.893,2.478,5.572c0.214,2.679,0.431,5.353,0.31,8.365
			c-0.703,3.633-1.569,7.101-2.787,10.221c-0.796,1.37-1.324,3.01-2.167,4.339c-0.601,1.667-1.901,2.64-2.479,4.332
			c-1.949,1.669-3.499,3.728-5.574,5.265c-1.952,1.666-4.604,2.624-6.505,4.338c-0.65-0.645,0.807-3.213-0.93-3.409
			c-1.209,0.033-1.226,1.253-1.855,1.858c-0.409,0.936-1.003,1.684-0.931,3.098c-0.878,0.463-2.038,0.647-3.094,0.929
			c-0.102-2.601,1.504-4.717,0.616-7.122c-2.557-0.495-2.631,1.498-3.716,2.476c-0.21,0.822-0.489,1.579-0.931,2.169
			c-0.121,1.015-0.065,2.203-1.548,1.858c-1.712-0.344,0.689-3.097-0.619-4.027c-0.444,0.072-0.523,0.51-0.929,0.618
			c0.03,0.376-0.453,0.191,0,0c0.015-1.357,0.217-2.898-0.931-3.095c-2.743-0.167-2.636,2.525-3.407,4.335
			c-1.3,0.161-1.73-0.54-2.786-0.619c0.062-3.161,3.205-7.485,0-9.294c-1.187-0.388-2.324,1.975-2.479,0.619
			c0.657-0.786,0.521-2.372,0.931-3.405c0.325-1.366,0.6-2.487,0.31-3.717c-0.398-0.532-0.64-1.218-1.548-1.241
			c-2.057,0.216-2.846,1.702-3.717,3.1c-0.676-0.304,0.04-1.789,0.309-2.168c0.205-0.826,0.13-1.936,0.62-2.479
			c0.113-1.514,1.55-4.241-0.307-4.957c-1.592,0.065-1.953,1.356-2.79,2.17c-0.452,1.301-1.608,1.902-1.858,3.407
			c-1.182,0.574-0.988,2.521-2.169,3.096c0.082,0.904-0.698,0.951-0.619,1.862c-0.704,0.221-0.094,1.762-1.238,1.545
			c-0.859-1.414,0.443-2.962,0.309-4.646c1.299-1.694,1.488-4.5,2.787-6.194c0.427-2.266,2.16-4.497,1.549-6.815
			c-1.724-0.276-2.211,0.675-3.097,1.241c-0.394,1.05-1.719,1.17-1.861,2.475c-0.941,0.503-1.319,1.57-1.855,2.481
			c-0.901,0.646-0.78,2.317-2.172,2.478c0.87-3.156,2.052-6.005,3.72-8.364c1.206-2.816,3.358-4.695,4.954-7.126
			c-0.182-0.645-0.65-0.998-0.93-1.546c-2.111-0.359-2.676,0.836-3.717,1.546c-0.671,1.184-2.023,1.694-2.478,3.1
			c-0.711-0.247,0.162-1.458,0.623-1.553c-0.081-1.107,0.928-1.13,0.928-2.163c1.937-1.471,3.328-3.489,5.266-4.956
			c1.45-1.958,3.422-3.396,4.335-5.886c-0.349-1.254-2.106-0.277-2.787,0c-0.997,0.448-1.734,1.153-2.788,1.55
			c-1.79,1.101-3.259,2.52-4.953,3.715c0.029,0.375-0.454,0.189,0,0c0.069-1.269,1.049-1.632,1.239-2.788
			c2.064-1.961,4.341-3.708,6.502-5.573c1.522-0.546,2.542-1.591,4.334-1.861c1.153-0.912,3.111-1.02,4.34-1.856h2.168
			c0.188-0.43,1.191-0.049,1.24-0.62c0.077-0.644,1.359-0.085,1.546-0.621c1.2-0.659,1.48-2.236,2.479-3.097
			c0.809-1.048,1.773-1.942,2.168-3.405c-0.162-0.769-0.756-1.105-1.239-1.552c-1.749,0.526-4.045,0.5-4.953,1.862
			c-0.719-1.1-0.428-2.006-0.314-3.409H40.286z M101.306,21.083c0.165,1.1-1.097,0.765-0.931,1.86
			c-0.369,3.261,1.597,4.188,2.17,6.503c-1.615-0.084-3.208-0.971-4.649-0.31c-0.674,0.047-0.666,0.781-0.619,1.55
			c-1.312,0.961-2.022,2.519-2.479,4.338c-0.943-1.637-2.309-2.855-2.786-4.958c-0.356,0.05-0.551-0.067-0.618-0.307
			c-2.075-0.322-2.577,0.93-4.338,0.927c-0.233-1.316-0.721-2.376-0.618-4.027c-0.253-1.087-0.932-1.751-1.236-2.788
			c0.685-0.554,1.255-1.22,2.786-0.929c0.273,0.962,1.139,1.34,2.167,1.549c1.361-0.184,2.004-1.094,2.479-2.165
			c-0.289-2.297-1.848-3.317-3.409-4.339c-2.707-0.127-5.118,0.044-6.194,1.548c-0.907-0.265,0.404-0.778,0-1.548
			c-0.458-0.264-0.668-0.779-0.619-1.549c2.95,0.141,2.814-4.228,1.859-6.193c-0.056-1.359,1.046,0.289,1.239,0.617
			c0.522,0.509,1.392,0.675,1.855,1.242h2.169c3.187-0.741,2.96-4.891,5.576-6.199c0.354,0.062,0.174,0.312,0,0.312v5.268
			c0.219,1.123,0.997,1.687,1.548,2.479c2.121-0.061,4.147-0.02,5.888,0.308C101.944,16.139,99.698,19.001,101.306,21.083z"/>
	</g>
</g>
<g>
</g>
<g>
</g>
<g>
</g>
<g>
</g>
<g>
</g>
<g>
</g>
<g>
</g>
<g>
</g>
<g>
</g>
<g>
</g>
<g>
</g>
<g>
</g>
<g>
</g>
<g>
</g>
<g>
</g>
</svg>
