<?xml version="1.0" encoding="iso-8859-1"?>
<!-- Generator: Adobe Illustrator 19.0.0, SVG Export Plug-In . SVG Version: 6.00 Build 0)  -->
<svg version="1.1" id="Capa_1" xmlns="http://www.w3.org/2000/svg" xmlns:xlink="http://www.w3.org/1999/xlink" x="0px" y="0px"
	 viewBox="0 0 110 110" style="enable-background:new 0 0 110 110;" xml:space="preserve">
<g id="briefcase_1_">
	<g>
		<path style="fill-rule:evenodd;clip-rule:evenodd;" d="M109.011,56.691c-0.769-6.554-1.274-13.367-1.507-20.458
			c-0.553-2.755-1.432-5.187-1.803-8.123c-0.638-0.964-0.573-2.632-1.505-3.308c-0.338-1.368-1.586-1.823-2.404-2.709
			c-2.259-0.807-6.086-0.771-8.728-0.301H81.331c-1.716,0.094-3.797,0.721-5.114,0.301c-0.885-2.123-0.543-5.472-0.603-8.424
			c-0.638-2.067-1.203-4.211-2.408-5.716c-3.108-1.543-9.305-1.468-13.535-0.903c-4.218,0.096-8.152,0.472-12.637,0.303
			c-1.398,0.506-3.757,0.051-5.113,0.601c-0.32,0.683-1.893,0.114-2.707,0.3c-0.804,0.199-1.879,0.127-2.408,0.604
			c-3.521,0.49-6.086,1.933-7.522,4.512c-0.442,1.562-0.279,3.733-0.304,5.717c-1.942-1.131-4.981-0.575-5.113,1.806
			c0.172,0.733,0.26,1.546,1.204,1.501c0.074,0.934,2.476-0.469,2.109,0.906c-4.696,0.733-9.987-0.41-15.347,0
			c-2.127,0.579-4.651,0.762-6.616,1.504c-1.986,1.223-3.552,2.864-4.814,4.812c-0.312,6.143-0.858,12.72,0.298,18.051v6.92
			c1.172,4.182,0.381,8.467,0.906,13.237c0.51,0.591,0.923,1.283,1.8,1.503c0.778,0.429,1.705,0.706,1.809,1.805
			c-1.395,7.594,0.023,16.289-0.302,24.672c-0.335,2.294-1.062,4.998,0.302,6.617c3.014,1.298,8.499,0.121,12.033,0.9
			c1.431-0.174,2.775-0.433,4.51-0.299c3.602-0.91,7.393-1.636,11.435-2.105c21.356,0.301,42.178,1.142,64.079,0.902
			c2.592-0.519,5.545-0.674,7.221-2.108c0.416-2.791,0.916-5.505,1.203-8.423c-0.572-4.142-0.194-9.233-0.3-13.839
			c0.203-4.656-1.08-9.295-0.304-13.537c0.309-0.293,0.61-0.596,0.902-0.902c0.748,0.042,1.464,0.055,1.504-0.602
			c1.006-0.401,1.875-0.935,2.408-1.807C110.374,58.538,108.857,58.447,109.011,56.691z M34.701,15.476
			c2.191-1.32,6.473-0.546,8.725-1.807c9.246,0.713,16.612-2.022,25.272-0.904c0.711,1.354,1.309,4.225,0.601,6.02
			c-1.669-0.108-3.021-0.578-4.212,0.301c-1.314,0.289-1.003,2.205-1.506,3.307c-6.329-0.111-12.347,0.09-18.349,0.302
			c-0.991,0.014-1.501,0.51-2.71,0.302c-0.719-0.185-2.179,0.377-2.406-0.302c-1.159,0.059-0.321-1.886-0.901-2.405
			c-1.198-0.51-3.175-0.236-4.814-0.303C34.539,18.522,34.085,16.462,34.701,15.476z M6.722,63.009c0.132-0.438,0.264,0.029,0.603,0
			C7.25,63.388,6.725,63.312,6.722,63.009z M17.553,97.907c-1.526-0.019-2.493,0.517-4.21,0.301
			c-1.279-0.23-3.563,0.556-3.915-0.602c-0.389-1.298,0.624-1.185,1.205-1.505c0.35-0.549,0.787-1.018,1.202-1.504v-3.91
			c2.79,0.219,4.437,1.578,5.718,3.309V97.907z M84.039,89.784c0.004,1.708-0.208,3.198-0.599,4.513
			c-1.644,0.629-2.894-0.101-4.815,0c-2.026,0.279-4.119,0.489-6.016,0.9h-6.317c-1.044-0.238-1.157,0.451-2.107,0.305H38.61
			c-1.834,0.366-4.088,0.323-6.316,0.301c-1.547,0.455-3.9,0.113-5.113,0.902c-1.816-0.221-3.74,0.749-4.815,0.299
			c0.15-1.972,0.328-2.911-0.299-4.514c-1.175-3.135-3.924-4.703-6.621-6.317c-1.098-0.203-2.186-0.417-3.611-0.3
			c0.077-5.993-0.22-11.609-1.202-16.547c5.322-0.697,11.928-0.104,17.752-0.301c1.041-0.241,1.155,0.447,2.106,0.301
			c3.782,0.029,7.771-0.15,11.13,0.299c0.684,0.925,0.521,2.689,1.503,3.311c0.696,0.908,1.501,1.711,2.407,2.407
			c4.066,0.622,7.8-0.221,12.035,0.301c3.145-0.264,5.924-0.892,7.821-2.403c1.594-0.817,2.077-2.738,3.31-3.914
			c1.562-0.442,3.729-0.279,5.717-0.301c7.005-1.113,13.708-2.535,21.66-2.707c0.484,0.086,0.516-0.285,0.902-0.303h2.107
			c0.96,2.049,0.543,5.476,0.9,8.123c0.179,2.73,0.388,5.435,0.604,8.125c-0.922,0.291-3.357-0.162-4.814-0.3
			c-1.422,0.431-2.451,0.403-3.91,0.9c-0.317,0.11-0.683,0.515-0.904,0.604c-0.495,0.196-0.993,0.063-1.504,0.299
			c-0.836,0.389-1.57,1.343-2.706,1.806C85.763,86.894,85.336,88.776,84.039,89.784z M11.535,61.503
			c0.242,0.16,0.489,0.315,0.904,0.301c0.296,1.643-1.185,2.11-1.807,1.205C10.727,62.298,11.677,62.447,11.535,61.503z
			 M28.683,61.503c1.121,0.23,0.165,1.428-0.904,1.205C27.515,61.743,28.772,62.294,28.683,61.503z M44.329,66.318
			c0.013-2.196,1.474-2.938,1.805-4.815c2.216,0.215,3.728-0.281,5.415-0.602c3.819,0.832,6.327-0.963,10.227-0.899
			c0.185,1.722,1.264,2.547,1.805,3.909c0.203,1.705-0.274,2.732-0.599,3.911c-4.082,1.337-8.659,2.174-13.54,2.708
			c-1.391-0.216-1.987-1.221-2.706-2.107C45.699,67.954,44.635,67.515,44.329,66.318z M99.984,93.996
			c-1.537,0.812-3.328,0.045-5.114,0c-2.301-0.06-4.7,0.552-6.618,0c-0.047-3.057,1.771-4.244,3.007-6.018
			c2.76-0.49,6.205-1.42,9.328-0.602C100.583,89.784,100.747,92.35,99.984,93.996z M77.422,60.301h-6.018
			c-0.386,0.017-0.417,0.383-0.903,0.3c-1.371,0.035-1.228,1.58-2.406,1.807c-0.313-2.495-0.863-4.756-1.804-6.621
			c-1.483-1.224-3.828-1.586-6.319-1.803c-3.36,0.351-6.14,1.281-9.326,1.803c-2.596,0.191-4.294-0.521-6.921-0.299
			c-1.277,0.426-2.421,0.986-3.309,1.805c-0.159,1.847,0.342,4.357-0.301,5.717h-2.103c-1.19,0.383-0.731-0.877-1.508-0.902
			c-1.038,0.363-2.257,0.549-3.607,0.602c-1.037-0.472-1.301-1.709-1.808-2.706c-1.375-0.272-1.706,0.498-2.706,0.599
			c0.071-1.274-0.024-2.383-0.904-2.707c-2.919,0.594-3.644,3.379-6.62,3.91c0.102-0.701,0.309-1.295,0.902-1.503
			c-1.24-0.624-1.271-1.419-0.599-2.706c-1.251-0.958-1.801,0.866-3.008,0.901c0.629-0.772,0.81-2,1.2-3.009
			c-0.068-0.43-0.494-0.509-0.599-0.902c-2.591-0.286-2.816,1.796-4.814,2.105c0.279-1.883-1.137-2.074-1.809-3.01
			c0.338-1.271,0.961-2.251,1.209-3.61c-0.2-1.34-1.872-0.544-2.408-0.901c0.385-1.207,1.529-2.958,0.6-4.514
			c-1.017-0.113-1.283,0.523-1.805,0.902c-0.667-0.129-0.752,1.809-1.202,0.904c-0.035-1.742,1.318-2.09,1.505-3.61
			c0.95-0.516,1.721-2.464,0.6-3.31c-1.769,0.236-2.396,1.615-3.61,2.405c0.031,0.366-0.437,0.188,0,0
			c0.611-1.692,1.371-3.24,2.106-4.812c0.757-1.312,2.452-2.734,1.504-4.815c-1.319-0.315-0.986,1.019-2.105,0.903
			c-0.035-0.367-0.09-0.709-0.602-0.6c-1.318-0.315-0.99,1.016-2.108,0.9v-2.707c8.493-2.688,20.728-0.015,30.386-1.203h5.114
			c6.733-0.49,13.665-0.776,20.76-0.904c8.229-0.497,16.817-0.636,25.573-0.601c3.759-0.529,6.929-0.026,11.131-0.301
			c1.304,2.409,1.503,5.919,2.405,8.726c-0.423,7.745,1.604,13.038,1.504,20.457C94.588,58.417,85.466,58.82,77.422,60.301z"/>
	</g>
</g>
<g>
</g>
<g>
</g>
<g>
</g>
<g>
</g>
<g>
</g>
<g>
</g>
<g>
</g>
<g>
</g>
<g>
</g>
<g>
</g>
<g>
</g>
<g>
</g>
<g>
</g>
<g>
</g>
<g>
</g>
</svg>
