<?xml version="1.0" encoding="iso-8859-1"?>
<!-- Generator: Adobe Illustrator 19.0.0, SVG Export Plug-In . SVG Version: 6.00 Build 0)  -->
<svg version="1.1" id="Capa_1" xmlns="http://www.w3.org/2000/svg" xmlns:xlink="http://www.w3.org/1999/xlink" x="0px" y="0px"
	 viewBox="0 0 100 100" style="enable-background:new 0 0 100 100;" xml:space="preserve">
<g id="book2_1_">
	<g>
		<path style="fill-rule:evenodd;clip-rule:evenodd;" d="M17.775,93.942c0.413-1.093,1.481-2.817,0.602-4.24
			c-2.964-0.34-2.567,2.684-4.544,3.334c0.531-2.398,1.831-4.028,2.729-6.06c0.72-1.91,2.694-3.816,2.12-6.061
			c-1.682-0.366-1.84,0.787-2.727,1.213c-0.089,0.619-0.819,0.594-0.911,1.211c-0.089,0.271-0.815,1.328-0.904,0.609v-3.334
			c1.379-1.852,2.215-4.249,3.636-6.06c0.568-2.294,2.823-4.4,2.118-6.967c-2.076-0.177-2.796,1.311-3.331,2.423
			c-1.23,0.79-1.446,2.592-2.423,3.636v-4.847c1.118-3.122,2.885-5.599,3.329-9.395c-1.319-0.207-1.676,0.547-2.12,1.214
			c-0.695,0.251-0.71,1.978-1.516,1.211c0.249-5.913,2.35-9.974,3.335-15.147c-1.143-0.131-1.383,0.642-1.819,1.212
			c-0.695,0.036-0.975,2.024-1.516,1.212c-0.908-1.207,0.276-2.411,0.91-3.03c0.216-1.4,0.614-2.62,1.211-3.635
			c0.34-2.524,2.626-4.599,1.821-7.273c-1.733-0.217-2.445,0.587-2.731,1.818c-1.08,0.687-0.975,2.584-2.117,2.727
			c1.342-2.292,0.9-6.369,2.117-8.785c0.28-1.543,1.064-2.575,1.214-4.241c0.549-0.971,1.943-2.362,1.211-3.634
			c-2.39-0.473-2.059,1.773-3.329,2.421c-0.522,1.397-1.059,2.778-1.821,3.94c-0.038-3.596-0.653-6.618-0.909-9.998
			c0.776,0.032,1.06,0.553,1.517,0.908c0.777,0.029,1.443,0.173,1.816,0.606c1.591-0.178,2.294,0.532,3.939,0.302
			c0.867-0.647,1.717-1.312,1.819-2.726c-0.191-3.449-5.607-1.667-6.971-3.939c-0.643-1.276-0.146-3.691-0.301-5.453
			c0.645-0.771,1.066-1.761,1.814-2.424c2.232-0.109,4.165,0.078,6.061,0.301c5.523-0.84,13.079,0.354,18.179-0.906
			c5.129-0.164,10.194,0.084,15.147,0.301c6.952,0.307,13.695-0.586,20.601-0.605c2.087-0.538,5.032-0.221,7.575-0.302
			c1.769-0.454,3.866-0.578,3.939-2.729c0.218-0.923-0.309-1.104-0.303-1.812c-1.041-1.385-4.057-0.794-6.363-0.912
			c-1.853,0.67-4.92,0.128-7.27,0.304c-5.625,0.534-11.217,1.104-17.571,0.907c-5.291,0.363-10.399,0.914-16.058,0.91
			c-6.151,1.524-14.649,0.701-22.115,0.91c-0.939-0.032-1.448,0.367-2.122,0.606c-0.757-0.257-1.624-0.398-2.725-0.304
			C9.812,4.988,8.21,7.229,8.382,11.238c-0.095,0.713-1.051,0.561-0.911,1.514c0.133,1.043-0.118,1.698-0.303,2.423
			c-0.329,9.626,0.461,18.124,0.608,27.268C9.398,57.988,8.592,75.959,9.291,92.43c0.952,0.971,0.993,2.842,1.816,3.938
			c1.139,0.983,2.447,1.794,4.242,2.121c1.234,0.637,4.026,1.005,5.152,0c0.51-0.872,0.846-2.245,0.301-3.332
			C20.306,94.24,18.566,94.566,17.775,93.942z M17.775,14.269c0.875,1.197,3.916,2.795,5.148,0.906
			c0.197-1.71-1.209-1.82-2.122-2.423c-0.224-1.942,0.353-3.08,0.303-4.848C17.78,6.641,17.554,10.988,17.775,14.269z M81.092,7.904
			c-0.649,0.666-2.157,0.467-2.122,1.818c0.894,0.922,2.632,1,4.546,0.909c1.904-0.015,3.994,0.159,3.937-1.817
			C86.52,6.836,83.386,7.921,81.092,7.904z M92.302,88.189c-0.321-1.531,0.689-1.733,0.604-3.03
			c-0.062-1.452-1.881-1.146-1.514-3.029c0.326-16.098,1.277-32.763-0.91-47.564v-8.482c0.332-2.294,1.348-3.903,1.215-6.664
			c-1.499-1.982-3.671-1.681-6.969-1.515c-2.586,0.442-5.002,1.058-7.875,1.209c-0.297-2.635-0.019-5.837-0.91-7.874
			c-3.205-2.551-10.348-1.169-15.757-1.516c-2.397,0.833-6.189,0.272-8.48,1.21c-0.463,2.165-1.17,4.083-0.911,6.971
			c-0.817-0.699-1.972-1.058-3.636-0.909h-8.483c-4.397,0.95-10.514,0.191-13.631,2.424c-0.921-0.397-0.709-1.916-2.422-1.515
			c-1.398,2.14-0.767,6.303-1.519,9.086c0.06,14.327-1.126,28.541,0,42.111c0.187,2.257,0.51,4.424,0.607,6.668
			c0.102,2.294-0.205,4.597-0.305,6.967c-0.178,4.252,0.137,8.466,0,12.725c0.685,0.831,2.198,0.833,2.423,2.117
			c1.727,0.496,3.389,1.058,5.154,1.519c11.718,0.153,23.746,0.44,35.445,0c5.05,1.68,11.776,0.48,17.874,0.606
			c0.374-0.638,1.825-0.196,2.122-0.909c0.932-0.08,1.363-0.658,2.12-0.91c1.387-0.227,2.982-0.25,4.241-0.604
			c0.388-0.729,1.105-1.117,0.91-2.428c0.521-0.688,1.251-1.167,1.209-2.422C92.866,90.856,92.342,89.765,92.302,88.189z
			 M86.242,22.75c-0.047,2.174-0.502,3.941-0.605,6.059c-1.512-1.114-2.804-2.446-2.729-5.15
			C82.952,22.285,84.964,22.885,86.242,22.75z M73.213,15.479c0.056,2.074,0.018,4.056-0.303,5.756
			c0.08,0.99-1.172,0.641-1.212,1.516c-0.566,0.34-0.643,1.176-1.211,1.514c-0.68,1.137-1.244,2.392-2.12,3.334
			c-1.07,2.569-2.893,4.378-3.939,6.967c-1.137,0.884-2.147,1.895-3.03,3.031c-0.824-0.277,0.307-1.063,0.303-1.518
			c0.525-0.183-0.023-1.436,0.608-1.514c-0.232-0.778-0.734-1.282-1.519-1.514c3.748-6.253,7.811-12.188,12.119-17.876
			C73.169,15.12,73.196,15.294,73.213,15.479z M72.91,38.504c-0.081,1.025-0.478,1.74-0.301,3.031c-2.792-1.258-0.523-4.205,0-6.365
			C73.302,35.69,72.721,37.482,72.91,38.504z M69.579,36.688c-0.921-0.29-0.66-1.767-1.211-2.426
			c1.054-2.683,2.943-4.528,3.939-7.272c0.353-0.048,0.539,0.068,0.604,0.303v6.97C71.157,33.319,70.214,35.529,69.579,36.688z
			 M60.791,38.199c-0.153-0.154,0.22-0.385,0.305-0.301C61.254,38.055,60.878,38.285,60.791,38.199z M69.882,14.57
			c-0.726,1.8-2.468,2.58-3.03,4.542c-1.415,1.112-2.093,2.958-3.331,4.242c-0.908,1.615-1.916,3.136-3.03,4.544
			c-0.744,1.684-2.086,2.762-2.725,4.544c-0.693-0.419-0.114-2.108-0.305-3.026c2.97-5.009,5.782-10.178,9.088-14.846H69.882z
			 M56.855,14.57c0.537,0.222,0.044,0.552,0,0.908C56.315,15.258,56.814,14.928,56.855,14.57z M56.552,19.721
			c1.28-1.649,2.397-3.465,3.634-5.15h3.335c-0.207,1.106-1.149,1.477-1.512,2.424c-0.766,0.546-0.865,1.764-1.823,2.118
			c-0.873,1.751-2.327,2.925-3.026,4.849C56.282,23.221,56.614,21.274,56.552,19.721z M81.695,89.401
			c-1.41,0.608-1.479,2.56-2.725,3.331h-9.391c-11.864,2.24-27.135,0.976-39.689,0.304c-2.097,0.121-3.286,1.154-5.753,0.906
			c-0.178-1.589,0.533-2.292,0.303-3.936c1.259-0.154,1.255-1.571,1.815-2.423c0.881-2.152,0.835-5.229,1.211-7.879
			c-1.11-12.116-1.421-25.037-1.211-38.477c0.239-1.245-0.462-1.552-0.303-2.725c0.036-5.388,0.061-10.765-0.906-15.149v-3.332
			c0.255-0.055,0.284,0.116,0.303,0.304c1.529,0.49,3.176,0.862,4.848,1.213c5.386-0.125,11.223-1.22,16.663-0.305
			c1.697,0.182,2.871-0.159,3.937-0.603c0.145,5.709,0.197,11.516,0.608,16.965c-0.16,3.087,0.672,5.184,0.604,8.179
			c-0.156,1.675,0.176,2.857,0.307,4.241c-0.021,1.434-0.052,2.877,0.904,3.333c0.577-0.135,1.832,0.411,1.519-0.605
			c0.445-0.159,0.761-0.45,1.209-0.608c0.879-0.436,1.17-1.455,1.821-2.119c1.081-1.544,1.802-3.445,2.725-5.152
			c0.693-0.52,1.531-0.892,2.122-1.514c0.923-0.285,0.948-1.474,2.12-1.514c1.411,1.824,3.325,3.14,4.545,5.15
			c2.146,0.887,3.017,3.04,5.755,3.333c2.074-0.954,0.913-5.147,1.214-7.876c-0.239-1.249,0.464-1.554,0.301-2.728V26.082
			c0.307-1.474-0.519-2.896,0-3.635c0.576,0.535,2.003,0.22,3.032,0.303c-0.759,6.211,2.59,8.317,6.058,10.301
			c1.638,16.03,1.881,33.461,2.424,50.594c-0.07,0.939-1.076,0.945-1.819,1.214c-0.487,0.521-1.132,0.887-1.817,1.209
			C83.738,87.404,82.133,87.815,81.695,89.401z M88.664,92.43h-4.845c1.002-1.52,2.584-2.461,3.937-3.637
			c0.353-0.047,0.539,0.069,0.607,0.304C88.129,90.542,88.838,91.049,88.664,92.43z M80.789,12.752
			c1.371,1.134,6.913,2.376,7.574-0.304c-0.074-0.835-1.126-0.692-1.514-1.21C84.587,11.468,81.98,11.486,80.789,12.752z
			 M82.606,15.479c-0.22,0.69-1.728,0.092-1.514,1.21c0.425,1.192,2.871,0.36,4.239,0.606c0.786-0.526,2.584-0.042,2.425-1.512
			C86.609,14.467,84.479,15.696,82.606,15.479z"/>
	</g>
</g>
<g>
</g>
<g>
</g>
<g>
</g>
<g>
</g>
<g>
</g>
<g>
</g>
<g>
</g>
<g>
</g>
<g>
</g>
<g>
</g>
<g>
</g>
<g>
</g>
<g>
</g>
<g>
</g>
<g>
</g>
</svg>
