<?xml version="1.0" encoding="iso-8859-1"?>
<!-- Generator: Adobe Illustrator 19.0.0, SVG Export Plug-In . SVG Version: 6.00 Build 0)  -->
<svg version="1.1" id="Capa_1" xmlns="http://www.w3.org/2000/svg" xmlns:xlink="http://www.w3.org/1999/xlink" x="0px" y="0px"
	 viewBox="0 0 100 100" style="enable-background:new 0 0 100 100;" xml:space="preserve">
<g id="chicken2_1_">
	<g>
		<path style="fill-rule:evenodd;clip-rule:evenodd;" d="M80.925,1.802C77.381,0.944,73.631,0.289,69.516,0
			c-0.933,0.169-1.304,0.896-2.102,1.201c-4.742,0.962-9.668,1.741-13.212,3.902c-4.233,1.474-6.694,4.718-9.909,7.206
			c-0.59,1.513-2.093,2.108-2.402,3.903c-1.296,0.906-1.387,3.017-2.402,4.203c-0.426,1.676-1.102,3.104-1.8,4.506
			c-0.699,1.503-2.226,2.178-2.402,4.204c-0.757,1.256,0.652,1.338,0.3,3c-0.375,4.629-1.222,8.788-1.201,13.812
			c-0.465,0.437-0.265,1.537-0.303,2.403c-0.42,0.577-0.793,1.207-0.897,2.101c0.035,1.066,1.11,1.091,0.897,2.402v3.903
			c0.387,1.319,1.539,0.307,1.804,0.601c-4.908,5.2-11.166,9.054-15.013,15.314c-4.787-1.987-12.148-1.143-15.312,1.803
			c-0.775,1.627-1.552,3.254-1.803,5.402c-0.034,1.942,0.416,5.064,1.201,5.706c0.091,0.074-0.06,0.491,0,0.601
			c0.069,0.129,0.473,0.43,0.602,0.6c1.034,1.382,2.385,2.582,3.602,3.303c2.785,1.649,7.017,2.369,10.809,2.104
			c-0.262,1.863,0.466,2.734,0.901,3.902c2.139,1.666,4.297,3.309,7.506,3.904c3.101,0.096,5.675-0.334,8.407-0.601
			c2.888-2.218,4.647-5.562,4.503-10.809c-1.639-3.562-3.659-6.75-6.003-9.609c2.813-3.291,5.397-6.812,9.007-9.308
			c0.495-0.507,0.651-1.349,1.2-1.8c0-1.005,1.209-0.798,1.502-1.503c1.11,0.792,3.216,0.59,5.106,0.603
			c5.298-1.308,10.907-2.307,15.312-4.506c4.845-1.858,9.468-3.943,13.211-6.906c1.911-1.391,3.386-3.218,5.403-4.502
			c1.592-1.812,3.087-3.723,4.806-5.404c2.093-4.616,4.842-8.572,5.407-14.716v-3.903C94.389,15.359,89.192,7.045,80.925,1.802z
			 M35.887,55.247h2.103c0.091,0.691-0.869,0.334-0.902,0.901c-0.972-0.372-0.229,0.973-1.2,0.6V55.247z M22.375,91.277
			c-0.156-0.154,0.217-0.383,0.303-0.3C22.831,91.134,22.46,91.361,22.375,91.277z M31.382,78.066
			c-0.117,1.421,0.1,2.505,0.303,3.604c0.466,1.333,2.011,1.591,3.001,2.402c1.188,2.213,2.317,4.488,2.704,7.506
			c-0.393,2.008-1.201,3.605-2.704,4.504c-3.792,0.089-6.95-0.455-8.708-2.403c0.172-1.369-0.53-1.868-0.3-3.302
			c0.247-1.146-0.64-1.163-1.199-1.502c1.323-0.989,2.157-5.65-0.603-5.704c-1.126,0.077-1.36,1.041-1.801,1.802
			c-0.067,1.135-0.942,1.458-1.201,2.401c-1.204,0.298-1.574,1.43-3.303,1.202c-1.918-0.183-2.958-1.249-4.202-2.103
			c-1.448-0.654-2.386-1.819-3.304-3.003v-4.203c0.741-1.459,2.017-2.387,3.304-3.304c1.148-0.252,2.405-0.392,3.901-0.3
			c1.269,0.333,2.465,0.742,3.604,1.202c1.696-0.206,2.048-1.755,3.301-2.401c1.43-0.373,2.09-1.519,3.307-2.104
			c3.371-2.929,6.233-6.374,9.605-9.308c0.979-1.022,2.458-1.545,3.005-3.002v-1.5c1.281-0.007-0.211,1.566,0.3,2.701
			c-0.69,0.418-0.112,2.091-0.3,3.002c0.227,1.074,0.693,1.908,1.8,2.103C38.206,70.078,34.27,73.547,31.382,78.066z M90.535,35.128
			c-1.031-0.13-1.684,0.119-2.402,0.303c-0.165,1.364,0.155,2.247,0.901,2.7c-1.872,5.039-6.62,7.195-10.812,9.909
			c-1.651-0.347-1.749-2.252-3.602-2.399c-1.272-0.073-1.78,0.621-2.104,1.499c-0.005,1.808,1.453,2.151,2.104,3.303
			c-0.3,0.8-1.214,0.991-1.804,1.502c-0.786,0.413-1.032,1.369-2.102,1.501c-1.181,1.219-2.726,2.076-4.802,2.4
			c-1.184,1.121-3.222,1.383-4.806,2.104c-1.199,0-1.803,0.6-3.004,0.602c-0.687,0.514-2.114,0.284-2.7,0.899
			c-0.975-0.027-0.212-1.789-1.502-1.501c0.023,0.422-0.872,0.343-0.302,0.602c-0.024,0.819,0.502,0.603,0,1.201
			c-2.729,0.372-4.67,1.534-5.703,3.602h-4.805c-0.287-1.088,1.298-0.305,1.503-0.9c0.424-1.176,0.206-2.995,0.898-3.902
			c0.21-1.209-1.262-0.737-1.2-1.803c-0.358-0.742-1.028-1.174-1.801-1.501c0.616-1.583,2.412-1.991,2.402-4.202
			c-0.188-1.078-2.02-0.502-2.7-0.303c-0.388,0.816-1.54,0.865-1.804,1.803c-0.682-0.413,0.479-1.496,0.898-1.803
			c0.117-0.984,0.88-1.324,1.203-2.101c0.945-1.468,2.38-2.424,3.001-3.903c-1.126-1.473-3.984-0.164-4.504,0.902
			c-0.822-1.141,1.116-2.08,1.503-3.004c0.641-1.161,2.022-1.58,2.402-3.003c-0.759-1.329-3.522-0.354-3.905,0.601
			c-0.882-0.613,0.408-1.57,0.603-2.104c0.278-0.82,0.919-1.28,1.2-2.101c0.835-1.366,1.953-2.452,2.701-3.904
			c0.635-0.766,1.861-0.941,2.103-2.102c0.26-0.956-0.471-0.927-0.601-1.5c-3.536-0.235-4.082,2.521-6.006,3.903
			c0.288,1.247-0.898,0.061,0,0v-0.9c0.657-1.044,1.252-2.154,1.803-3.304c0.769-1.03,1.633-1.971,2.103-3.302
			c1.038-0.964,2.156-1.848,2.701-3.305c0.174-1.073-0.888-0.911-1.802-0.899c1.521-3.085,3.233-5.977,6.906-6.907
			c1.34-0.434,0.318-1.443,1.201-2.102c1.266-0.735,2.807-1.196,3.903-2.101c1.115,0.211,1.288-0.514,2.402-0.301
			c2.117-1.188,5.347-1.257,8.108-1.802h4.8c1.369,0.337,2.277,1.129,3.608,1.501c1.229,0.03,2.459,0.059,3.299-0.301
			c1.186-0.082,0.92,1.284,2.103,1.202c1.434,2.071,3.272,3.733,4.504,6.005c0.257,1.444,1.246,2.157,1.503,3.602
			c0.625,1.176,0.748,2.855,1.5,3.904c-0.212,1.311,0.512,1.691,0.298,3.002c0.397,0.807,0.81,1.596,1.206,2.402
			C91.378,31.369,90.823,33.115,90.535,35.128z M59.308,15.613c-0.657,2.505,2.268,3.438,3.601,2.102
			C63.127,15.721,61.041,14.682,59.308,15.613z M76.121,18.014c-0.1,1.879,2.317,2.584,3.902,1.803
			C80.86,17.113,77.028,16.219,76.121,18.014z M71.017,27.623c-0.229,2.13,0.569,3.234,2.703,3.004
			c0.418-1.358,0.166-2.678-0.604-3.606C72.188,26.992,71.683,27.389,71.017,27.623z M50,28.224
			c-1.252,1.089-1.724,6.419,0.898,6.304c1.512-0.789,1.546-3.059,1.505-5.401C51.739,28.684,51.11,28.211,50,28.224z M59.005,48.04
			h1.203c1.213-1.292,0.156-3.165-0.299-4.504C56.392,42.768,56.851,47.639,59.005,48.04z"/>
	</g>
</g>
<g>
</g>
<g>
</g>
<g>
</g>
<g>
</g>
<g>
</g>
<g>
</g>
<g>
</g>
<g>
</g>
<g>
</g>
<g>
</g>
<g>
</g>
<g>
</g>
<g>
</g>
<g>
</g>
<g>
</g>
</svg>
