<?xml version="1.0" encoding="iso-8859-1"?>
<!-- Generator: Adobe Illustrator 19.0.0, SVG Export Plug-In . SVG Version: 6.00 Build 0)  -->
<svg version="1.1" id="Capa_1" xmlns="http://www.w3.org/2000/svg" xmlns:xlink="http://www.w3.org/1999/xlink" x="0px" y="0px"
	 viewBox="0 0 100 100" style="enable-background:new 0 0 100 100;" xml:space="preserve">
<g id="cloud1_1_">
	<g>
		<path style="fill-rule:evenodd;clip-rule:evenodd;" d="M97.994,55.526c-2.164-2.83-4.204-5.785-7.77-7.216
			c-1.595-0.805-3.726-0.955-5.83-0.555c1.555-3.625,3.263-7.1,3.888-11.656v-8.323c-0.444-2.888-1.472-5.188-2.496-7.494
			c-1.437-1.71-3.112-3.183-4.719-4.717c-2.168-0.886-4.184-1.926-6.938-2.222H67.19c-0.462,0.466-1.631,0.223-2.497,0.278
			c-2.608,0.721-5.157,1.503-7.493,2.498c-2.011,1.411-3.984,2.862-5.828,4.44c-0.595,1.164-1.767,1.749-2.221,3.051
			c-1.258,0.592-1.273,2.429-2.497,3.055c-0.48-1.557-2.31-1.762-3.606-2.498c-10.976-1.019-19.33,2.828-24.976,8.047
			c-0.27,1.118-1.078,1.699-1.667,2.498c-0.109,1.002-0.37,1.851-0.834,2.498v6.659c0.321,0.33,0.315,0.981,0.279,1.666
			c0.488,0.712,0.205,2.2,0.831,2.774c-0.229,0.785,0.391,0.721,0.277,1.388c-0.038,0.368,0.934,1.032,0.279,1.11
			c-1.826-0.067-3.504,0.013-4.996,0.278c-6.73,3.63-10.488,10.232-12.208,18.869c-0.124,2.254,0.12,4.137,0.276,6.105
			c0.452,0.476,0.839,1.01,0.833,1.943c3.069,4.517,7.853,7.317,14.985,7.77c2.118,0.084,4.026-0.043,5.829-0.276
			c1.489,0.36,3.155,0.541,4.717,0.831c15.95,0.856,31.816-0.227,47.729-0.276c2.938-1.041,7.291-0.666,10.825-1.11
			c0.051-0.411,0.67-0.255,1.109-0.278c0.181-0.372,0.591-0.518,1.109-0.554c0.332-0.686,0.951-1.086,1.664-1.388
			c1.577,0.188,2.278-0.5,3.61-0.555c1.613-1.255,3.181-2.552,4.441-4.163c1.341-2.267,2.294-4.922,2.772-8.049
			C100.175,64.257,99.794,59.183,97.994,55.526z M24.177,51.362c-0.248,0.171-0.499,0.335-0.556,0
			C23.69,51.014,24.174,51.082,24.177,51.362z M91.889,67.458c-0.621,0.768-1.08,1.695-1.388,2.775
			c-0.688,0.793-1.269,1.692-1.665,2.775c-1.609,1.257-2.29,3.442-4.441,4.162c0.538-0.677,0.267-2.321,0-3.052
			c-0.214-0.062-0.547-0.009-0.552-0.279c-3.019-0.058-3.963,1.96-4.165,4.718h-4.439c-0.614-0.607,0.273-1.133,0-2.219
			c-0.545-2.045-0.505-4.676-1.943-5.828c-3.872,0.199-5.446,2.694-7.214,4.995c-0.106,1.587,0.023,2.934,1.109,3.33
			c-0.386,0.632-1.932,0.104-2.775,0.277c0.184-0.928,0.862-1.358,1.111-2.22c-1.168-0.82-1.915,0.744-2.499,1.388H62.75
			c0.015,0.38-0.131,0.609-0.275,0.832c-0.433-0.073-0.194-0.608,0-0.832h0.275c0.806-1.97,2.027-3.524,3.053-5.272
			c0.853-1.588,3.04-3.203,1.943-5.829c-3.249,0.083-3.665,2.998-5.831,4.163c-1.658,1.764-3.263,3.582-4.716,5.551
			c-0.232,0.691-0.365,1.487-0.278,2.498c-7.226,0.728-15.293,0.617-22.752,1.109c0.056-1.393,0.902-2.623,0.275-3.885
			c-0.217-0.063-0.549-0.009-0.555-0.277c-2.752,0.301-3.62,2.484-4.719,4.439H27.23c0.439-1.87,1.248-3.377,1.941-4.995
			c-0.113-0.619,0.154-1.333,0-1.943c-0.177-0.712-0.317-0.719-0.834-1.108c-2.888,0.624-3.674,3.354-5.547,4.994
			c-0.238,1.059-0.826,1.766-1.113,2.775c-1.026,0.197-1.188-0.474-2.216-0.277c0.126-2.765,2.827-4.351,2.216-6.938
			c0-0.367-0.483-0.255-0.552-0.555c-2.045,0.083-3.127,1.127-4.165,2.219c-0.738-0.846,0.727-1.853,0.279-3.328
			c-0.328-0.136-0.629-0.297-0.833-0.557c-3.438,0.633-5.077,3.062-6.385,5.828c-0.932-0.954,0.387-2.008,0.278-3.054
			c0.697-0.691,0.788-1.987,1.391-2.774c0.779-1.902,2.014-3.351,3.051-4.995c-0.152-1.142-1.031-1.556-2.497-1.387
			c-2.15,0.715-3.265,2.468-4.441,4.162c-0.614-0.453,0.389-1.629,0.556-2.221c0.467-0.734,0.644-1.764,1.11-2.497
			c0.739-1.664,2.153-2.657,2.775-4.44c-1.365-0.539-2.745,1.076-3.607,1.943c-0.534-0.198,0.054-1.584,0.557-1.667
			c-0.071-0.993,0.828-1.016,0.828-1.941c2.434-2.288,4.877-4.562,8.884-5.271c1.022-0.006,1.225,0.807,1.664,1.387
			c0.479-0.015,0.712,0.214,0.832,0.555c0.172,0.386,1.069,0.042,1.113,0.555c1.077-0.216,1.559-1.03,2.497-1.387
			c0.219-1.261,0.39-2.567,0.829-3.608c-0.075-1.125-0.882-1.523-0.554-3.052c0.333-1.519,1.332-2.367,1.664-3.886
			c-0.077-1.225-1.468,0.15-1.664-0.555c-0.11-1.683,1.184-1.962,1.944-2.775c0.535-1.13,1.91-1.417,2.22-2.774
			c-0.015-1.097-0.57-1.652-1.667-1.665c0.577-0.996,1.366-1.781,1.943-2.776c4.096-1.552,12.245-3.737,16.095-0.555
			c-0.062,3.3-0.457,6.932,2.496,7.216c1.339-0.049,1.824-0.95,1.945-2.22c0.323,0.233,0.743,0.366,1.385,0.277
			c1.541-0.498,2.088-1.983,2.778-3.331c0.543-1.583,1.788-2.469,2.496-3.885c1.201-0.832,1.958-2.113,3.333-2.774
			c0.729-1.397,3.172-1.081,3.329-3.052c0.076-1.282-0.911-1.497-1.667-1.944c-2.063-0.215-2.789,0.908-4.163,1.389
			c-1.576,1.107-2.944,2.418-4.438,3.608c0.029,0.335-0.404,0.17,0,0c-0.069-0.995,0.833-1.017,0.833-1.941
			c0.906-0.109,0.86-1.175,1.385-1.666c1.448-0.869,2.61-2.019,4.441-2.498c0.456-0.656,1.63-0.591,2.22-1.11
			c0.873-0.328,2.095-0.312,2.778-0.832c0.358,0.381,1.204,0.274,1.941,0.277c0.648-0.091,1.146-0.334,1.666-0.556h4.993
			c2.808,0.337,4.67,1.622,6.385,3.054c1.151,1.716,1.998,3.734,2.497,6.104v5.55c-0.512,5.688-2.954,9.441-4.718,13.877v2.221
			c0,0.277,0.225,0.329,0.276,0.555c0.078,0.57,0.745,0.554,1.113,0.832c1.03-0.293,0.895,0.584,1.387,0.833
			c0.784-0.142,1.178-0.672,1.942-0.833h4.438c0.236,0.412,0.896,0.402,1.391,0.555c0.114,0.349,0.358,0.567,0.83,0.556
			c0.54,1.312,1.612,2.088,2.221,3.33c0.668,1.182,1.114,2.585,1.667,3.885c0.042,0.327-0.048,0.787,0.276,0.833
			C92.835,62.857,92.232,65.029,91.889,67.458z M66.633,21.392c-0.011,0.383,0.131,0.609,0.279,0.833
			c1.512-0.06,3.337,0.19,4.438-0.278C71.12,20.536,67.68,21.088,66.633,21.392z M56.089,34.712
			c-1.716,0.781-2.749,2.244-4.163,3.33c-0.691,1.637-2.549,3.223-1.664,5.551c0.619,0.399,1.338,0.696,2.496,0.554
			c1.308-1.099,1.725-3.086,2.498-4.717c0.871-1.628,2.302-2.697,2.497-4.995c-0.524,0.062-0.609-0.313-1.109-0.278
			C56.639,34.524,56.157,34.411,56.089,34.712z"/>
	</g>
</g>
<g>
</g>
<g>
</g>
<g>
</g>
<g>
</g>
<g>
</g>
<g>
</g>
<g>
</g>
<g>
</g>
<g>
</g>
<g>
</g>
<g>
</g>
<g>
</g>
<g>
</g>
<g>
</g>
<g>
</g>
</svg>
