<?xml version="1.0" encoding="iso-8859-1"?>
<!-- Generator: Adobe Illustrator 19.0.0, SVG Export Plug-In . SVG Version: 6.00 Build 0)  -->
<svg version="1.1" id="Capa_1" xmlns="http://www.w3.org/2000/svg" xmlns:xlink="http://www.w3.org/1999/xlink" x="0px" y="0px"
	 viewBox="0 0 100 100" style="enable-background:new 0 0 100 100;" xml:space="preserve">
<g id="gears2_1_">
	<g>
		<path style="fill-rule:evenodd;clip-rule:evenodd;" d="M98.257,35.197c-5.075-0.88-11.022,0.184-16.195,0.339
			c0.493-1.462,1.594-2.311,2.413-3.441c0.892-1.181,1.927-2.213,3.102-3.101c-0.177-2.474,1.712-2.882,2.068-4.825
			c0.014-1.047-0.729-1.34-1.036-2.066c-0.818-0.215,0.054-2.12-0.686-2.41c-2.802-3.861-6.602-6.722-9.646-10.337
			c-1.544-0.754-1.842-2.752-4.134-2.753c-2.214,0.539-2.969,2.539-4.823,3.444c-0.66,1.177-1.226,2.448-2.413,3.099
			c-0.653,1.299-1.219,2.686-2.754,3.101c-1.502-0.104-2.858-0.358-3.79-1.035c-0.915-2.479-0.007-5.923,0-8.609
			c0.724-1.459,1.464-2.897,1.377-5.168c-0.983-1.424-3.28-1.542-5.856-1.377h-7.582c-2.708,0.962-7.729-0.382-9.983,1.03
			c-2.479,2.809-0.967,9.604-1.382,14.471c-1.401,0.436-1.995,1.677-3.446,2.068c-0.969-2.703-3.288-4.062-4.134-6.891
			c-1.127-0.708-1.316-2.361-2.064-3.446c-0.722-1.118-0.863-2.816-2.757-2.757c-2.123-0.17-2.292,1.614-3.79,2.069
			c-0.712,1.242-2.045,1.856-2.757,3.1c-2.268,1.748-3.932,4.106-6.203,5.856c-0.08,1.297-1.293,1.457-1.375,2.754
			c-0.331,1.049-2.062,0.698-1.725,2.413c1.486,5.518,6.052,7.957,8.267,12.747c-0.672,1.276-0.587,3.313-1.375,4.479
			c-2.387-0.091-5.066,0.113-7.58,0c-2.537-0.118-5.282-1.111-6.889,0.687c-0.715,1.535-0.325,4.594,0,6.202v6.2
			c0.283,3.62,1.394,6.413,2.757,8.957c5.434,0.154,9.698-0.861,14.466-1.377c-0.333,2.172,0.924,2.749,0.691,4.823
			c-2.438,3.418-5.615,6.096-8.612,8.955c-0.498,0.535-0.46,1.611-1.033,2.068c-0.578,0.573-1.396,0.903-1.38,2.068
			c1.002,3.82,3.929,5.714,5.856,8.609c2.986,2.086,4.458,5.653,8.268,6.548c2.896-1.123,4.809-3.231,7.233-4.823
			c0.941-1.014,2.104-1.804,3.102-2.757c1.212-0.512,1.936-2.96,3.79-1.722c0.71,0.295,0.363,2.394,0,2.754v3.791
			c-0.087,1.58,1.557,1.429,1.377,3.104c0.078,1.988,0.328,3.801,0.693,5.506c2.262,2.215,6.354,2.604,11.018,2.413
			c1.665-0.403,2.773-1.358,4.479-1.722h5.512c1.373-0.698,1.863-2.269,2.754-3.445c-0.653-3.637,0.46-6.654,0.693-10.334
			c1.422-0.182,2.71-0.504,4.132-0.688c1.04,1.717,2.137,3.375,3.445,4.824c0.963,1.792,2.668,2.841,4.825,3.447
			c1.427-0.294,1.685-1.762,3.441-1.727c2.059-2.075,3.705-4.566,5.855-6.544c0.762-1.307,1.512-2.623,2.757-3.446
			c0.448-1.62,2.366-1.768,2.755-3.443c0.717-0.09,0.094-1.514,0.691-1.724c0.396-0.406,0.387-1.217,0.344-2.066
			c-0.71-2.276-2.441-3.53-3.79-5.17c-0.738-0.755-1.07-1.914-2.065-2.41c-0.003-0.684-0.939-0.439-0.691-1.377
			c-0.302-0.104-1.507-0.933-0.686-1.035c4.766-0.229,7.339,0.49,11.023,0c0.479-0.783,1.193-1.331,1.722-2.064
			c-0.092-1.36,1.472-1.054,1.379-2.412c0.583-5.043,0.977-10.278,1.377-15.504C98.781,39.911,99.847,37.259,98.257,35.197z
			 M8.689,53.794c-0.174-0.178,0.248-0.436,0.345-0.342C9.211,53.631,8.784,53.892,8.689,53.794z M92.744,46.906
			c-0.755,3.035-0.208,7.367-1.722,9.646c-3.212,0.118-6.959-0.302-9.646,0.347c-0.927,0.236-0.665-0.715-1.031-1.036
			c-0.661-0.148-0.87-0.74-1.726-0.689c-3.21,0.233-3.031,3.856-4.135,6.2c0.793,3.228,2.576,5.464,4.823,7.236
			c1.665,2.471,3.53,4.739,5.512,6.888c-0.149,0.77-1.701,0.142-2.408,0.344c-2.248,1.198-3.507,3.382-5.514,4.823
			c-0.441,1.394-1.773,1.897-2.066,3.445c-2.032-1.528-2.86-4.259-4.479-6.199c-0.917-0.235-1.752-0.544-2.412-1.034
			c-2.813,1.087-6.438,1.365-9.302,2.411c-1.115,0.374-1.299,1.684-2.065,2.409c0.377,3.821-0.746,6.146-0.689,9.646
			c-2.009,0.056-3.304-0.601-5.509-0.342c0.765-2.104,1.403-4.336,1.72-6.891c0.707-0.67,0.44-2.311,1.033-3.101
			c-0.101-1.34,0.891-2.723,0-3.79c-1.434,0.059-1.769,1.217-2.068,2.415c-0.391,1.214-1.063,2.146-1.031,3.785
			c-1.212,2.004-1.226,5.207-2.068,7.582h-4.134c-0.113-0.799,0.057-1.325,0.347-1.724c0.95,0.146,0.323-1.285,1.03-1.377
			c0.123-4.269,2.21-8.325,1.724-12.059c-2.394-0.442-1.804,2.099-2.754,3.099c-0.269,0.767-0.724,1.347-0.691,2.413
			c-0.783,0.25-0.104,1.964-1.377,1.722c-0.403-1.889-0.687-2.358-0.345-4.477c-0.639-2.344-2.674-3.299-5.167-3.79
			c-0.177-2.323,1.797-4.061,0.687-6.199c-1.804-0.202-2.312,0.902-2.408,2.409c-0.677,0.932-0.932,2.285-1.035,3.79
			c-2.54,2.165-4.682,4.738-7.577,6.544c0.033,0.417-0.5,0.215,0,0c0.438-3.49,2.643-6.96,2.065-10.335
			c-1.813,0.366-1.497,2.87-2.754,3.79c-0.257,1.927-0.868,3.498-1.379,5.167c-0.09,1.125,0.408,1.658,1.379,1.722
			c-0.531,1.309-2.226,1.451-2.757,2.757c-0.906-0.356-1.161-1.365-2.066-1.719c0.182-0.967,0.505-1.794,0.687-2.759
			c-0.241-2.771,0.523-4.53,0.69-6.889c0.637-0.053,0.21-1.168,0.689-1.378c0.004-0.684,0.941-0.438,0.691-1.377
			c-0.106-0.703-0.691-0.921-1.035-1.382c-3.962,0.635-3.937,5.254-4.825,8.961c-1.057-0.547-1.085-2.128-2.063-2.758
			c1.429-2.932,3.879-4.847,5.511-7.577c0.788-0.363,2.078-0.222,2.754-0.69c0.21-0.824,0.496-1.572,0.345-2.756
			c-0.165-1.087,1.059-0.781,0.691-2.068c-0.488-3.07-1.212-5.905-2.413-8.269c-0.595,0.021-0.882-0.264-1.035-0.686
			c-1.533-0.271-2.063,0.458-3.443,0.344c0.408-2.589,3.481-3.925,2.408-6.892c-3.066-0.308-3.337,2.173-5.163,3.1
			c-0.233,1.606-1.804,1.873-1.722,3.792c-1.302-0.264-1.648,0.42-2.757,0.342c0.943-1.123,1.755-2.377,2.063-4.134
			c0.774-1.408,1.616-2.747,2.068-4.476c-1.41-1.052-3.358,0.302-3.79,1.376c-0.837-0.281,0.681-1.817-0.342-2.409
			c-1.912-0.672-2.094,1.526-3.099,0.688v-2.068c2.594,0.557,6.778,0.576,8.955-0.344c1.821,0.394,2.554,0.156,4.479,0
			c0.609-0.309,1.066-0.771,1.377-1.375c0.349-1.5-0.715-1.587-1.035-2.415c1.08-2.273-1.055-4.745-0.342-6.542
			c-0.326-1.397,1.866,0.434,2.413-0.691c0.958-0.188,0.962-1.33,1.377-2.066c-0.359-2.401-2.411-3.105-3.79-4.481
			c-1.821-0.934-2.87-2.639-4.823-3.445c0.102-1.272,1.462-1.288,2.066-2.063c0.542-0.835,1.233-1.524,2.063-2.07
			c0.549-0.833,1.236-1.522,2.071-2.067c0.788-0.703,1.302-1.684,2.757-1.719c0.507,2.243,2.115,3.398,3.099,5.164
			c1.425,1.446,1.703,4.038,3.79,4.824h1.033c1.698-0.025,2.03-1.418,2.415-2.756c1.063-0.083,1.332-0.96,2.063-1.377
			c0.813-0.011,1.014,0.594,2.066,0.344c2.938-1.429,1.297-7.434,1.726-11.368c2.835,0.493,5.236,1.422,8.61,1.377
			c1.837-0.228,2.684-1.455,4.823-1.377v6.887c0.615,2.144-0.026,5.537,1.722,6.547c2.033,0.427,1.15-2.066,2.41-2.41
			c1.419-0.271,1.771,0.526,3.099,0.344c0.917,0.462,1.04,1.719,2.415,1.719c2.557-0.196,3.479-2.033,5.512-2.755
			c1.575-0.95,2.709-2.34,4.134-3.445c1.823-0.099,1.823,1.625,3.099,2.067c1.087,0.751,1.858,1.817,3.104,2.414
			c0.953,1.915,2.844,2.892,3.443,5.164c-3.641,1.184-3.641,6.007-7.924,6.547c-0.755,3.398-0.693,8.653,2.068,9.648
			c0.99,0.068,1.75-0.089,2.066-0.692c2.887,2.293,8.485,0.256,12.745,0.692C92.994,42.019,92.576,44.913,92.744,46.906z
			 M66.908,46.217c-0.538-0.953-1.07-1.915-1.377-3.101c-0.967-1.446-2.375-2.449-3.101-4.133c-0.863,0.06-1.08-0.529-1.377-1.032
			c-1.92-0.727-3.273-2.012-5.512-2.415c-1.948-0.807-4.561-0.949-6.889-1.377h-4.478c-0.212,0.021-0.41,0.054-0.347,0.344h-0.688
			c-0.852,0.524-2.047,0.709-2.413,1.726c-0.493,0.191-0.837,0.535-1.033,1.031c-0.498,0.186-1.778-0.402-1.719,0.347
			c-1.035,0.344-1.724,1.029-2.068,2.063c-1.533-0.152-1.825,0.932-2.757,1.382c-1.804,3.589-2.87,7.922-2.41,13.778
			c0.74,1.099,0.953,2.719,1.722,3.79c0.837,1.11,1.759,2.146,2.412,3.443c1.993,1.797,3.877,3.702,6.2,5.169
			c2.771,0.783,5.828,1.29,9.304,1.378c0.394-0.291,0.92-0.454,1.72-0.347c3.556-1.379,7.087-2.789,9.987-4.821
			c0.849-1.224,2.094-2.045,2.757-3.446c1.019-1.165,1.632-2.736,2.413-4.134C67.193,52.592,67.467,48.988,66.908,46.217z
			 M53.817,62.063c-3.983,0.198-7.417-0.16-10.334-1.031c-1.967-1.596-4.115-3.005-5.162-5.514c-0.639-4.016-0.547-7.889,0-11.714
			c0.59-0.545,1.325-0.969,2.405-1.377c0.123-0.047,0.616,0.094,0.693,0c0.408-0.5,2.477-1.208,3.785-1.375
			c2.776-0.361,5.674,0.422,8.613,0.342c1.217,1.197,3.278,1.544,3.79,3.445c0.691,0.573,1.601,0.925,1.722,2.066
			c1.318-0.167,1.08,1.219,1.724,1.724C61.623,56.089,58.279,59.634,53.817,62.063z"/>
	</g>
</g>
<g>
</g>
<g>
</g>
<g>
</g>
<g>
</g>
<g>
</g>
<g>
</g>
<g>
</g>
<g>
</g>
<g>
</g>
<g>
</g>
<g>
</g>
<g>
</g>
<g>
</g>
<g>
</g>
<g>
</g>
</svg>
