<?xml version="1.0" encoding="iso-8859-1"?>
<!-- Generator: Adobe Illustrator 19.0.0, SVG Export Plug-In . SVG Version: 6.00 Build 0)  -->
<svg version="1.1" id="Capa_1" xmlns="http://www.w3.org/2000/svg" xmlns:xlink="http://www.w3.org/1999/xlink" x="0px" y="0px"
	 viewBox="0 0 101.91 101.91" style="enable-background:new 0 0 101.91 101.91;" xml:space="preserve">
<g id="diamond_1_">
	<g>
		<path style="fill-rule:evenodd;clip-rule:evenodd;" d="M47.673,14.836c3.84-0.109,1.959-6.976,2-9.986
			c-0.08-1.729,0.306-3.921-0.57-4.85h-0.856c-0.069,0.407-0.472,0.481-0.573,0.854c-0.061,0.223-0.004,0.565-0.283,0.57
			c-0.051,2.081-0.592,4.406-0.854,6.564c-0.279,2.272-0.769,4.562,0.284,6.561C47.156,14.595,47.63,14.501,47.673,14.836z
			 M29.987,19.97c0.96-0.277,1.423-1.049,1.998-1.711c0.116-3.731-0.796-6.431-1.711-9.129c-0.697-0.158-0.608-1.106-1.712-0.857
			c-0.592-0.409-0.943-0.967-1.427-1.426c-0.052-0.047-0.226,0.038-0.287,0c-0.422,0.338-0.441,1.077-0.854,1.426v2.854
			C27.564,13.834,25.729,19.949,29.987,19.97z M70.5,23.109c1.895,0.46,2.389-0.637,3.139-1.427c0.73-0.77,1.303-2.119,1.711-3.139
			c0.646-0.786,1.23-1.783,1.43-2.567c0.155-0.628,0.574-1.276,0.852-1.997c0.241-0.617,0.793-1.245,0.572-1.996
			c-0.062-0.225-0.239-0.332-0.572-0.287c-1.764,1.373-3.08,3.197-4.85,4.564c-1.121,1.871-3.722,3.308-3.135,5.992
			C70.052,22.413,70.339,22.696,70.5,23.109z M9.732,26.247c0.067-0.979,1.85-0.242,1.71-1.426c-0.326-2.906-2.616-3.85-3.423-6.277
			c-1.106-0.319-1.461-1.393-2.566-1.711c-0.395,0.366-0.283,1.238-0.285,1.995c-0.681,0.653-1.624,1.04-1.715,2.282
			c0.25,3.272,1.449,5.592,4.282,6.277C8.559,27.171,9.375,26.937,9.732,26.247z M79.913,40.227
			c-1.929-1.778-3.858-3.558-5.989-5.136c-0.598-1.494-2.023-2.16-2.568-3.709c-1.186-1.003-1.811-2.562-3.139-3.424
			c-3.975-0.303-7.576-0.98-11.412-1.426c-5.217,0.082-11.566,0.01-15.977-0.285c-0.169-0.012-0.337,0.062-0.284,0.285
			c-2.844,0.059-5.865,0.64-8.558,0c-2.845,1.624-5.79,3.149-8.845,4.566c-1.275,1.292-2.236,2.901-3.709,3.993
			c-3.119,1.828-5.525,4.367-8.559,6.277c-1.057,1.131-0.973,3.402-2.569,3.994c-1.446,0.834-1.124,3.439-1.71,5.135
			c0.669,1.424,1.393,2.793,2.281,3.994c0.895,1.199,1.427,2.758,2.567,3.708c1.153,3.035,3.489,4.884,4.282,8.275
			c2.15,1.557,3.113,4.304,5.136,5.992c0.491,1.407,1.646,2.156,2.28,3.424c0.682,1.217,1.642,2.159,2.281,3.423
			c3.443,4.069,7.199,7.827,9.986,12.552c2.841,2.484,5.525,5.126,8.275,7.705c1.899,0.573,3.282,1.661,5.136,2.282
			c0.524-0.872,1.354,0.329,2.283,0c4.096-1.228,6.139-4.515,8.842-7.134c2.168-3.156,4.479-6.172,6.56-9.414
			c1.505-2.656,3.736-5.426,5.138-7.703c0.165-0.266,0.438-0.359,0.572-0.57c0.23-0.367,0.312-1.043,0.568-1.428
			c0.087-0.127,0.47-0.15,0.57-0.285c0.18-0.236,0.139-0.643,0.287-0.855c0.645-0.924,1.209-1.484,1.711-2.283
			c0.242-0.383,0.314-1.025,0.572-1.426c0.08-0.123,0.472-0.154,0.568-0.285c0.179-0.236,0.137-0.644,0.289-0.855
			c0.91-1.312,1.616-2.537,2.566-3.709c2.031-5.004,4.922-9.151,5.135-15.976c-0.339-0.709-0.414-1.68-0.57-2.567
			C82.964,44.595,81.326,42.522,79.913,40.227z M10.586,50.497c-0.145-0.148,0.208-0.364,0.287-0.286
			C11.021,50.359,10.667,50.577,10.586,50.497z M70.785,39.655h0.855c0.877,1.217,1.912,2.271,2.854,3.424
			c0.798,1.198,2.087,1.907,2.567,3.424c-2.73,1.547-5.904,2.654-8.56,4.279c-1.94-1.008-1.642-4.254-3.138-5.705
			C66.007,42.105,69.308,41.793,70.785,39.655z M33.695,30.812c6.488,0.931,13.482,1.352,21.111,1.141
			c2.799,0.343,5.726,0.553,8.276,1.142c1.708-0.093,2.853,0.383,3.992,0.856c0.854,0.668,1.224,1.821,1.999,2.567
			c-1.799,2.48-4.836,3.722-7.42,5.421c-8.216-3.541-21.229,0.961-30.241-1.712c-0.424-0.524-1.189-0.712-1.426-1.427
			c-0.609-0.343-1.554-0.348-1.71-1.141c-1.064-0.746-2.383-1.233-2.856-2.568C28.625,34.11,31.162,32.46,33.695,30.812z
			 M29.703,50.211c0.424-0.241,0.412-0.918,0.571-1.426c0.472-0.952,0.664-2.185,1.139-3.137c8.478-2.176,19.681-1.624,30.241-1.713
			c-0.207,3.63,1.998,4.851,2.282,7.988c-5.55,0.631-12.118,0.243-17.687,0.856c-4.598-1.015-10.347-0.875-15.976-0.856
			C30.498,50.937,29.957,50.719,29.703,50.211z M13.153,46.503c0.218-1.209,1.334-1.523,1.998-2.282
			c0.839-0.587,1.564-1.29,2.567-1.713c1.384-1.373,3.158-2.358,4.564-3.708c-0.077-0.459,0.271-0.49,0.287-0.855
			c0.07,0.035,0.225-0.045,0.285,0c2.101,1.53,3.307,3.713,5.991,4.563c-0.554,1.254-1.249,2.367-1.998,3.425
			c-0.456,1.256-1.546,1.877-1.711,3.424C21.222,48.323,17.612,46.99,13.153,46.503z M39.689,88.44
			c-1.033-1.059-1.845-2.34-2.853-3.423c-2.362-6.199-5.976-11.142-9.416-16.263c-3.161-5.397-6.795-10.32-9.986-15.691
			c0.154-0.41-1.11-0.695-0.285-0.854c3.536,0.649,6.407,1.963,9.416,3.138c2.672,6.174,5.295,12.397,8.275,18.26
			c1.1,3.271,2.812,5.934,3.992,9.129c0.668,1.521,1.615,2.756,1.995,4.564c0.843,1.345,1.569,2.807,1.998,4.565
			C41.185,91.319,40.883,89.431,39.689,88.44z M51.955,95.288c-1.557-0.533-2.07-2.113-2.852-3.424
			c-1.17-0.828-1.271-2.725-2.282-3.708c-0.371-3.243-1.828-5.399-2.282-8.559c-0.62-1.188-0.82-2.792-1.43-3.995
			c-0.139-1.569-0.879-2.543-1.138-3.993c-1.761-5.374-3.575-10.693-5.993-15.405c0.733-0.791,3.242,0.197,3.995-0.571
			c2.794,0.343,5.724,0.553,7.985,1.425h11.129c2.254-0.139,4.457-1.474,6.277-1.141c0.363,2.109-0.908,4.709-1.713,6.562
			c-0.801,2.148-1.582,4.314-1.998,6.848C57.352,76.91,54.687,86.132,51.955,95.288z M80.486,53.063
			c-0.341,0.897-0.963,1.511-1.141,2.569c-0.447,0.79-0.889,1.587-1.143,2.566c-2.018,3.976-4.394,7.591-6.275,11.697
			c-2.223,2.629-3.445,6.256-5.992,8.56c-0.652,1.822-1.906,3.041-2.853,4.564c-1.208,1.17-1.852,2.902-3.14,3.994
			c-0.846-0.499,0.166-1.52,0-2.281c0.316-0.54,0.367-1.349,0.572-1.998c0.366-1.344,0.759-2.664,1.426-3.709
			c2.713-7.843,7.643-13.469,8.559-23.109c2.469-2.38,6.387-3.312,9.129-5.42h0.284C81.203,50.233,80.857,52.55,80.486,53.063z
			 M96.748,30.812c-0.047,0.332-0.453,0.311-0.857,0.286c-1.133,1.055-2.566,1.807-3.707,2.852c-1.215,1.07-3.36,1.206-2.854,3.994
			c1.999,1.578,3.805-0.589,5.42-1.143c1.275-1.86,3.529-2.744,3.708-5.704C97.789,31.104,97.619,30.604,96.748,30.812z"/>
	</g>
</g>
<g>
</g>
<g>
</g>
<g>
</g>
<g>
</g>
<g>
</g>
<g>
</g>
<g>
</g>
<g>
</g>
<g>
</g>
<g>
</g>
<g>
</g>
<g>
</g>
<g>
</g>
<g>
</g>
<g>
</g>
</svg>
