<?xml version="1.0" encoding="iso-8859-1"?>
<!-- Generator: Adobe Illustrator 19.0.0, SVG Export Plug-In . SVG Version: 6.00 Build 0)  -->
<svg version="1.1" id="Capa_1" xmlns="http://www.w3.org/2000/svg" xmlns:xlink="http://www.w3.org/1999/xlink" x="0px" y="0px"
	 viewBox="0 0 91.723 91.723" style="enable-background:new 0 0 91.723 91.723;" xml:space="preserve">
<g id="dribbble_1_">
	<g>
		<path style="fill-rule:evenodd;clip-rule:evenodd;" d="M90.627,44.884c-0.267-2.113-1.762-2.996-1.711-5.422
			c-0.479-1.992-0.89-4.057-1.43-5.989c-1.132-3.718-2.377-7.325-4.28-10.272c-1.441-3.407-3.339-6.358-5.702-8.845
			c-1.954-2.991-4.776-5.117-7.704-7.133c-0.626-0.42-1.538-0.557-1.998-1.141c-1.136,0.092-2.106,0.016-2.567-0.57
			c-0.898-0.434-1.392-1.272-2.566-1.426c-0.064-1.27-1.39-1.274-1.999-1.998C54.682,1.8,50.687-0.481,43.836,0.092
			c-0.062,0.222-0.238,0.332-0.569,0.284c-1.63,0.082-2.862,0.562-3.997,1.143c-1.311,0.495-3.141,0.468-4.277,1.141
			c-3.21,0.403-5.242,1.986-8.273,2.568c-3.495,2.971-7.65,5.281-11.127,8.273c-1.803,1.432-3.736,2.73-5.134,4.564
			c-1.908,1.42-3.288,3.367-4.851,5.136c-0.157,0.509-0.145,1.185-0.571,1.426c-0.17,0.591,0.354,1.875-0.284,1.999
			c-0.248,1.176-0.893,1.958-1.141,3.137c-0.808,2.046-1.415,4.291-1.714,6.847c-1.032,4.673-0.865,10.546-0.854,16.263
			c1.373,9.1,5.5,17.492,9.983,23.394c0.704,0.925,1.503,1.734,2.284,2.568c1.953,2.083,3.939,4.256,5.994,5.705
			c0.395,0.28,0.987,0.425,1.137,0.57c0.234,0.226,0.263,0.087,0.572,0.286c0.416,0.268,0.757,0.906,1.142,1.141
			c0.242,0.15,0.658,0.195,0.853,0.285c1.392,0.645,2.562,1.412,3.995,1.998c0.505,0.205,0.857,0.5,1.142,0.57
			c0.833,0.209,1.408,0.479,1.711,0.57c0.429,0.129,0.874,0.218,1.143,0.285c0.364,0.092,0.603,0.223,0.854,0.285
			c4.285,1.072,9.193,1.314,14.551,1.142c2.43-0.612,5.327-0.759,7.417-1.712c2.095-0.947,5.009-1.078,7.42-1.712
			c1.779-1.167,4.004-1.89,5.703-3.139c2.068-0.975,3.498-2.587,5.421-3.708c1.354-1.691,3.34-2.748,4.564-4.564
			c1.53-1.515,2.735-3.354,4.28-4.85c0.322-1.2,1.349-1.693,1.711-2.853c0.831-0.691,1.068-1.975,1.998-2.568
			c0.898-2.145,2.015-4.072,3.137-5.99C89.823,56.251,90.997,51.342,90.627,44.884z M9.317,61.716c0.054-0.324,0.289-0.159,0.286,0
			C9.548,62.04,9.314,61.875,9.317,61.716z M10.458,58.007c-0.123,1.02-0.758,1.523-0.571,2.853
			c-1.483-2.121-0.42-5.182-0.284-7.988c0.694,1.396,1.218,2.963,1.997,4.279C11.853,58.071,10.668,57.554,10.458,58.007z
			 M14.167,70.274c-0.919-0.129-0.983-1.109-1.427-1.711c0.006-0.852,0.742-0.971,0.854-1.713c0.193-2.473-0.502-4.062-0.568-6.275
			c-0.347,0.029-0.177-0.415,0,0c0.891,1.105,1.392,2.603,2.282,3.707c-0.006,0.854-0.743,0.972-0.856,1.714
			C14.621,67.686,13.953,68.538,14.167,70.274z M13.594,48.02c-0.451-1.543-0.689-3.303-0.568-5.42
			c5.614,1.519,13.176,1.092,20.258,1.142c4.286-0.657,7.371-2.518,10.84-3.994c0.21-0.267,0.517-0.433,0.856-0.571
			c1.189,0.711,1.002,2.802,1.995,3.711c-0.932,1.064-2.567,1.425-3.708,2.281c-1.217,0.78-2.472,1.524-3.997,1.996
			c-2.354,1.542-5.01,2.787-7.131,4.565c-1.239,0.759-2.305,1.691-3.422,2.567c-1.211,0.694-1.682,2.121-3.137,2.568
			c-0.635,1.364-1.771,2.225-2.855,3.137c-0.352,0.598-0.829,1.074-1.426,1.428c-0.5,0.449-0.592,1.311-1.426,1.426
			C17.159,58.534,13.36,55.296,13.594,48.02z M24.153,80.831c-0.518-0.812-1.566-1.096-2.282-1.712
			c1.797-1.356-0.435-3.451-0.285-5.706c1.368,1.008,2.28,2.473,3.995,3.139c-0.953,1.598-0.049,4.039,1.139,5.135
			C25.961,82.424,25.118,80.827,24.153,80.831z M54.964,75.411c-0.274,1.414,0.762,1.52,0.857,2.566
			c-1.896,0.959-4.104,1.603-6.276,2.282h-6.847c-1.732-0.267-3.085-0.907-4.85-1.141c-1.791-1.255-4.112-1.976-5.709-3.425
			c-1.244-0.275-1.574-1.465-2.567-1.996c-1.026-0.495-1.669-1.373-2.567-1.997c0.424-1.384,1.685-1.927,2.567-2.854
			c0.978-0.735,1.831-1.592,2.567-2.567c1.043-0.668,1.89-1.535,2.854-2.282c0.791-0.921,2.108-1.317,2.855-2.282
			c1.038-0.291,1.953-0.707,2.853-1.141c1.173-0.822,2.487-1.504,3.136-2.854c2.246-0.892,4.35-1.929,6.562-2.853
			c0.334,0.047,0.508-0.062,0.569-0.284c0.245-0.054,0.271,0.111,0.287,0.284c0.243-0.052,0.271,0.111,0.285,0.285
			c1.247,3.225,2.382,6.559,3.424,9.986C54.35,68.395,55.248,71.64,54.964,75.411z M85.206,56.581
			c-0.623,2.135-1.682,3.834-2.567,5.705c-0.964,1.795-2.297,3.221-3.141,5.136c-1.447,0.642-1.979,2.208-2.852,3.423
			c-1.735,1.498-3.351,3.115-4.851,4.85c-0.581-0.205-1.128-0.894-1.711-0.283c-0.678,0.178,0.045,1.754-0.571,1.995
			c-1.954,1.47-4.259,2.591-6.561,3.71c-2.022,1.402-4.941,1.902-6.56,3.709c-1.474-0.621-4.058-0.129-5.994-0.286
			c-1.207,0.067-1.072-1.21-2.282-1.14c-1.451,0.316,0.169,2.721-0.284,2.851h-3.425c-0.959-0.18-2.647,0.367-3.14-0.284
			c-0.531,0.015-0.602-0.221-0.283-0.571c-0.148-0.423-0.422-0.719-0.569-1.142c-1.179-0.601-2.683-2.173-4.281-1.427
			c-1.282,0.455,0.222,2.232-0.284,2.568c-2.283-0.381-4.151-1.174-6.278-1.713c-0.046-0.709,0.45-0.882,0.573-1.425
			c-0.894-1.107-1.898-2.099-2.283-3.71c1.473,0.619,2.712,1.473,3.993,2.283c4.662,1.232,9.688,2.104,15.978,1.711
			c1.802-0.479,3.777-0.786,5.134-1.711c0.966,0.08,1.64,0.453,2.854,0.285c1.396-0.314,2.093-1.33,3.139-1.997
			c1.218,0.21,1.244,1.608,3.137,1.141c1.641-0.729,0.865-4.556-0.285-5.136c-1.088-0.488-1.779,0.846-1.998,0.287
			c-0.332-2.141-0.317-4.629-0.283-7.135c-1.527-6.842-2.775-13.965-5.707-19.398c-4.146,1.749-8.418,3.372-12.27,5.42
			c-1.68,1.359-3.588,2.498-5.134,3.994c-2.115,1.021-4.185,2.093-5.705,3.711c-1.298,0.221-1.501,1.539-2.567,1.995
			c-0.59,1.028-1.693,1.54-2.283,2.567c-1.654,1.484-2.753,3.524-3.993,5.422c-0.858,0.822-0.995-0.682-2.281-0.286
			c-1.008,1.159-0.548,3.858,0,5.136c0.342-0.029,0.172,0.414,0,0c-0.395,0.012-0.629-0.135-0.858-0.285
			c-0.696-1.205-0.691-3.114-1.14-4.564c0.095-1.996-0.794-3.014-0.856-4.851c0.764,0.662,1.336,1.517,1.71,2.567
			c1.327-0.672,2.231-1.762,2.854-3.139c2.431-1.945,4.21-4.539,6.848-6.275c1.079-1.111,2.469-1.907,3.422-3.139
			c1.544-0.644,2.322-2.055,3.998-2.567c4.613-4.132,12.106-5.39,16.545-9.7c-1.83-3.97-4.246-7.358-5.706-11.697
			c-2.264,0.875-3.63,2.649-5.99,3.423c-1.864,1.372-4.397,2.069-6.849,2.853c-6.857,0.041-9.011,0.17-15.408,0
			c-0.932-0.074-0.602,1.107-1.424,1.143c-2.256-0.123-5.043,0.285-6.848-0.286c-2.01,0.845-1.292,4.415-1.427,7.133
			c0.156,0.888,0.235,1.858,0.569,2.567c-0.05,1.367-0.496-0.488-1.424,0c-0.713-0.049-0.895,0.438-1.142,0.855
			c-0.587-0.248-0.569,1.452-0.856,0.57c-0.619-3.756-0.629-8.119-0.571-12.552c0.438-1.559,1.002-2.993,1.711-4.28
			c0.485-6.076,2.763-10.361,5.422-14.264c1.013-0.986,2.285-1.712,3.139-2.854c1.54-0.458,2.109-1.885,3.708-2.283
			c2.286-1.709,5.3-2.69,7.135-4.849c4.857-3.226,10.381-5.787,18.541-5.706c0.835,0.074,0.881-0.644,1.714-0.57
			c5.877,0.113,9.728,2.254,15.69,2.281c3.5,1.826,6.842,3.812,9.414,6.562c1.107,2.604,3.107,4.311,4.565,6.561
			c1.386,2.418,3.033,4.578,3.995,7.418c2.721,4.887,4.107,11.107,4.85,17.975v4.278C85.44,51.212,85.121,54.099,85.206,56.581z
			 M59.53,17.495c0.814-2.514,2.773-3.885,3.139-6.848c-1.279-2.242-4.271-2.766-6.564-3.994c-2.027,0.221-3.183-0.431-5.136-0.285
			c-4.186,0.568-9.124,0.386-11.981,2.283c-0.695-0.635-1.618-1.045-3.137-0.857c-0.691,0.898,0.511,1.812,0.569,2.853
			c0.812,0.52,0.831,1.83,1.714,2.282c0.77,1.987,2.177,3.337,3.42,4.85c0.895,1.866,2.344,3.173,3.139,5.136
			c1.343,1.419,1.75,3.769,3.141,5.135c2.108-1.598,4.464-2.951,6.562-4.565C56.16,21.545,57.574,19.247,59.53,17.495z
			 M48.973,24.056c-1.096-2.328-2.447-4.4-3.708-6.56c-1.314-2.111-3.035-3.812-3.997-6.277c1.688-0.311,3.863-0.135,5.423-0.57
			c2.214-0.164,5.097,0.346,6.847-0.284c2.297,0.651,4.786,1.111,6.275,2.566c-1.545,2.542-3.7,4.477-5.418,6.848
			c-0.942,0.638-1.726,1.549-2.566,2.282C50.973,22.797,50.106,23.616,48.973,24.056z M34.992,14.929
			c-0.582-0.086-0.559-0.774-1.14-0.857c-0.313-1.306-0.851-2.383-1.714-3.137c-0.335,0.138-0.647,0.304-0.853,0.57
			c-3.867,1.17-5.604,4.479-9.13,5.99c-0.701,0.537-1.292,1.18-2.282,1.426c-0.006,0.568-0.779,0.363-0.568,1.142
			c-0.709-0.043-1.389-0.054-1.43,0.568c-1.723,0.848-2.646,2.49-3.995,3.711c-1.011,2.885-2.889,4.908-2.853,8.844
			c-1.322,0.198-2.083,0.958-2.28,2.281c0.805,1.75,3.648,1.758,5.421,1.428c1.542,0.453,3.534,0.461,5.138,0.855h8.27
			c2.61-0.498,5.682-0.771,7.418-1.428c1.823-0.685,3.676-1.185,5.423-1.711c0.14-0.721,0.155-1.273,0.569-2.281
			c0.834-0.213,1.4-0.69,1.997-1.141c0.603-0.445,1.583-0.512,1.71-1.428c-2.032-5.478-5.381-9.641-8.558-13.98
			C35.957,15.296,35.273,15.313,34.992,14.929z M37.277,30.333c-0.921,0.505-1.998,0.855-3.141,1.141
			c-2.187,0.666-4.661,1.045-7.132,1.428h-6.278c-1.74,0.349-3.872,0.307-5.987,0.285c0.774-5.598,4.41-8.331,7.132-11.982
			c2.823-2.024,5.724-3.977,8.559-5.992c0.069-0.309,0.566-0.193,0.572-0.57c3.698,4.194,6.395,9.389,9.414,14.266
			C39.661,29.675,38.557,30.093,37.277,30.333z M64.379,42.601c4.934-0.877,9.802-3.311,15.691-2.282
			c-0.664-5.518-2.734-9.628-4.85-13.692c-0.399-1.125-1.383-1.66-1.998-2.57c-0.446-1.168-1.088-2.144-1.713-3.137
			c-1.174-1.963-2.84-3.435-4.281-5.137c-1.288,0.061-1.557-1.01-2.281-1.141c-0.015,0.365-0.362,0.394-0.284,0.855
			c-0.99,0.246-0.987,1.483-1.711,1.998c-0.614,0.719-1.071,1.59-1.71,2.282c-1.005,1.659-1.938,3.394-3.428,4.565
			c-0.934,1.726-2.815,2.508-3.992,3.992c-1.571,1.092-3.653,1.673-4.85,3.139c2.296,3.885,4.015,8.35,6.275,12.269
			C58.125,43.194,60.69,42.335,64.379,42.601z M56.962,38.036c-0.503-0.26-0.522-0.999-0.858-1.427
			c-0.557-1.058-1.235-1.999-1.709-3.137c-0.03-1.267,1.479-0.991,1.709-1.999c0.682-0.461,1.259-1.023,1.998-1.426
			c1.216-1.734,2.816-3.08,3.994-4.85c1.512-1.436,2.369-3.527,3.423-5.421v-0.856c4.322,3.953,6.866,9.68,7.704,17.118
			c-5.212,0.969-10.326,2.036-15.121,3.423C57.185,39.522,57.409,38.444,56.962,38.036z M76.931,46.595H62.952
			c-0.422,0.148-0.72,0.424-1.142,0.57c-0.471,0.389-1.663-0.232-2.852,0c-0.323,0.628-1.884,0.02-1.997,0.855
			c1.492,2.407,2.282,5.518,3.707,7.988c0.717,3.184,2.04,5.762,2.283,9.415c-0.054,1.245-1.356-0.341-1.142,0.856
			c0.42,1.579,0.787,3.207,1.142,4.85v2.854c-0.212,0.879,0.784,0.549,0.571,1.428c-0.167,0.172-0.669,1.353,0,1.426
			c2.886-1.584,4.89-4.051,7.418-5.992c1.559-0.627,2.092-2.281,3.708-2.853c0.449-0.69,1.021-1.263,1.71-1.712
			c0.653-0.491,0.909-1.373,1.714-1.711c0.359-1.256,1.088-2.148,1.713-3.139c0.337-2.801,1.149-5.125,1.425-7.988v-3.424
			c-0.019-1.121-0.139-2.144-0.57-2.854C79.475,48.642,78.173,46.772,76.931,46.595z M76.076,59.719
			c-1.206,2.313-2.324,4.714-3.993,6.562c-0.76,0.953-1.688,1.736-2.282,2.854c-0.823,0.033-0.494,1.216-1.427,1.141
			c-0.1,0.374-0.502,0.448-0.571,0.855c-0.255,0.176-0.51,0.346-0.573,0c0.647-8.725-1.891-14.274-4.276-19.971
			c3.63-0.746,8.187-0.561,12.554-0.569C76.253,53.074,76.059,56.503,76.076,59.719z"/>
	</g>
</g>
<g>
</g>
<g>
</g>
<g>
</g>
<g>
</g>
<g>
</g>
<g>
</g>
<g>
</g>
<g>
</g>
<g>
</g>
<g>
</g>
<g>
</g>
<g>
</g>
<g>
</g>
<g>
</g>
<g>
</g>
</svg>
