<?xml version="1.0" encoding="iso-8859-1"?>
<!-- Generator: Adobe Illustrator 19.0.0, SVG Export Plug-In . SVG Version: 6.00 Build 0)  -->
<svg version="1.1" id="Capa_1" xmlns="http://www.w3.org/2000/svg" xmlns:xlink="http://www.w3.org/1999/xlink" x="0px" y="0px"
	 viewBox="0 0 103.623 103.623" style="enable-background:new 0 0 103.623 103.623;" xml:space="preserve">
<g id="folder1_1_">
	<g>
		<path style="fill-rule:evenodd;clip-rule:evenodd;" d="M103.31,31.704c-0.844-0.678-1.359-1.686-1.998-2.567
			c-0.426-0.334-1.166-0.356-1.426-0.857c-0.838-0.02-1.607-0.104-1.428-1.141c-0.652-4.248,1.605-8.248-0.287-11.127
			c-1.273-1.228-3.02-0.344-5.416-0.57h-6.564c-1.557-0.153-3.006-0.419-4.564-0.57c-11.551,0.144-23.002,0.391-34.523,0.57
			c-2.455,0.394-4.918,0.785-7.416,1.141c-0.92-0.982-1.305-2.496-1.996-3.707c-0.6-1.399-1.815-2.182-2.852-3.14
			c-3.604-1.818-9.9-0.943-15.121-1.141c-4.113,0.833-7.688,2.202-12.553,2.282c-0.938,0.49-1.35,1.506-2.285,1.998
			c-0.779,0.646-2.392,0.455-2.85,1.426c-0.43,0.825-1.178,2.516-1.43,3.138C-0.02,19,0.631,21.219,0.033,23.146
			c0.014,10.921-0.41,22.281,1.424,31.382c1.139,6.364,0.412,13.034,1.428,19.686c0.133,3.606,0.068,7.124,0.572,10.272
			c0.508,3.164,1.686,5.862,3.139,7.986c0.934,0.109,1.258,0.834,1.996,1.141c0.68,0.461,1.828,0.454,2.568,0.856
			c2.006,0.274,3.875,0.688,6.275,0.571c4.562,0.092,8.922-0.018,12.838-0.571c6.871,0.215,12.863-0.449,19.686-0.284
			c6.459-0.957,13.922-0.915,21.398-0.856c3.773,0.789,8.061,1.068,12.551,1.141c0.631,0.514,2.035,0.249,2.852,0.571
			c3.371-0.053,7.033,0.183,9.988-0.285c1.156-0.759,2-1.941,2.568-2.854c0.107-0.173,0.465-0.373,0.57-0.571
			c1.451-2.687,1.432-5.968,2.281-9.128c0.115-8.54,1.105-16.205,1.428-24.537C103.476,49.036,103.877,39.887,103.31,31.704z
			 M43.684,19.152c7.375-0.458,14.99-0.37,22.252-0.285c7.164,0.082,14.135,0.373,20.541,1.426h6.848
			c0.025,2.211-0.492,3.884-0.285,6.277c-4.023-0.924-7.115-2.774-12.266-2.568c-0.699-0.538-1.201,0.049-2.57,0H67.078
			c-1.18,0.223-1.465-0.438-2.566-0.286H44.537c-0.68-0.173-2.07,0.359-2.281-0.284c-1.15,0.198-0.482-1.42-1.143-1.711
			c0.076-1.029-0.527-1.377-0.568-2.283C41.719,19.472,42.33,18.94,43.684,19.152z M98.172,53.386
			c-0.125,3.299-0.133,6.07-0.568,9.7c-0.07,0.61-0.129,1.839-0.285,3.139c-0.193,1.62-0.387,4.754-0.857,7.133v4.85
			c-0.41,3.962-0.686,8.06-2.281,10.843c-6.275,0.379-10.953-0.84-16.832-0.857c-0.377-1.318,1.322-2.803,1.143-4.85
			c-0.391-0.943-0.574-2.092-1.711-2.282c-2.162-0.163-2.564,1.433-3.711,2.282c-0.281,1.525-1.25,2.365-1.426,3.994h-6.279
			c1.234-4.187,3.918-6.925,4.852-11.412c-0.256-0.502-0.637-0.883-1.141-1.141c-2.867-0.016-2.904,2.801-4.562,3.994
			c-0.852,1.908-2.043,3.475-2.853,5.419c-0.434,1.075-0.729,1.847-0.285,3.14c-3.26-0.121-6.014,0.264-8.848,0.57
			c0.021-1.226,0.885-2.088,1.428-3.139c1.479-2.858,2.84-5.993,4.564-8.844c0.693-1.896,2.133-3.985,3.141-5.991
			c0.228-0.454,0.299-1.163,0.57-1.712c0.619-1.258,2.232-2.731,0.568-4.278c-1.729-0.114-2.018,1.214-2.85,1.996
			c-0.713,0.906-1.365,1.871-2,2.854c-1.059,2.173-2.568,3.897-3.422,6.275c-1.475,1.761-2.256,4.214-3.424,6.278
			c-1.059,2.176-2.719,3.747-2.852,6.846c-3.461,0.378-6.879-0.015-11.129,0.57c0.576-1.992,1.746-3.387,2.566-5.135
			c0.748-1.723,1.736-3.211,2.283-5.137c0.891-1.582,1.518-3.424,2.566-4.85c0.18-1.057,0.805-1.67,1.143-2.566
			c0.398-0.84,1.504-0.971,1.424-2.282c-0.24-1.315-2.742-0.942-3.42-0.286c-0.756,0.768-1.123,1.922-1.996,2.568
			c-0.504,1.022-0.861,2.184-1.715,2.852c-0.379,1.145-0.736,2.307-1.711,2.855c-1.977,4.201-5.023,7.338-6.562,11.98
			c-2.781-0.216-4.684,0.449-7.416,0.287c1.359-3.586,2.943-6.947,4.85-9.986c0.709-1.763,2.033-2.911,2.566-4.851
			c0.986-1.001,2.836-3.249,1.428-4.85c-2.836-0.269-3.199,1.938-4.851,2.853c-0.193,1.133-1.254,1.408-1.709,2.283
			c-0.457,0.781-1.066,1.406-1.426,2.283c-1.145,1.428-2.125,3.01-2.856,4.848c-1.24,1.231-1.719,3.227-2.566,4.85
			c-0.258,1.305,0.475,1.617,0.572,2.57h-5.422c-1.334-0.021,0.332-0.654,0.283-1.143c0.414-0.443,0.381-1.332,0.857-1.711
			c0.188-1.431,1.084-2.15,1.141-3.711c1.184-2.047,1.941-4.523,2.851-6.845c1.162-2.17,1.758-4.903,3.141-6.848
			c0.43-1.188,0.809-2.425,1.711-3.14c0.242-1.148,1.531-2.436,0.287-3.423c-1.229-0.575-2.17,0.614-3.139,1.142
			c-0.791,0.828-1.361,1.877-2.283,2.567c-0.355,1.26-1.32,1.913-1.711,3.138c-0.769,0.851-1.104,2.129-1.711,3.139
			c-1.967,4.502-3.916,9.021-5.422,13.98c-0.047,0.9-0.012,1.722,0.57,1.996c-0.834,0.723-1.506-1.143-1.715-1.996
			c-0.475-0.949-0.516-2.338-0.853-3.424C8.828,82.058,9.312,81.88,9.73,81.63c0.59-0.077,0.27-1.062,0.858-1.14
			c0.559-2.581,1.488-4.791,2.283-7.133c0.84-2.3,1.473-4.802,2.566-6.847c0.455-2.685,1.641-4.638,2.283-7.133
			c0.906-0.711,0.807-2.429,1.711-3.139c0.098-1.416,0.965-2.438,0-3.424c-2.4-0.131-3.002,1.842-4.279,3.14
			c-0.92,1.552-1.688,3.255-2.566,4.849c-1.438,3.416-3.178,6.523-4.279,10.271c-0.824-0.127,0.254-2.156-0.572-2.282
			c-0.072-0.932,1.107-0.605,1.143-1.427c0.771-0.086,0.512-1.2,1.139-1.427c0.434-2.231,1.172-4.153,1.715-6.276
			c0.838-1.729,1.02-4.117,2-5.707c0.451-2.205,1.445-3.874,1.994-5.99c0.523-0.805,0.883-1.779,1.139-2.852
			c0.809-0.431,0.998-1.479,1.144-2.568c-0.168-0.593-0.602-0.921-0.857-1.427c-1.52-0.189-2.441,0.221-3.137,0.857
			c-0.084,0.58-0.773,0.558-0.859,1.141c0,0.438-0.775,0.938-0.568,0c0.736-1.262,1.059-2.936,1.428-4.564
			c0.705-1.197,1.328-2.473,1.139-4.565c-2.055-1.417-3.607-0.064-4.564,1.426c-0.393,0.611-0.922,2.079-1.426,2.854
			c-0.914,2.794-2.057,5.361-2.854,8.274c-1.096-1.388-0.188-3.435,0.287-4.853c-0.021-3.253,0.488-5.977,0.285-9.413
			c0.789-4.632-0.234-11.077,0.568-15.692h4.564c3.221-0.299,5.877-1.16,9.131-1.426c3.299,0.126,7.139-0.292,9.986,0.285
			c0.008,0.279,0.35,0.221,0.568,0.284c2.603,2.913,3.43,7.603,5.137,11.413c0.715,0.617,1.766,0.899,2.283,1.711
			c0.742,0.111,1.561,0.146,1.994,0.572c13.826,0.336,26.621-0.957,39.943-0.286c3.172,0.442,6.219,1.009,8.844,1.997
			c2.543,0.975,6.02,1.019,8.271,2.283c0.564,1.448,0.086,2.988,0,3.994C98.033,43.242,98.365,48.462,98.172,53.386z"/>
	</g>
</g>
<g>
</g>
<g>
</g>
<g>
</g>
<g>
</g>
<g>
</g>
<g>
</g>
<g>
</g>
<g>
</g>
<g>
</g>
<g>
</g>
<g>
</g>
<g>
</g>
<g>
</g>
<g>
</g>
<g>
</g>
</svg>
