<?xml version="1.0" encoding="iso-8859-1"?>
<!-- Generator: Adobe Illustrator 19.0.0, SVG Export Plug-In . SVG Version: 6.00 Build 0)  -->
<svg version="1.1" id="Capa_1" xmlns="http://www.w3.org/2000/svg" xmlns:xlink="http://www.w3.org/1999/xlink" x="0px" y="0px"
	 viewBox="0 0 95 95" style="enable-background:new 0 0 95 95;" xml:space="preserve">
<g id="giftbox_1_">
	<g>
		<path style="fill-rule:evenodd;clip-rule:evenodd;" d="M94.361,29.903c-1.246-1.104-3.075-1.762-5.155-1.215
			c-2.48-0.153-4.337,0.315-6.372,0.607H70.099c-1.222-0.196-3.225,0.394-3.943-0.306c0.443-0.669,1.984-0.239,2.426-0.909
			c1.052-0.161,1.614-0.81,2.728-0.91c1.173-0.849,2.241-1.804,3.642-2.425c1.115-1.414,2.489-2.562,3.639-3.943
			c0.931-1.596,2.266-2.787,3.034-4.546c0.578-1.848,1.095-3.758,0.907-6.372c-0.353-0.051-0.329-0.479-0.301-0.908
			c-0.968-2.067-2.805-3.265-4.248-4.853c-1.935-0.291-3.28-1.168-5.155-1.517c-3.123-0.092-6.014,0.05-8.794,0.303
			c-0.518,0.494-1.103,0.92-2.12,0.909c-1.068,0.857-2.06,1.788-3.338,2.429c-1.298,1.63-2.732,3.13-3.943,4.851
			c-1.257,1.676-2.057,3.807-3.641,5.159c-0.192,2.229-1.43,3.419-1.819,5.458c-1.227-0.292-2.07-0.965-3.638-0.912
			c-1.181,0.248-3.157,0.933-3.942,0.607c-0.733-4.019-1.931-7.573-3.033-11.223C37.17,6.725,35.544,3.5,32.797,1.391
			c-1.354-0.259-2.496-0.733-4.247-0.602c-2.517,0.715-4.671,1.797-6.669,3.029c-2.233,2.518-4.203,5.303-3.942,10.311
			c0.771,4.689,3.15,7.768,5.76,10.616c2.123,1.314,4.33,2.546,6.371,3.942c-2.93,0.608-6.904,0.173-10.312,0.302
			c-3.147,0.593-6.285,1.193-9.703,1.52c-1.422,0.498-3.148,0.695-4.852,0.908c-0.575,0.336-1.435,0.387-2.124,0.606
			c-0.745,0.267-1.751,0.273-1.821,1.215c-0.867,0.043-0.556,1.264-0.606,2.121c0.214,1.126-0.519,1.303-0.302,2.427v5.458
			c-0.685,0.228-0.12,1.702-0.306,2.426v2.732c0.012,1.906-0.193,4.033,0.607,5.154c1.134,0.586,2.713,0.724,4.551,0.605
			c1.221,0.596,3.726-0.087,4.852,0.605c-0.302,8.901-0.64,17.761-0.914,26.689c0.739,3.305,0.933,7.153,2.732,9.399
			c2.96,0.479,6.61,0.262,10.008,0.304c16.244,1.345,32.527,2.65,50.341,2.426c3.736,0.472,9.201,1.188,12.736,0
			c1.453-1.883,2.004-4.668,2.426-7.58V58.712c-0.447-0.058-0.279-0.733-0.302-1.217c-0.523-0.388-0.006-1.812-0.909-1.818
			c0.297-0.84-1.726-0.858-0.61-1.516c2.018,0.107,3.776,0.473,6.069,0.301c1.117-0.899,2.575-1.465,3.032-3.029
			C95.823,44.152,93.547,36.934,94.361,29.903z M50.084,24.443c0.94,0.029,1.448-0.371,2.124-0.607
			c2.747-5.438,5.83-10.544,9.706-14.859c1.173-0.237,1.981-0.85,2.729-1.518c2.04-0.284,4.271-0.379,6.668-0.302
			c2.718,0.517,4.863,1.608,6.066,3.64c-0.419,3.723-2.271,6.018-4.248,8.188c-1.212,0.908-2.176,2.064-3.635,2.73
			c-1.108,0.91-2.724,1.319-3.643,2.426c-2.461,0.164-4.199,1.056-5.76,2.121c-0.38,1.507,1.967,1.854,1.516,2.427
			c-3.941-0.101-7.613-0.475-11.826-0.304C50.377,27.567,49.959,25.736,50.084,24.443z M62.819,28.688
			c-0.005,0.295-0.369,0.234-0.604,0.302C62.221,28.693,62.582,28.756,62.819,28.688z M40.681,27.17
			c0.636-0.175,0.866-0.749,1.821-0.605c0.622-0.085,0.604-0.81,0.909-1.212c1.186,0.298,1.761-0.669,2.425,0
			c-0.207,1.22,0.292,1.729,0.303,2.728h-3.938c-1.024-0.192-2.817,0.393-3.337-0.3C38.653,26.931,40.374,26.496,40.681,27.17z
			 M25.821,19.59c-1.284-2.557-3.15-4.533-2.728-8.794c0.451-0.258,0.653-0.765,0.605-1.516c1.804-1.567,4.152-4.678,7.277-3.034
			c2.348,2.81,3.366,6.949,4.25,11.222c0.338,1.378,1.139,2.296,1.516,3.637c0.097,0.711,0.476,1.14,0.301,2.125
			c0.861-0.051-0.251,1.866,0.608,1.819c-0.926,0.805-2.387-0.433-3.336-0.606c-1.035-0.48-2.29-0.742-3.034-1.516
			C28.972,22.305,27.554,20.789,25.821,19.59z M4.898,49.614c-0.532-4.192-0.461-10.354,0-14.558
			c4.914,0.163,9.226-0.277,13.041-1.213c7.014,0.141,13.607-0.142,20.316-0.303c-0.696,4.256-0.636,9.271-0.605,14.252
			c0.418,0.995,0.976,1.854,2.427,1.821c-0.422,0.689-2.114,0.111-3.036,0.304H27.34C20.893,48.931,11.784,49.168,4.898,49.614z
			 M37.042,86.613c-0.13-0.983,0.401-2.627-0.604-2.732c-1.129-0.016-0.875,1.351-0.911,2.427c-2.162,0.038-4.289,0.044-6.065-0.302
			c0.264-1.439,1.829-2.383,0.607-3.639c-2.079,0.145-2.211,2.23-3.336,3.333c-0.873,0.413-2.863-0.259-4.55,0
			c0.264-2.361,1.984-3.271,2.426-5.458c0.686-0.632,0.869-1.762,1.514-2.425c0.482-0.737,1.134-1.296,0.912-2.729
			c-1.841-0.701-3.01,1.27-4.245,2.122c-0.669,1.451-1.755,2.49-2.426,3.942c-0.623,0.489-0.765,1.46-1.212,2.123
			c-0.534,0.477-0.399,1.624-0.912,2.122c-1.201,0.195-0.397-1.446,0-1.517c-0.077-0.886,0.687-0.932,0.606-1.817
			c0.468-1.155,1.222-2.015,1.518-3.337c0.994-0.623,1.156-2.076,1.818-3.032c0.438-0.9,1.925-1.946,1.213-3.033
			c-0.708-0.788-2.516-0.107-3.031,0.302c-0.735,0.479-1.339,1.086-1.821,1.823c-0.633,0.581-1.264,1.161-1.516,2.121
			c-0.953,0.259-0.675,1.75-1.819,1.819c-0.354-3.791,1.917-4.955,2.427-7.887c0.803-0.912,0.995-2.439,1.516-3.638
			c0.433-0.996,1.052-2.883,0-3.638c-1.927,0.195-2.957,1.29-3.64,2.727c-0.764-0.948,0.1-3.54-0.609-4.548v-4.549
			c0.224-0.928-0.522-0.892-0.303-1.819v-0.913c8.526,0.474,16.875,1.121,26.08,0.913c-0.826,10.607-0.109,22.093,1.215,31.537
			C40.029,87.061,38.996,86.373,37.042,86.613z M41.896,34.753c-0.099-0.704,0.05-1.163,0.305-1.516
			c0.349,0.254,0.812,0.398,1.513,0.303C43.393,34.229,42.793,34.644,41.896,34.753z M44.929,75.087
			c-0.668-0.038-0.13-1.289-0.301-1.819c0.33-1.484,1.837-1.8,2.425-3.034c0.349-0.049,0.54,0.067,0.605,0.306v4.548
			c-0.711,0.705-2.023,0.807-2.426,1.819C44.562,76.868,45.101,75.621,44.929,75.087z M47.053,78.118
			c0.942,0.066,0.51,1.509,0.605,2.429c-0.848-0.351-1.579-0.351-2.426,0C45.278,79.179,46.841,79.327,47.053,78.118z
			 M47.356,86.005c0.409,0.091,0.249,0.759,0.302,1.212C46.774,86.952,47.317,86.764,47.356,86.005z M47.658,85.093
			c-0.391-0.417-1.317-0.299-2.123-0.303c-0.168-1.884,1.601-1.833,1.821-3.334C48.049,82.073,47.461,83.974,47.658,85.093z
			 M47.658,66.595c-1.694-0.075-2.012,1.226-3.337,1.516c0.614-1.815,2.545-2.307,2.732-4.547c-0.953-1.029-1.798,0.609-2.732,0.604
			c0.092-1.425,1.244-1.79,2.125-2.425c-0.196-1.206,0.803-1.221,0.607-2.428c-0.279-1.017-0.567-0.148-1.518-0.303
			c0.463-1.354,1.586-2.051,1.821-3.638c0.349-0.051,0.54,0.065,0.605,0.302C48.028,59.485,47.425,62.624,47.658,66.595z
			 M47.658,49.917c0.325-0.787,1.097-1.13,1.211-2.125c0.094-0.797-0.417-0.996-1.211-0.908c0.113-1.432-0.024-2.604-1.518-2.428
			c0.118-1.502,1.75-1.487,1.518-3.335c0.225-1.336-0.983-1.243-1.212-2.122c-0.591-0.422-0.931-1.093-1.817-1.214
			c0.565-1.554,1.939-2.306,2.119-4.245c1.742,0.076,3.864-0.225,5.155,0.303c-0.378,5.041-0.452,10.744,0,15.771
			C50.997,50.222,49.039,49.782,47.658,49.917z M81.016,55.375c-0.101,0.709-0.364,1.251-0.607,1.819
			c-0.023,1.483,0.497,3.041,0.607,4.549c0.191,2.667-0.181,5.422-0.305,8.188c-0.264,6.035,0.386,12.25-0.302,17.892
			c-4.494-0.28-9.161-0.605-13.948-0.605c-4.72,0-9.506,0.679-13.95,0c0.059-10.874,0.006-21.639-0.607-31.842
			c2.452-0.074,5.279,0.222,7.278-0.304c2.93,0.608,6.905,0.173,10.313,0.304c2.001-0.22,3.956-0.491,6.062-0.608
			c1.031-0.082,2.462,0.235,3.034-0.305c1.111-0.096,2.685,0.26,3.336-0.301h0.605C82.295,54.832,81.469,54.919,81.016,55.375z
			 M88.295,47.792h-4.55c-8.331,1.572-18.321,1.492-27.901,1.821c-0.018-5.137-0.183-10.129-0.605-14.86
			c0.172-0.438,0.473-0.738,0.91-0.91c9.966,1.378,22.365,1.523,33.358,0.91C89.175,39.175,88.968,43.714,88.295,47.792z"/>
	</g>
</g>
<g>
</g>
<g>
</g>
<g>
</g>
<g>
</g>
<g>
</g>
<g>
</g>
<g>
</g>
<g>
</g>
<g>
</g>
<g>
</g>
<g>
</g>
<g>
</g>
<g>
</g>
<g>
</g>
<g>
</g>
</svg>
