<?xml version="1.0" encoding="iso-8859-1"?>
<!-- Generator: Adobe Illustrator 19.0.0, SVG Export Plug-In . SVG Version: 6.00 Build 0)  -->
<svg version="1.1" id="Capa_1" xmlns="http://www.w3.org/2000/svg" xmlns:xlink="http://www.w3.org/1999/xlink" x="0px" y="0px"
	 viewBox="0 0 94.529 94.529" style="enable-background:new 0 0 94.529 94.529;" xml:space="preserve">
<g id="google-plus_1_">
	<g>
		<path style="fill-rule:evenodd;clip-rule:evenodd;" d="M50.876,57.579c-2.078-2.506-4.911-4.256-7.773-5.979
			c-1.342-0.95-2.957-1.63-4.486-2.394c-1.111-1.279-3.189-1.591-3.292-3.885c0.661-0.833,1.932-1.062,2.993-1.497
			c0.664-0.83,1.665-1.324,2.393-2.092c2.044-0.947,3.379-2.598,4.779-4.185c0.872-1.775,1.034-3.396,1.2-5.681
			c0.063-0.868,0.316-1.576,0.299-2.393c-0.078-3.942-1.68-7.588-2.988-10.167c0.883-1.107,1.65-2.334,2.09-3.885
			c0.618-2.177,0.856-4.728,1.195-7.177c-0.706-1.684,0.293-5.075-1.195-5.981h-1.791c-0.434,0.168-0.731,0.467-0.899,0.897
			c-2.003,3.184-4.568,5.799-8.671,6.88c-2.006-0.387-3.552-1.233-5.681-1.496h-7.475c-2.117,0.771-3.901,1.879-6.277,2.391
			C9.517,16.122,5.755,23.321,4.232,32.765v4.484c0.444,0.452,0.482,1.312,0.596,2.092c2.032,3.351,5.502,5.265,8.97,7.177
			c2.241,0.45,3.69,1.692,6.281,1.795c0.819,0.478,1.978,0.614,3.287,0.598c1.442-0.045,1.328,1.464,2.095,2.093
			c-2.462,0.425-4.72,1.06-7.773,0.898c-0.955,0.641-2.365,0.826-3.29,1.492c-1.258,0.438-1.837,1.551-3.29,1.795
			c-1.714,1.674-3.667,3.109-5.381,4.783c-0.258,1.038-0.934,1.658-1.494,2.394c-0.235,1.16-0.942,1.849-1.494,2.689
			c-0.667,2.124-1.965,3.619-2.392,5.982c-0.526,1.817-0.392,5.033,0,6.875c1.69,4.387,4.123,8.035,7.772,10.467
			c1.861,0.73,3.872,1.31,6.279,1.494c1.658,0.871,3.692,1.828,6.278,2.092c2.831,0.293,5.965-0.438,8.674,0.301
			c0.999-0.592,2.205-0.984,3.585-1.195c2.866-1.92,6.436-3.134,9.271-5.083c3.129-1.653,5.387-4.184,7.475-6.878
			c0.672-2.516,1.339-5.039,2.093-7.475c0.129-4.737,0.688-9.558-0.596-13.455C50.942,58.113,50.825,57.929,50.876,57.579z
			 M9.613,36.352c0.161-0.463,0.312-0.021,0.302,0.299C9.757,37.109,9.601,36.667,9.613,36.352z M46.989,72.829
			c-0.444,0.057-0.274,0.723-0.299,1.195c-2.078,4.002-5.222,6.939-8.972,9.271c-3.629,0.356-5.889,2.084-9.271,2.691
			c-2.352-0.065-4.536,0.048-6.276,0.598c-4.569-0.714-8.741-1.827-11.363-4.486c-0.982-0.665-1.316,0.624-2.093,0
			c-1.278-1.611-2.347-3.433-3.289-5.382c-0.301-3.789,0.561-6.417,0.895-9.567c0.978-1.419,2.055-2.732,3.291-3.887
			c2.036-4.643,5.539-7.817,10.466-9.567c0.692,0.094,1.147-0.049,1.494-0.301c1.35,0.546,3.773,0.016,3.888,1.795
			c0.354,1.253-1.262,0.534-1.496,1.195c-0.862,0.037-1.956-0.164-2.392,0.299c-2.342,0.549-2.885,2.895-5.682,2.99
			c-1.269,1.421-2.009,3.371-3.287,4.784c-0.217,0.68-0.269,1.526-0.6,2.094c-0.522,0.471-0.391,1.601-0.896,2.092
			c0.039,3.443-0.539,6.06,0,9.269c0.784,1.707,2.874,2.113,4.188,3.29c2.151,0.337,4.712,0.268,6.277,1.195
			c2.752-0.037,5.089-0.491,8.074-0.299c2.223-0.768,3.873-2.108,5.978-2.989c0.067-0.232,0.251-0.348,0.599-0.299
			c0.067-0.232,0.251-0.348,0.6-0.299c-0.032-0.361,0.433-0.186,0,0v0.299c1.597,0.082-0.107-1.279,1.494-1.195
			c0.473-0.725,1.068-1.324,1.793-1.795c1.029-1.263,1.877-2.708,2.689-4.186v-7.476c-0.368-1.523-1.105-2.682-1.792-3.888
			c-0.436-0.759-1.588-0.8-2.094-1.494c-0.472-0.725-1.066-1.322-1.793-1.793c-1.427-1.068-2.654-2.331-4.187-3.289
			c-0.669-1.524-2.121-2.267-2.691-3.888c-0.94-1.351-1.997-2.587-2.392-4.484h-3.588c-2.43-0.463-4.331-1.447-6.576-2.095
			c-2.171-2.217-4.504-4.27-5.684-7.475v-6.876c-0.213-1.347-0.335-2.659-0.298-3.888c0.202-6.767,3.6-11.368,8.373-13.753
			c2.854,0.164,4.34-1.044,6.878-1.195c0.702,0.389,2.063,0.125,2.689,0.596c1.908,0.487,3.052,1.729,4.786,2.392
			c0.938,0.256,1.259,1.13,2.391,1.198c0.573,0.621,1.146,1.244,2.091,1.492c0.261-1.353-0.33-1.863-1.196-2.093
			c1.525-0.868,2.816-1.969,4.487-2.691c0.127,1.523-0.459,2.333-0.898,3.292c0.178,1.271-0.213,1.975-0.298,2.988
			c-0.04,0.736-0.044,1.44,0.298,1.793c0.988,0.448-0.62,0.733-0.298,1.496c1.366,2.422,2.111,5.463,1.792,9.567
			c-0.298,0.997-0.534,2.056-0.894,2.991c-0.616,1.082-0.43,1.608-0.6,2.689c-1.085,1.306-2.868,1.916-3.885,3.291
			c-1.22,1.171-2.322,2.461-4.188,2.986c-0.392,1.4-1.699,1.89-2.392,2.991c0.484,0.915,0.519,2.27,0.899,3.291
			c0.573,1.189,1.404,0.349,2.092,1.195c0.964,1.327,2.035,2.551,3.288,3.589c0.719,0.376,1.809,0.385,2.394,0.897
			c1.478,1.61,2.949,3.228,4.784,4.484c1.164,2.323,2.137,4.839,2.689,7.774V72.829z M35.926,60.569
			c2.265,1.619,4.524,3.249,4.185,7.476c0.086,1.581-1.408,1.583-1.793,2.692c-0.768,0.725-1.412,1.576-2.094,2.393
			c-1.652,0.637-2.608,1.975-4.483,2.391c-0.725,0.373-1.457,0.741-2.392,0.896c-0.592,0.51-1.852,0.344-2.392,0.896
			c-2.516-0.118-4.686,0.101-6.878,0.301c-1.749-1.144-2.687-3.097-3.89-4.785v-4.784c1.998-3.087,4.535-5.631,7.775-7.476
			C27.6,60.259,32.345,60.001,35.926,60.569z M28.75,55.487h1.791C30.574,56.202,26.923,55.657,28.75,55.487z M33.233,39.94
			c0.479-0.52,1.12-0.878,1.794-1.197c0.302-0.397,0.285-1.113,0.899-1.195c0.761-3.128,0.85-6.925,0.897-10.765
			c-0.491-2.6-1.239-4.941-1.796-7.476c-0.861-0.43-1.151-1.437-1.794-2.092c-1.551-1.042-3.517-1.666-5.381-2.391
			c-4.982-0.399-8.826,0.344-10.462,3.287c-0.221,1.414,0.426,1.965,0.892,2.691c-0.377,0.418-1.575,0.017-1.191,1.195
			c0.167,0.971-0.205,1.393-0.302,2.094c-0.441,6.818,1.094,11.666,4.185,14.951c1.498,0.496,2.749,1.238,4.487,1.494
			c2.123-0.172,4.151-0.434,6.579-0.299C32.092,39.796,32.762,39.965,33.233,39.94z M29.946,35.753
			c-2.106,0.09-4.86-0.473-5.382,1.197c-1.803-1.888-2.796-4.583-3.59-7.476c0.194-3.384-0.515-5.862-0.299-9.27
			c0.471-0.522,0.592-0.883,1.196-1.195c0.974-0.502,2.104-0.244,3.59-0.299c1.331,0.764,2.168,2.018,3.289,2.99
			c0.436-0.164,1.545,0.35,1.493-0.299c1.141,1.251,2.013,2.772,2.392,4.784v5.979C31.806,33.427,30.906,34.62,29.946,35.753z
			 M93.93,51.304c0.496-1.002,0.104-2.891,0.599-3.89c-0.212-1.38-0.798-2.391-1.791-2.991c-1.62-0.32-1.785,0.813-3.29,0.599
			c-1.782-0.562-4.542-0.885-6.577-0.297v-3.589c-0.363-2.032-0.614-4.169-0.601-6.578c-0.38-1.37-0.315-3.182-0.6-3.888
			c-0.279-0.704-1.022-0.882-1.191-1.494h-1.796c-3.059,1.126-5.194,3.179-8.373,4.187c-0.862,1.428-0.557,4.029-0.598,6.277
			c-0.44,1.554-0.275,3.711-0.299,5.683h-5.978c-0.556,0.913-1.42-0.347-2.392,0c-0.006,0.493-0.829,0.165-0.898,0.598
			c-0.427,0.071-0.506,0.493-0.897,0.598c-0.469,1.376,0.318,1.938,0.297,3.588c-0.38,2.312-0.582,4.8-0.594,7.474
			c0.614,0.483,0.753,1.439,1.193,2.094c2.203,1.109,6.255,0.494,8.97,0.299c-0.159,4.045,0.418,7.358,0.898,10.766
			c1.134,0.759,1.868,1.916,2.992,2.691c1.833-0.16,4.327,0.342,5.678-0.299c0.592,0.712,2.083,0.706,2.987,0.299
			c1.404-1.311,0.888-3.881,0.9-6.28c0.013-2.482,0.189-5.152,0.301-7.177c1.929-0.06,3.72-0.264,5.38-0.598
			c1.261,0.334,1.587,1.604,3.588,1.195c1.14-0.751,2.021-1.762,1.793-3.887C93.786,54.942,94.076,53.338,93.93,51.304z
			 M65.526,50.404c0.401,0.196,0.559,0.639,0.6,1.196C65.193,51.741,65.055,50.849,65.526,50.404z M65.827,52.796v-0.598
			c0.251,0.057,0.281-0.117,0.299-0.297C66.705,51.78,66.561,53.263,65.827,52.796z M74.197,48.312
			c0.649-0.051,0.135,1.059,0.299,1.494h-1.193C73.157,48.867,74.107,49.017,74.197,48.312z M88.847,54.89
			c-1.786-0.672-3.288,0.143-5.38,0c-0.663,0.164-0.428-0.571-0.897-0.6h-3.291c0.159-0.44,0.444-0.752,0.6-1.193
			c-1.269-0.373-0.798,0.994-1.494,1.193v13.755c-0.632-0.264-0.884-0.909-1.796-0.896c0.175-1.072-0.345-1.447-0.596-2.094
			c0.479-1.712,1.309-3.072,1.792-4.784c-0.125-1.07-0.953-1.438-2.091-1.494c0.088-0.79-0.626-0.771-1.199-0.896v-1.793
			c-0.44-1.139,1.339-0.062,0.896-1.197c0.024-1.019-1.107-0.887-2.09-0.896c0.252-0.643,0.737-1.059,1.793-0.897
			c0.636-0.142,0.569,0.426,0.599,0.897c0.239,0.258,0.818,0.178,0.895,0.598c1.024,0.125,0.9-0.896,1.497-1.197
			c-0.14-1.755-0.422-3.367-1.199-4.483c-0.333-1.431,0.46-2.383-0.894-2.99c-0.943-0.043-1.031,0.766-1.196,1.494
			c-0.702-0.624-0.318-2.691,0.595-2.689c-0.224-2.471,2.168-3.744,1.197-5.981c-1.45-0.256-1.696,0.696-2.093,1.496
			c-0.686-0.611-0.105-2.482-0.299-3.588c0.146-0.943-0.537-1.057-0.299-2.094c1.258-0.537,2.632-0.956,3.588-1.793
			c0.349-0.05,0.532,0.065,0.6,0.299c-0.227,5.207,0.362,9.604,0.299,14.651c0.841,0.45,2.063,0.528,3.285,0.598
			c1.142,0.354,2.599,0.394,3.593,0.895h2.09c0.839-0.157,1.554-0.438,2.393-0.598C89.164,50.419,89.291,52.942,88.847,54.89z
			 M36.824,78.809h-0.6v0.299C36.572,79.158,36.756,79.044,36.824,78.809z M36.224,79.108h-0.599
			C35.701,79.483,36.221,79.412,36.224,79.108z"/>
	</g>
</g>
<g>
</g>
<g>
</g>
<g>
</g>
<g>
</g>
<g>
</g>
<g>
</g>
<g>
</g>
<g>
</g>
<g>
</g>
<g>
</g>
<g>
</g>
<g>
</g>
<g>
</g>
<g>
</g>
<g>
</g>
</svg>
