<?xml version="1.0" encoding="iso-8859-1"?>
<!-- Generator: Adobe Illustrator 19.0.0, SVG Export Plug-In . SVG Version: 6.00 Build 0)  -->
<svg version="1.1" id="Capa_1" xmlns="http://www.w3.org/2000/svg" xmlns:xlink="http://www.w3.org/1999/xlink" x="0px" y="0px"
	 viewBox="0 0 100 100" style="enable-background:new 0 0 100 100;" xml:space="preserve">
<g id="icecream_1_">
	<g>
		<path style="fill-rule:evenodd;clip-rule:evenodd;" d="M79.148,27.969c-0.578-0.415-0.445-1.539-0.894-2.084
			c-0.248-0.743-0.815-1.166-0.894-2.079c-1.086-1-1.987-2.178-2.974-3.275c-1.434-0.55-2.929-1.037-3.87-2.084
			c-1.385,0.198-1.908-0.468-2.973-0.593c-0.842,0.244-0.771-0.419-1.488-0.299c-0.523-0.17-1.748,0.36-1.784-0.298
			c0.432-1.733,0.135-3.448,0-4.463c-0.051-0.389,0.062-0.802,0-1.189c-0.381-2.322-1.479-4.052-2.084-5.652
			c-2.315-1.452-4.08-3.461-7.141-4.165c-2.58-1.388-6.3-1.636-10.114-1.787c-7.491,1.934-12.074,6.773-11.902,16.365
			c0.501,1.777,1.713,2.852,2.381,4.463c-2.374,0.604-3.891,2.061-6.249,2.678c-1.261,1.615-3.017,2.736-4.463,4.166
			c-0.787,1.888-1.986,3.369-2.978,5.058c-0.562,2.212-1.127,4.426-0.888,7.438c0.453,1.131,0.862,2.312,1.187,3.568
			c0.375,0.125,0.611,0.385,0.598,0.895c1.581,1.391,3.464,2.485,5.355,3.57c2.002,0.277,3.672,0.889,5.355,1.487
			c3.038,8.17,4.941,17.473,7.438,26.185c1.016,4.536,2.724,8.384,3.866,12.791c0.994,1.789,1.64,3.918,2.381,5.952
			c0.534,0.854,0.782,1.992,1.487,2.679c0.407,1.082,0.529,2.446,2.083,2.379c0.739,0.91,1.852-0.312,2.084-0.893
			c1.257-0.008,1.92,0.577,2.974,0c0.363-1.026,1.043-1.737,1.49-2.676c0.352-1.137,0.79-2.186,1.187-3.273
			c0.621-2.356,1.572-4.381,2.084-6.844c1.534-4.318,3.336-8.37,5.058-12.496c3.644-8.16,6.496-17.108,8.632-26.779
			c0.257-1.448-0.408-1.975-0.598-2.977C77.211,40.314,79.7,35.662,79.148,27.969z M37.791,9.818
			c0.47-0.815,1.204-1.373,1.487-2.379c1.066-0.521,2.092-1.082,2.975-1.785c3.039,0.164,4.898-0.854,8.032-0.596
			c1.792,1.085,3.528,2.224,5.058,3.57c0.141,0.955,1.136,1.049,1.191,2.084c0.715,0.374,0.599,1.58,1.188,2.081
			c0.106,1.98-0.262,4.431,0.299,5.952c-0.798,0.391-1.581,0.799-2.381,1.189c-0.568,0.621-1.059,1.322-2.083,1.489
			c-0.466,1.515-1.654,2.311-2.081,3.866c-0.869-0.123-0.966-1.017-1.488-1.485c-0.365-0.628-0.825-1.163-1.192-1.788
			c-1.792-0.98-3.438-2.115-5.947-2.379c-1.819-0.231-2.787,0.389-4.465,0.297C38.006,16.742,37.56,13.619,37.791,9.818z
			 M30.053,33.919c0.157-0.458,0.311-0.019,0.3,0.3C29.821,34.3,29.741,33.936,30.053,33.919z M29.161,31.837
			c-0.104-1.493,1.316-1.46,1.489-2.679c0.879-0.409,1.204-1.373,2.084-1.786c0.281-0.605,0.605-1.175,0.89-1.784
			c2.953-0.715,5.133-2.204,8.928-2.082c1.722,0.459,3.055,1.306,4.163,2.379c0.074,1.414,0.912,2.066,1.192,3.273
			c-0.141,1.647,0.419,3.99-0.595,4.761c-1.857-1.308,0.364-3.51-0.597-5.355c-1.774-0.287-1.155,1.823-2.676,1.786
			c-0.128,1.063-0.749,1.632-1.487,2.082c0.238,1.033-0.446,1.143-0.298,2.084c-0.839-0.352-0.908-1.476-1.193-2.381
			c-0.869-0.078-0.913,0.674-1.782,0.595c-0.992-0.101-1.322-0.862-2.681-0.595c0.682-1.108,2.09-1.485,2.977-2.381
			c-0.128-0.664-1.467-0.121-2.084-0.298c0.125-1.163,1.659-0.921,2.68-1.19c-0.284,1.276,0.833,1.148,0.89,2.083
			c0.041,0.952,0.676,1.309,1.789,1.19c0.593-0.397,0.663-1.322,0.89-2.084c0.933,0.139,0.841-0.747,1.192-1.19
			c-0.04-1.349-0.625-2.153-0.893-3.273h-5.952c-0.835,0.257-0.634,1.548-1.188,2.084c-0.761,0.132-1.369,0.417-1.785,0.892
			c-0.952,0.255-0.921-0.469-1.49-0.597c-0.966,0.523-1.487,1.489-2.084,2.382C30.436,30.139,30.584,31.77,29.161,31.837z
			 M41.954,36.3c0.475-0.22-0.066-1.456,0.895-1.189C42.928,35.889,42.738,36.39,41.954,36.3z M32.136,33.028
			c-0.155-0.154,0.216-0.381,0.298-0.299C32.587,32.884,32.218,33.108,32.136,33.028z M31.837,33.623
			c-0.152-0.154,0.216-0.381,0.299-0.299C32.29,33.479,31.922,33.705,31.837,33.623z M32.434,32.432
			c-0.155-0.152,0.216-0.381,0.299-0.297C32.884,32.289,32.518,32.514,32.434,32.432z M32.136,44.631
			c0.609-0.597,0.585,0.131,1.19,0.297C33.42,45.454,31.658,45.46,32.136,44.631z M32.734,40.465
			c-0.239-1.03,0.442-1.143,0.295-2.081c-0.122-0.872-1.017-0.966-1.489-1.489c0.517-1.611,1.949-0.34,3.273-0.299
			c0.965-0.225,1.888-0.491,1.784-1.783c0.484-0.085,0.511,0.281,0.893,0.298c-0.125,0.566-0.85,0.538-0.592,1.485
			c-1.346,0.641-2.103,1.869-3.274,2.68C33.498,39.844,33.516,40.555,32.734,40.465z M34.518,45.523
			c-0.225-1.117,1.137-0.648,1.188-1.487c0.699,0.094,0.667,0.921,1.192,1.19C36.676,45.897,35.227,45.344,34.518,45.523z
			 M36.3,38.682c0.917-0.223,0.575,0.815,1.491,0.594c0.89-0.297,1.487-0.892,1.783-1.786c0.999-0.008,1.573,0.411,2.083,0.895
			c0.238-0.257,0.816-0.177,0.895-0.597c0.464,1.02,2.741,0.232,3.567,0.894c-0.178,1.507-1.325,2.047-1.784,3.273
			c-0.669-0.523-2.238-0.143-2.976-0.597c-1.351-0.161-0.791,1.587-2.081,1.489c0.721-0.758-0.299-1.45-0.597-2.084
			C37.355,40.602,36.05,40.421,36.3,38.682z M39.574,43.736v1.191h-0.596v-1.191H39.574z M43.739,64.863
			c-1.106,0.017-0.856-1.324-0.89-2.381C43.611,63.018,44.165,63.942,43.739,64.863z M43.739,60.995
			c0.601-2.574,2.024-4.322,2.976-6.546c1.007,0.68,1.729,1.644,2.081,2.976c-0.58,2.394-1.741,4.206-3.864,5.058
			C44.729,61.792,43.943,61.686,43.739,60.995z M58.022,55.641c0.071,1.216,1.012,1.568,1.189,2.676
			c-1.189,0.895-1.837,2.328-2.974,3.273c-1.013-0.077-0.842-1.34-1.487-1.784c-0.338-0.653-0.996-0.987-1.193-1.786
			c0.579-2.397,2.469-3.485,3.273-5.652c0.967,0.126,0.946,1.236,1.786,1.486C58.759,54.791,57.704,54.528,58.022,55.641z
			 M53.856,64.566c-1.055,1.126-1.988,2.375-2.976,3.57c-1.118,0.224-0.646-1.137-1.487-1.189c-0.202-0.593-0.906-0.683-1.19-1.191
			c0.957-1.619,2.229-2.93,2.975-4.761C52.44,61.818,53.296,63.047,53.856,64.566z M47.012,70.219
			c-0.258-0.866-0.444-0.334-1.189-0.298c0.293-0.696,0.523-1.462,0.596-2.379c1.254,0.132,1.322,1.452,2.081,2.081
			c0.082,1.174-1.272,0.909-1.188,2.082C46.666,71.756,47.175,70.65,47.012,70.219z M48.203,83.607
			c-1.219-1.137-0.335-4.691,0.893-5.95v-2.084c0.76-0.627,1.316-1.46,1.784-2.379c1.076,0.214,0.85,1.728,2.083,1.784
			c-0.268,1.561,1.46,1.12,1.19,2.679c-0.277,0.218-0.451,0.54-0.597,0.892c-1.042,0.555-0.978-0.226-1.785-0.594
			c-1.325,0.258-1.709,1.462-2.081,2.676C48.929,81.36,48.674,82.59,48.203,83.607z M56.534,85.394
			c-0.421,1.065-0.851,2.124-0.894,3.57c-0.746,0.741-0.47,2.503-1.784,2.677c0.044-1.585,0.778-3.196-0.597-3.866
			c-1.478,0.603-2.224,1.938-2.379,3.866c-1.481-0.002-1.322-2.223-0.892-3.271c0.513-1.075,1.035-2.141,1.189-3.572
			c0.29-0.007,0.232-0.363,0.298-0.596c1.739-1.336,2.856-3.291,4.462-4.76c0.681-0.409,1.12,0.766,1.192,0
			c-0.174-1.065,0.878-0.902,1.786-0.893C58.175,80.884,57.153,82.938,56.534,85.394z M58.022,76.466c-0.801-0.351,0-1.55,0-2.082
			c-0.921,0.071-1.156,0.829-1.784,1.189c-1.318-1.358-2.535-2.821-3.274-4.76c0.774-1.11,1.851-1.919,2.38-3.271
			c0.48-0.086,0.513,0.281,0.894,0.295c1.411,1.96,1.957,4.785,4.163,5.952C60.236,75.309,58.455,75.213,58.022,76.466z
			 M61.592,72.302c-1.002-0.884-1.617-2.152-2.381-3.273c0.754-1.864-0.371-3.048-1.189-4.166c0.737-1.644,2.461-2.298,2.976-4.168
			c1.929,0.453,1.755,3.009,4.166,2.977C63.631,66.208,62.834,69.477,61.592,72.302z M65.756,62.185
			c-1.188-0.892-1.835-2.326-2.974-3.271c2.654-4.029-2.657-6.258-3.57-9.524c0.459-0.633,1.073-1.107,1.487-1.784
			c1.412-0.22,2.048,0.335,3.273,0.296c1.983-0.155,4.141-1.538,6.248-0.595C68.899,52.434,67.531,57.512,65.756,62.185z
			 M71.113,38.977c-1.568,1.605-3.664,2.683-5.95,3.57c-4.233,0.167-7.567-0.566-10.712-1.486c-0.702-0.007-0.877,0.513-1.784,0.297
			c-0.221,1.906,0.367,3.007,1.487,3.57c0.628,0.266,0.878,0.907,1.784,0.893c0.096,0.701,1.41,0.178,1.192,1.191
			c-1.192-0.167-1.886-1.158-2.977-0.595c-0.212,1.501,0.407,2.172,0.597,3.271c-1.336,1.444-2.503,3.052-3.573,4.761
			c-1.212-0.475-1.892-1.478-2.382-2.677c0.107-1.878,1.607-2.363,1.192-4.761c-1.921,0.259-3.078,1.285-3.869,2.677
			c-0.64-0.249-1.013-0.771-2.081-0.595c-0.34,1.234,0.626,1.159,0.593,2.084c-0.228,1.256-1.444,1.527-2.08,2.379
			c-0.257,1.432-1.236,2.139-1.491,3.57c-1.112-1.76-1.483-4.268-2.082-6.547c1.654-0.824,4.015-0.941,5.06-2.379
			c1.872-0.509,2.721-2.041,4.165-2.976c1.192-1.683,2.193-3.559,3.273-5.354c0.243-1.345,0.506-2.669,0.894-3.869
			c0.097-1.094-0.256-2.633,0.297-3.272c-0.57-0.72-0.189-2.392-0.297-3.571h1.188c0.567-2.805,2.829-3.916,4.465-5.652h2.379
			c0.944-0.248,1.515-0.869,2.085-1.488c2.455-0.174,4.125,0.438,6.246,0.597c0.05,0.743-0.456,0.931-0.892,1.191
			c-0.658,0.034-0.125,1.259-0.296,1.782c0.251,0.64,0.732,1.053,1.785,0.895c0.944,0.034,1.904-1.446,1.188-2.084
			c0.239-0.686,1.399,0.154,1.491,0.595c0.762,0.028,0.424,1.163,1.189,1.191c0.375,1.309,0.779,2.591,1.189,3.866
			C74.031,33.764,72.777,36.577,71.113,38.977z M57.427,29.754c0.421,0.867,1.251,1.325,2.676,1.189
			c0.821-0.534,0.699-2.341,0.298-3.271C58.531,27.49,57.246,27.89,57.427,29.754z M64.865,33.028
			c0.265-0.729,0.691-1.291,0.593-2.381c-1.449-0.919-2.956,0.312-2.677,2.082C63.165,33.141,64.073,33.022,64.865,33.028z
			 M72.6,32.135c0.006,0.301,0.523,0.375,0.597,0C72.863,32.165,72.734,31.701,72.6,32.135z M55.343,35.11
			c-0.137,0.929,0.636,0.951,1.487,0.892C57.165,34.799,55.917,34.529,55.343,35.11z M62.781,38.384
			c0.329,0.959,0.949,1.63,2.381,1.487c0.965-0.426,1.336-1.444,1.19-2.977C65.002,35.898,62.791,36.414,62.781,38.384z
			 M56.534,80.036c0.284,0.556-0.892,0.996,0,1.191C56.621,81.045,57.275,80.081,56.534,80.036z"/>
	</g>
</g>
<g>
</g>
<g>
</g>
<g>
</g>
<g>
</g>
<g>
</g>
<g>
</g>
<g>
</g>
<g>
</g>
<g>
</g>
<g>
</g>
<g>
</g>
<g>
</g>
<g>
</g>
<g>
</g>
<g>
</g>
</svg>
