<?xml version="1.0" encoding="iso-8859-1"?>
<!-- Generator: Adobe Illustrator 19.0.0, SVG Export Plug-In . SVG Version: 6.00 Build 0)  -->
<svg version="1.1" id="Capa_1" xmlns="http://www.w3.org/2000/svg" xmlns:xlink="http://www.w3.org/1999/xlink" x="0px" y="0px"
	 viewBox="0 0 100 100" style="enable-background:new 0 0 100 100;" xml:space="preserve">
<g id="flash2_1_">
	<g>
		<path style="fill-rule:evenodd;clip-rule:evenodd;" d="M82.282,21.05c-0.273-1.931-2.506-1.904-4.812-1.804
			c-1.66-0.646-3.533-1.078-5.415-1.502c1.511-1.997,3.182-3.837,5.116-5.414c0.536-1.064,1.239-1.966,1.801-3.008
			c0.791-0.816,2.046-1.163,2.106-2.706c-1.239-1.971-4.81-1.607-6.917-2.708c-3.209,0.003-5.16-1.253-8.118-1.503
			C60.596,1.334,54.614,0.802,48.903,0h-2.708c-0.505,0.398-1.008,0.797-2.106,0.603c-1.101,3.613-3.046,6.375-4.812,9.321
			c-1.964,2.747-3.506,5.918-5.716,8.421c-0.711,1.592-1.873,2.737-2.706,4.211c-1.02,1.385-2.034,2.776-3.008,4.209
			c-0.883,1.423-1.924,2.688-2.706,4.211c-0.758,1.647-2.312,2.501-2.107,5.112c0.405,0.294,0.604,0.802,0.904,1.203
			c0.741-0.04,1.45-0.045,1.806,0.3c1.363,0.041,2.071,0.736,3.307,0.903c2.043,0.765,4.518,1.096,6.313,2.104
			c-2.889,4.126-5.435,8.599-8.417,12.631c-1.23,2.279-2.842,4.175-4.213,6.315c-0.847,2.66-2.841,4.173-3.305,7.218
			c1.17,1.233,3.649,1.16,5.412,1.805c1.788,0.718,4.65,0.359,6.014,1.503c-1.17,2.438-2.428,4.789-3.608,7.219
			c-2.32,4.998-4.744,9.892-7.218,14.735c-0.477,2.544-3.84,5.245-1.503,7.818c3.557,0.867,5.675-2.083,8.122-3.309
			c0.89-1.11,2.129-1.876,3.305-2.705c0.247-0.755,1.054-0.952,1.507-1.504c0.812-0.188,0.747-1.257,1.804-1.202
			c4.132-3.988,8.282-7.957,12.628-11.73c1.84-2.17,4.467-3.55,6.615-5.411c2.059-2.053,4.349-3.874,6.318-6.015
			c4.183-3.939,8.304-7.938,12.03-12.332c1.183-0.419,1.747-1.457,2.705-2.104c0.793-0.812,2.271-0.936,3.007-1.805
			c0.163-0.437-0.35-1.555,0.3-1.503c-0.026-1.176-1.467-0.938-1.504-2.106c-4.81-0.601-8.455-2.367-13.231-3.007
			c2.606-2.704,4.884-5.746,7.517-8.419c1.52-1.19,2.502-2.914,3.611-4.513c0.98-1.724,2.354-3.058,3.308-4.812
			c0.952-0.547,1.433-1.575,2.706-1.804c0.47-0.732,0.623-1.784,1.205-2.406C81.757,23.131,82.374,22.447,82.282,21.05z
			 M68.149,51.726h1.2c-1.045,0.56-1.394,1.814-2.707,2.107c-0.813,0.887-1.392,2.016-2.705,2.404
			C64.875,54.269,66.841,53.325,68.149,51.726z M69.951,27.667c-2.661,2.953-5.599,5.628-8.121,8.722
			c-1.811,1.899-3.463,3.954-5.11,6.015c-0.871,1.032-1.681,2.129-2.405,3.308c-0.452,0.453-0.907,0.9-1.505,1.202
			c-0.217,0.685-0.268,1.538-0.602,2.106c0.624,0.68,2.235,0.369,3.01,0.901c0.713,0.589,2.022,0.583,2.705,1.202
			c2.885-0.077,5.373,0.242,6.015,2.407c0.2,3.309-2.53,3.685-4.211,5.113c-5.473,3.85-9.451,9.192-14.134,13.833
			c-2.13,2.582-4.788,4.636-6.919,7.218c-0.791,0.713-1.811,1.194-2.102,2.406c-1.783,1.326-3.033,3.184-4.811,4.511
			c-0.902,0.606-1.487,1.524-2.407,2.104c-0.712,0.792-1.194,1.812-2.405,2.107c2.223-3.889,4.361-7.867,6.613-11.731
			c0.968-2.139,2.209-4.006,3.01-6.313c1.062-1.946,2.341-3.672,2.102-6.919c-0.501-1.601-1.902-2.305-3.907-2.406
			c-1.302-0.704-3.249-0.759-5.113-0.9c1.064-2.044,2.545-3.671,3.61-5.714c1.467-1.641,2.341-3.873,3.907-5.414
			c0.185-1.117,0.719-1.889,0.904-3.007c1.173-1.032,1.95-2.46,2.706-3.91c-0.124-1.881-0.176-3.833-0.602-5.412
			c-0.79-1.315-2.671-1.538-4.21-2.106c-1.521-0.484-2.845-1.165-4.812-1.203c0.846-3.262,3.035-5.184,4.208-8.119
			c1.177-0.931,1.465-2.746,2.709-3.608c0.399-1.604,1.797-2.213,2.104-3.909c1.94-2.172,3.324-4.895,4.81-7.52
			c1.523-2.486,2.895-5.124,4.213-7.817c0.16-0.243,0.312-0.489,0.299-0.904c4.165,0.645,8.272,1.352,12.329,2.105
			c4.531,0.083,7.215,2.009,11.73,2.106c0.727,0.698-0.47,0.803-0.603,1.502c-0.914,0.488-1.409,1.392-2.102,2.107
			c-0.609,0.623-1.703,1.025-1.806,2.102c-1.231,0.576-1.598,2.013-2.707,2.708c-0.449,0.451-0.538,1.267-1.203,1.503
			c-0.103,0.698-0.194,1.408-1.202,1.203c0.218,1.523-0.825,1.78-0.904,3.008c1.271,0.734,3.188,0.822,4.513,1.504
			c1.802,0.201,3.221,0.786,5.111,0.901C72.173,26.079,70.938,26.749,69.951,27.667z M70.553,20.449
			c-0.009,0.293-0.368,0.233-0.602,0.302C69.962,20.458,70.32,20.516,70.553,20.449z"/>
	</g>
</g>
<g>
</g>
<g>
</g>
<g>
</g>
<g>
</g>
<g>
</g>
<g>
</g>
<g>
</g>
<g>
</g>
<g>
</g>
<g>
</g>
<g>
</g>
<g>
</g>
<g>
</g>
<g>
</g>
<g>
</g>
</svg>
