<?xml version="1.0" encoding="iso-8859-1"?>
<!-- Generator: Adobe Illustrator 19.0.0, SVG Export Plug-In . SVG Version: 6.00 Build 0)  -->
<svg version="1.1" id="Capa_1" xmlns="http://www.w3.org/2000/svg" xmlns:xlink="http://www.w3.org/1999/xlink" x="0px" y="0px"
	 viewBox="0 0 100 100" style="enable-background:new 0 0 100 100;" xml:space="preserve">
<g id="thumbs-up_1_">
	<g>
		<path style="fill-rule:evenodd;clip-rule:evenodd;" d="M97.707,40.976c-1.174-1.883-2.951-3.165-4.297-4.873
			c-2.264-0.6-4.155-1.578-6.593-2.004c-2.628-0.333-5.53-0.392-8.023-0.86h-5.157c0.5-0.934,1.434-1.435,1.72-2.579
			c1.026-0.503,1.028-2.031,2.007-2.58c-0.168-1.219,0.204-1.895,0.285-2.865c0.962-0.95,1.394-2.429,2.293-3.439
			c0.562-1.442,1.997-2.013,2.293-3.724c0.025-3.702-0.213-7.664,0.573-10.602c-0.585-1.136-1.205-2.236-1.145-4.012
			C79.913,2.512,79.081,0.671,77.077,0h-3.44c-3.341,1.243-4.538,4.63-8.021,5.731c-3.731,7.349-10.131,12.027-16.047,17.193
			c-2.762,2.774-5.535,5.545-8.595,8.024c-1.303,1.465-2.907,2.632-4.585,3.725c-1.664,1.201-3.163,2.566-5.156,3.438
			c-0.016-1.894-1.19-2.632-2.005-3.725c-3.386-0.914-6.433-2.166-10.604-2.292c-2.568,0.01-4.677,0.482-7.45,0.285
			c-0.432,0.427-1.254,0.462-2.006,0.574c-0.4,0.458-0.987,0.733-1.719,0.858c-0.545,0.791-1.216,1.458-2.006,2.007
			c-2.407,5.044-2.274,12.625-3.439,18.911c-0.319,11.331-0.325,22.976-0.285,34.67c0.465,0.681,0.555,1.737,0.86,2.579
			c0.645,0.597,0.819,1.665,1.432,2.292c1.744,0.742,3.643,1.325,6.016,1.433c3.283,1.782,8.718,1.406,13.755,1.433
			c1.27-0.355,2.134-1.113,3.439-1.433c1.839,0.216,2.072-1.175,3.152-1.719c0.261,1.457,1.372,2.064,2.293,2.866
			c1.079-1.486,2.87,0.569,4.297,0.572c1.249,0.756,3.406,0.606,4.869,1.147c5.641,0.474,11.064,1.164,16.908,1.432
			c2.474-0.487,5.698-0.222,8.595-0.285c4.062-0.622,7.742-1.619,11.461-2.579c0.601-0.453,1.169-0.936,2.008-1.146
			c2.286-2.318,4.408-5.158,4.87-9.455c0.281-2.603-0.205-5.435,0-8.596c1.513-1.45,3.382-2.542,4.87-4.012
			c0.247-0.994,0.894-1.589,1.434-2.293c0.814-4.439,1.473-9.032,2.004-13.752c1.891-2.22,3.593-4.624,4.3-8.023
			C98.299,46.686,98.422,43.412,97.707,40.976z M9.167,45.846c0.079-0.973-0.22-2.323,0.287-2.866
			c-0.069-2.072,0.625-3.385,1.147-4.87c0.277,0.008,0.221,0.35,0.287,0.573c-0.625,3.196-1.407,6.234-1.721,9.742
			C8.59,48.106,8.838,46.208,9.167,45.846z M26.359,44.987c-0.513,0.537-0.63,1.469-1.147,2.004
			c-0.79,4.273-1.438,8.687-2.007,13.182c0.018,2.698-0.184,3.837,0,6.303c-0.748,3.988,0.343,8.124,0.289,12.321
			c0.645,1.457,1.063,3.139,2.003,4.299c0.242,2.338,0.837,4.325,1.15,6.589c-3.103,0.209-7.301,0.637-10.316,0
			c0.048-0.911,0.67-2.11,0-2.865c-2.068-0.445-2.108,1.14-3.726,1.147c0.439-1.758,1.566-2.827,2.005-4.585
			c0.749-1.13,1.999-3.076,1.432-4.585c-1.172-0.491-2.651,0.896-3.437,1.72c-1.285,0.32-1.652,2.825-2.866,2.291v-4.297
			c0.61-0.726,0.685-1.987,1.432-2.579c0.037-1.206,1.109-1.375,1.145-2.58c0.707-0.631,1.728-0.949,2.008-2.005
			c0.043-0.713-0.451-0.887-0.575-1.434c-0.092-0.669-1.251-0.277-1.433-0.859c-0.874-0.206-1.042,0.293-1.717,0.288
			c-0.416-0.155-0.701,1.115-0.86,0.284c1.356-10.104-0.614-23.535,3.44-30.944c0.228-0.055,0.285-0.287,0.57-0.287
			c0.231-0.054,0.286-0.288,0.575-0.286c1.265,0.463,2.501,0.031,3.438,0.286c0.764,0.194,1.458,0.451,2.008,0.861
			c3.086-0.128,4.522,1.397,7.448,1.432C26.734,41.923,26.609,43.515,26.359,44.987z M91.402,50.717
			c-0.818,1.188-1.572,2.44-2.579,3.439c-0.357,0.979-0.615,2.058-1.145,2.864c-0.336,4.629-0.83,9.104-2.007,12.894
			c-1.642,1.319-3.295,2.627-5.157,3.726c-0.302,1.228-0.976,2.082-0.859,3.725c-0.064,1.117,0.614,1.486,0.859,2.292
			c-0.547,3.465-0.589,7.435-2.293,9.742c-1.726,1.617-4.646,2.042-7.447,2.579c-1.172-0.743-2.981-0.84-4.872-0.859
			c-1.092,0.201,0.298-1.491-0.862-1.72c-2.051-0.239-1.815,1.813-3.435,2.006c-1.564,0.129-2.354-0.51-4.015-0.286
			c-0.002-1.819,1.632-1.998,1.434-4.012c-0.102-0.375-0.502-0.451-0.572-0.861c-2.876,0.088-3.944,1.979-5.444,3.44
			c-0.859-0.576-2.703-0.161-4.012-0.287c0.117-1.246,1.017-2.158,0.285-3.438c-3.488-0.336-3.704,2.6-6.017,3.438
			c0.209-1.529,1.766-3.893,0-4.87c-1.572-0.235-1.222,1.454-2.292,1.717c-0.734,0.606-0.799,1.877-2.008,2.009
			c-0.627-0.518-1.174-1.12-2.004-1.434c0.925-1.843,2.179-3.362,3.151-5.157c0.725-1.526,2.681-3.709,1.431-5.444
			c-2.495-0.112-3.532,1.24-4.582,2.578c-0.693,0.452-1.269,1.025-1.719,1.72c-0.646,0.5-0.659,1.631-1.718,1.719
			c-0.725-2.579,1.907-3.654,2.292-6.018c0.885-0.547,0.801-2.062,1.718-2.579c0.181-1.185,1.204-1.968,0.573-3.151
			c-2.611-0.225-3.016,1.76-4.583,2.578c-0.23,0.919-1.043,1.251-1.436,2.005c-0.645,0.501-0.659,1.632-1.718,1.719v-5.443
			c0.922-2.231,2.055-4.25,3.438-6.019c0.874-2.179,2.902-3.208,3.151-6.017c-1.014-0.499-2.37,0.781-3.437,1.146
			c-1.051,0.669-1.749,1.69-3.153,2.007c0.462-1.065,0.237-2.82,0.286-4.3c0.932-0.975,1.681-2.139,2.578-3.152
			c0.354-0.601,0.793-1.116,1.147-1.719c0.806-0.053,1.222-0.499,1.147-1.432c-0.293-0.663-1.317-0.593-2.294-0.574
			c-0.604,0.35-0.83,1.079-1.717,1.147c0.354-2.703,0.96-5.151,1.432-7.736c5.709-3.173,10.798-6.967,15.472-11.175
			c0.283-1.148,1.191-1.674,1.433-2.864c2.908-1.869,5.547-4.003,8.022-6.305c2.792-1.981,5.22-4.331,7.451-6.877
			c0.334-0.239,0.77-0.375,1.433-0.285c-0.207-0.876,0.291-1.044,0.287-1.719c2.001-1.536,3.054-4.016,5.155-5.445
			c-0.123-0.984,0.115-1.605,0.289-2.292c0.51-0.255,0.728-0.8,1.719-0.573c0.33-1.36-0.665-2.344,0-3.152
			c0.465-0.081,0.494,0.271,0.86,0.287c1.155,1.616,1.769,3.768,2.006,6.305c0.169,0.976,0.786,1.504,0.86,2.578
			c-0.724,4.723-3.221,7.666-5.445,10.889c-0.906,1.867-2.059,3.483-3.437,4.871c-0.79,1.884-2.697,2.651-3.727,4.298
			c-1.286,0.527-2.317,1.315-3.438,2.005c-1.184,0.537-2.449,0.991-2.578,2.579c-0.252,1.876,1.36,1.886,2.293,2.579
			c2.204,0.203,3.671-0.336,5.155-0.859c3.818,0.578,8.627,0.161,12.895,0.287c2.005,0.289,4.079,0.503,6.303,0.572
			c0.434,0.427,1.258,0.461,2.006,0.575c0.353,0.41,0.987,0.542,1.72,0.572c0.5,0.834,1.357,1.318,2.004,2.005
			C91.611,45.958,91.913,48.744,91.402,50.717z M18.911,40.976c-2.618-0.456-5.024-0.163-6.593,1.146
			c-0.493,1.893-1.101,3.672-1.145,6.017c0.092,0.672,0.454,1.076,0.286,2.004c0.646,0.597,0.822,1.664,1.434,2.293
			c0.621,0.619,1.498,0.985,2.293,1.433c3.473,0.035,5.37-1.506,6.592-3.726c-0.13-0.983,0.111-1.605,0.285-2.291
			c-0.24-0.714-0.375-1.536-0.285-2.58c-0.661-0.485-0.382-1.913-1.15-2.293C20.287,42.083,19.468,41.659,18.911,40.976z
			 M16.903,48.424c-0.795-0.349-0.533-1.759-0.571-2.865C17.116,45.88,17.195,47.926,16.903,48.424z"/>
	</g>
</g>
<g>
</g>
<g>
</g>
<g>
</g>
<g>
</g>
<g>
</g>
<g>
</g>
<g>
</g>
<g>
</g>
<g>
</g>
<g>
</g>
<g>
</g>
<g>
</g>
<g>
</g>
<g>
</g>
<g>
</g>
</svg>
