<?xml version="1.0" encoding="iso-8859-1"?>
<!-- Generator: Adobe Illustrator 19.0.0, SVG Export Plug-In . SVG Version: 6.00 Build 0)  -->
<svg version="1.1" id="Capa_1" xmlns="http://www.w3.org/2000/svg" xmlns:xlink="http://www.w3.org/1999/xlink" x="0px" y="0px"
	 viewBox="0 0 110 110" style="enable-background:new 0 0 110 110;" xml:space="preserve">
<g id="mail_1_">
	<g>
		<path style="fill-rule:evenodd;clip-rule:evenodd;" d="M109.499,18.577c-0.843-1.809-4.362-0.944-6.047-1.91
			c-1.732-0.352-1.676,1.082-3.182,0.956c-0.275-0.788-2.218,0.093-2.547-0.636H94.54c-0.53-0.535-1.872-0.254-2.863-0.32
			c-0.865-0.196-2.529,0.405-2.868-0.317c-11.932-0.457-25.32-0.519-37.243,0c-7.5,0.156-15.289,1.864-23.555,1.91
			c-8.133,0.043-16.493-0.213-24.189,0.953c-1.45,1.099-1.893,3.205-3.184,4.457C0.18,26.183,0.492,29.468,0,31.946
			c1.444,15.111,2.206,30.899,3.502,46.154c0.041,1.338,1.232,1.525,1.272,2.865c0.226,2.219,0.727,4.157,1.275,6.048
			c0.959,0.314,1.422,1.125,2.867,0.955c-0.035-0.385,0.461-0.195,0,0c-0.274,0.257-0.189,0.871-0.639,0.956
			c-0.111,2.976,2.495,3.234,4.775,3.82c2.593,0.164,5.047,0.468,7.959,0.318c2.431,0.43,5.114,0.612,7.639,0.955h28.647
			c6.75-0.996,14.251-1.24,21.008-2.229c7.784,0.039,14.147-1.344,21.328-1.911c1.518-0.35,0.438,1.899,1.592,1.911
			c0.239,0.821,1.016,1.106,2.227,0.956c1.387-0.313,1.961-1.437,2.228-2.867c0.354-1.344,0.367-3.027,0.318-4.773V74.917
			c0.435-6.355,0.901-12.679,0.954-19.416c0.671-6.118,0.334-13.249,0.956-19.417c0.131-3.263,0.627-6.161,0.954-9.232
			c-0.237-1.936,0.524-2.87,0.637-4.456C109.772,20.979,110.475,19.574,109.499,18.577z M11.782,24.624h21.642
			c8.315-0.917,16.652-1.809,26.101-1.591c0.548,0.067,0.828-0.544,0.956,0c0.333,0.331,1.583-0.329,1.591-0.317
			c0.012,0.015-0.008,0.317,0,0.317c0.97-0.062,1.251-0.166,1.912,0c0.169,0.042,0.461,0.016,0.635,0
			c0.824-0.083,0.979-0.004,2.223,0c0,0,0.065-0.372,0.324-0.317c0.024,0.002,0.092,0.288,0.32,0.317
			c0.643,0.085,1.808-0.015,2.865,0c-0.087-0.002,0.159-0.517,0.318-0.317c0.395,0.495,1.652,0.285,2.867,0.317
			c2.036-0.142,2.317-0.057,4.454,0c7.085,0.024,13.927,0.294,20.052,1.273c1.345-0.054-0.003,0.489,0,0.957
			c-0.424,0.317-0.957,0.524-1.272,0.953c-0.732,0.646-1.618,1.143-2.227,1.91c-1.874,0.885-3.425,2.095-5.092,3.184
			c-3.447,2.179-6.822,4.427-9.87,7.003c-0.847-0.274-0.568,0.6-1.273,0.637c-0.534,0.028-0.644,0.921-1.272,0.955
			c-0.261,0.013-1.202,0.681-1.593,0.955c-0.308,0.215-0.848,0.51-0.954,0.955c-2.052,0.705-3.165,2.35-5.094,3.184
			c-2.987,2.633-6.338,4.909-9.229,7.64c-2.059-1.232-4.025-2.553-5.733-4.14c-2.207-0.761-3.772-2.165-5.729-3.183
			c-1.625-1.239-3.596-2.132-5.091-3.5c-4.058-1.671-7.498-3.962-11.458-5.729c-7.938-3.521-15.179-7.739-22.918-11.46
			C9.742,23.732,10.665,25.072,11.782,24.624z M5.732,24.943c0.046-0.087,0.684-0.588,0.956-0.319
			C6.919,24.86,5.396,25.567,5.732,24.943z M16.555,88.288c0.102-0.745,0.381-1.316,0.635-1.91c0.453,0.606,0.741,1.381,0.953,2.228
			C17.409,88.706,16.923,88.553,16.555,88.288z M28.967,88.288h-3.502c0.826-1.828,2.043-3.266,2.865-5.093
			C29.625,83.81,28.678,86.665,28.967,88.288z M102.817,32.901c-0.561,9.627-1.091,19.282-1.914,28.649v4.136
			c0.265,0.901-0.446,0.826-0.317,1.591v4.776c-0.793,3.236,0.256,8.32-0.953,11.141c-2.398-0.169-3.894,0.563-6.369,0.32
			c-7.794,1.646-17.337,1.546-25.145,3.18c0.252-1.866,1.589-2.652,1.91-4.454c-0.177-0.923-0.497,0.486-0.955,0.316
			c-0.322,0.423-0.302,1.186-0.955,1.274c-0.2,1.18-0.895,1.863-1.274,2.863c-3.145,0.25-6.018,0.772-9.23,0.957
			c1.294-2.42,3.434-3.994,4.136-7.003c-0.981-0.824-1.704,0.65-2.228,1.273c-0.809,0.673-1.406,1.563-1.908,2.547
			c-0.901,0.478-1.354,1.402-2.549,1.591c0.012,0.75-0.544,0.939-0.315,1.91H42.336c0.01-1.305,1.62-2.208,0.955-3.183
			c-1.702,0.208-1.562,2.259-2.545,3.183c-2.908-0.149-5.368,0.152-7.958,0.319c-0.542-2.113-0.713-4.591-1.591-6.367
			c-0.683-1.393,0.488-1.964,0-2.864c-3.137,0.367-4.859,2.143-6.684,3.818c-0.499-0.459-0.629-1.282-1.913-0.955
			c-2.056,0.169-2.421,2.034-4.137,2.547c0.268-1.112,1.062-1.695,0.955-3.184c-1.461,0.054-2.146,1.364-2.863,2.23
			c-0.791,0.948-1.142,2.267-2.229,2.864c0.013,0.437-0.148,0.698-0.318,0.955c-0.127,0.546,0.47,0.816,0,0.955
			c-1.656-0.043-2.799-0.595-4.457-0.637c0.098-0.75,1.106-0.593,0.956-1.592c0.9-0.05,0.743,0.957,1.591,0.955
			c1.314-0.49,2.268-1.339,2.546-2.864c0.918-0.99,1.512-2.308,2.228-3.502c1.423-2.291,3.033-4.396,3.818-7.32
			c-3.785,0.778-5.106,4.02-7.32,6.366c0.036,0.386-0.463,0.195,0,0c1.068-2.645,2.631-4.797,3.82-7.322
			c1.037-2.434,4.035-4.346,2.863-7.957c-3.502-0.108-4.119,2.667-6.045,4.138c-1.017,2.486-2.966,4.039-3.823,6.684
			c-0.747-0.267,0.024-1.641,0.322-1.909c-0.087-1.147,0.587-1.535,0.633-2.547c0.898-1.225,1.108-3.139,1.912-4.457
			c0.327-1.688,1.195-2.841,1.592-4.457c0.532-1.587,1.8-2.443,1.911-4.457c-0.185-0.981-1.151-1.183-1.911-1.59
			c-1.824,0.083-2.303,1.515-3.504,2.228c-0.703,2.374-2.159,3.992-2.863,6.367c-0.721-0.34-0.121-2.003-0.318-2.864
			c0.434-0.628,0.303-1.819,0.636-2.547c0.05-1.013,0.72-1.399,0.639-2.547c0.746-0.312,0.285-1.835,0.95-2.228
			c0.504-3.342,3.376-5.932,2.23-9.867c-2.714-0.274-3.55,1.329-4.456,2.864c-0.72-0.236-0.124-1.785-0.32-2.545
			c-0.722-0.339-0.118-2.001-0.317-2.865c-0.623-4.999-1.077-10.17-1.59-15.278c0.731,0.437,1.023,1.311,1.59,1.909
			c2.37,1.133,4.228,2.777,6.366,4.138c2.389,1.113,4.197,2.806,6.685,3.82c4.097,2.905,9.128,4.878,13.368,7.638
			c2.582,0.925,4.623,2.383,6.687,3.82c2.21,1.29,3.912,3.091,6.368,4.138c1.756,1.746,4.531,2.472,6.048,4.456
			c1.351,0.453,2.135,1.47,3.182,2.229c1.565,0.237,2.328,1.278,4.455,0.957c1.299-0.401,2.148-1.252,2.547-2.547
			c2.021-0.738,3.253-2.266,5.094-3.184c1.315-1.547,3.457-2.272,4.773-3.82c2.052-0.707,3.167-2.351,5.094-3.183
			c1.573-1.294,3.415-2.314,5.094-3.501c6.167-5.187,14.011-8.693,19.735-14.326C103.532,29.816,103.071,32.079,102.817,32.901z
			 M11.462,82.24c0.599,0.314-0.158,1.938-0.955,1.909C10.18,82.868,11.001,82.735,11.462,82.24z M104.726,22.716
			c0.062-0.363,0.317-0.177,0.317,0C104.983,23.076,104.723,22.892,104.726,22.716z"/>
	</g>
</g>
<g>
</g>
<g>
</g>
<g>
</g>
<g>
</g>
<g>
</g>
<g>
</g>
<g>
</g>
<g>
</g>
<g>
</g>
<g>
</g>
<g>
</g>
<g>
</g>
<g>
</g>
<g>
</g>
<g>
</g>
</svg>
