<?xml version="1.0" encoding="iso-8859-1"?>
<!-- Generator: Adobe Illustrator 19.0.0, SVG Export Plug-In . SVG Version: 6.00 Build 0)  -->
<svg version="1.1" id="Capa_1" xmlns="http://www.w3.org/2000/svg" xmlns:xlink="http://www.w3.org/1999/xlink" x="0px" y="0px"
	 viewBox="0 0 101.318 101.318" style="enable-background:new 0 0 101.318 101.318;" xml:space="preserve">
<g id="money4_1_">
	<g>
		<path style="fill-rule:evenodd;clip-rule:evenodd;" d="M59.653,22.538c1.136,0.184,1.15-0.756,2.281-0.57
			c1.101-0.709,2.752-0.865,3.712-1.713c1.488-0.316,2.144-1.469,3.707-1.711c1.627-0.18,3.196-0.418,3.425-1.997
			c0.611-1.124,0.281-3.419-0.284-4.28c-0.107-1.319-1.237-1.615-1.431-2.852c-0.518-0.811-1.62-1.041-1.993-1.997
			c-0.43-0.426-1.204-0.51-1.43-1.141c-0.749-0.296-1.749-0.342-2.85-0.285c-0.561,0.484-1.763,0.327-2.282,0.856
			c-0.578-0.848-0.219-2.636-1.141-3.139c-0.547-0.785-1.111-1.551-1.999-1.997c-4.911-0.604-9.328-1.704-15.121-1.427
			C43.915,0.331,43.739,0.222,43.679,0h-0.288c0.062,0.266-0.12,0.236-0.284,0.284c-1.273,0.369-2.344,1.067-2.852,2.282
			c-1.079,0.634-0.264,3.161-1.43,3.71c-4.977-0.223-8.496,1.012-10.552,3.709c-0.179,2.363,1.489,2.883,2.566,3.994
			c1.097,1.089,2.438,1.934,3.993,2.567c1.262,0.925,2.849,1.525,3.992,2.567c1.184,0.599,2.737,2.118,4.565,1.141
			c1.413-3.328-1.886-4.114-3.136-5.705c-1.2-0.324-1.85-1.195-2.854-1.712c-0.428-0.333-1.168-0.354-1.427-0.856
			c-0.255-0.166-1.626-0.6-0.855-0.855h3.138c0.868-0.179,2.459,0.365,2.853-0.284c1.259-0.372,1.169,0.015,1.998,0.569
			c0.452,0.706,1.998,0.116,2.567,0c0.747-0.768,0.747-2.655,0-3.424c-0.279-0.71-1.604-2.3-0.284-2.852
			c2.362,0.3,4.909,0.413,7.418,0.57c0.034,0.631,1.208,0.121,1.711,0.285c0.337,0.328,1.012,0.323,1.714,0.285
			c1.267,0.061,1.173,1.488,1.995,1.996c0.521,0.984,2.142,0.43,3.14,0.287C61.557,9.7,62.779,9.806,64.218,9.7
			c1.032-1.013,1.891,0.566,2.283,1.142c0.776,0.558,1.557,1.107,1.713,2.282c0.221,1.362-1.782,0.499-1.998,1.426
			c-1.007,0.135-1.563,0.721-2.282,1.141c-1.87,0.414-3.068,1.496-4.85,1.996c-1.544,0.147-2.244,2.412-1.428,3.994
			C58.718,21.573,58.402,22.839,59.653,22.538z M89.324,81.024v-5.992c-0.397-3.594-0.577-7.41-1.141-10.84
			c-1.426-2.567-1.857-6.132-3.424-8.56c-1.184-2.813-2.521-5.468-4.28-7.703c-1.173-2.821-3.169-4.817-4.85-7.133
			c-2.203-1.788-3.991-3.993-5.99-5.991c-2.013-2.01-4.403-3.542-6.562-5.42c-1.221-0.777-2.733-1.262-3.994-1.998
			c-1.237,0.191-0.769-1.324-0.856-2.282c0.197-1.147-0.275-1.628-0.285-2.567c-0.149-0.23-0.299-0.463-0.286-0.857h-0.856
			c-0.563-0.481-1.78-0.31-2.567-0.57h-3.138c-1.741-0.349-3.877-0.307-5.991-0.283c-1.666-0.484-2.911,0.789-5.136,0.57
			c-1.246-0.199-1.607,0.486-2.853,0.283c-1.192,0.303-1.935-0.6-2.567,0c-0.767,0.377-1.517,0.768-2.283,1.143
			c-3.552,1.204-4.604,4.906-6.562,7.703c-1.992,0.576-3.385,1.748-5.135,2.568c-1.984,0.586-4.533,0.6-4.278,3.424
			c0.412,0.348,0.431,1.088,0.855,1.426c0.673-0.006,0.842,0.49,1.71,0.285c0.89-0.443,2.389-0.275,2.856-1.142
			c2.055-0.7,3.641-1.875,5.419-2.852c0.423-0.148,0.72-0.423,1.144-0.572c1.696-1.82,2.657-4.38,4.276-6.275
			c1.724-1.35,4.979-2.595,7.989-1.713c0.947-0.195,0.461,0.592,0.283,0.857c-0.529,0.039-0.949,0.188-1.139,0.57
			c-0.717,0.424-1.572,0.71-1.995,1.427c-1.474,0.81-2.755,1.811-3.713,3.14c-2.564,1.998-4.431,4.698-6.559,7.131
			c-1.792,2.773-3.859,5.271-5.422,8.273c-1.586,2.981-3.236,5.893-4.565,9.131c-1.339,3.224-2.12,7.008-3.138,10.555
			c-0.94,1.344-0.94,3.622-1.996,4.85c-0.022,2.26-0.804,3.763-0.856,5.992c-0.007,2.289-0.203,4.768,0.856,5.99
			c0.513,1.77,0.878,3.686,2.283,4.566c0.866,1.412,1.867,2.691,3.136,3.707c0.569,0.574,1.35,0.934,1.714,1.712
			c0.447,0.598,1.59,0.503,1.996,1.142c0.884-0.027,1.361,0.349,1.996,0.57c0.745,0.113,1.565,0.146,1.997,0.57
			c1.727-0.134,2.542,0.502,3.71-0.284c1.526,0.005,3.158,0.114,3.995-0.57c1.628,0.843,3.051,1.89,4.277,3.138
			c0.875,0.361,1.501,0.971,2.283,1.428c0.678,0.463,1.64,0.641,2.281,1.141c1.606,0.201,2.854,0.76,4.853,0.569
			c2.203-0.171,4.307-0.448,5.419-1.71c0.472-0.67,1.667-0.619,2.851-0.572c0.804-0.34,1.642-0.643,2.569-0.855
			c3.749-0.816,6.191-2.938,8.845-4.85c1.006,0.035,0.077,0.414,0.572,1.142c0.032,0.725,0.415,1.106,1.141,1.141
			c0.926,0.595,2.069,0.974,3.137,1.427c2.753,0.653,5.284,0.721,8.276,0.57c1.96-1.016,3.777-2.356,5.417-3.709
			c0.521-0.43,1.036-0.465,1.43-0.856c0.323-0.325,0.46-0.942,0.854-1.426c0.622-0.761,1.709-1.282,1.712-2.568
			c0.352-0.788,0.833-1.448,0.855-2.566C89.946,84.396,88.947,83.399,89.324,81.024z M16.573,75.888
			c0.658,0.865,0.1,2.943,0.288,4.28c-0.141,0.901,0.513,1.007,0.284,1.997C15.999,81.028,16.825,77.92,16.573,75.888z
			 M17.146,82.45c0.423,0.243,0.612,0.719,0.569,1.427C17.294,83.634,17.102,83.159,17.146,82.45z M22.278,75.317
			C22.311,75.663,21.867,75.494,22.278,75.317C22.006,74.133,23.132,75.26,22.278,75.317z M52.52,28.244h-2.28
			C50.199,27.034,52.471,27.22,52.52,28.244z M45.39,24.25c0.495-0.772,2.017,0.614,2.282,0c0.886,0.544-0.448,1.239-0.285,1.997
			c-0.173,1.027,0.87,0.841,0.856,1.711c-0.968-0.08-1.638-0.453-2.854-0.284C45.904,26.385,46.051,25.455,45.39,24.25z
			 M67.073,92.151c-0.211-0.779,0.565-0.576,0.567-1.142C68.336,91.188,67.795,92.45,67.073,92.151z M82.479,87.585
			c-0.679,0.464-1.642,0.643-2.284,1.141c-4.234-0.104-7.339,0.349-10.841-0.285c-0.388-0.941-0.57-2.089-1.713-2.282
			c-2.907-0.341-3.239,1.895-4.562,3.14c-0.885,0.066-1.11,0.794-1.711,1.142c-0.87-0.013-1.111,0.603-1.714,0.854
			c-1.142,0.569-2.28,1.143-3.421,1.712c-5.27,0.132-9.434-0.839-13.409-1.996c-1.264-0.12-2.004,0.283-2.568,0.854
			c-1.245-0.656-1.743-2.059-2.854-2.853c0.089-1.039-0.046-1.856-0.284-2.566c-0.451-0.691-1.021-1.262-1.71-1.713
			c-3.07-0.777-4.837,1.425-4.281,5.136c-0.441-0.606-1.03-1.062-1.426-1.711c0.292-0.751,0.341-1.752,0.284-2.854
			c0.186-1.525,0.923-2.499,1.142-3.993c-2.921-0.887-3.934,2.505-4.851,4.564c-0.854-0.479-1.354-1.306-1.996-1.997
			c-0.192-5.233,1.897-8.183,2.852-12.269c-0.819-0.736-1.682,0.215-2.283,0.57c-0.269,0.325-1.387,2.117-1.426,0.856
			c0.89-1.013,0.8-3.005,1.713-3.994c0.292-1.513,1.069-2.546,1.425-3.995c0.71-1.097,0.989-2.625,1.715-3.707
			c0.408-1.106,1.361-2.893,0.567-4.281c-2.95,0.095-3.726,2.361-4.849,4.281c-0.835-0.242,0.171-0.92,0-1.428
			c-0.045-0.71,0.448-0.883,0.57-1.426c0.153-1.083,0.892-1.582,0.855-2.853c0.425-0.241,0.413-0.919,0.572-1.427
			c0.422-0.242,0.611-0.719,0.568-1.426c0.538-0.699,1.077-1.395,1.142-2.568c-0.186-0.854-0.61,0.273-1.142,0
			c2.002-3.896,4.608-7.185,7.134-10.557c2.53-3.27,5.526-6.074,7.703-9.699c0.484,0.012,0.739-0.212,0.856-0.57
			c2.659,0.382,5.221,0.863,7.701,1.426c1.089,0.34,2.476,0.378,3.425,0.858c1.124,0.204,2.31,0.351,3.139,0.854
			c0.634-0.222,1.114-0.601,1.998-0.571c2.212,1.115,3.573,3.082,5.703,4.279c0.655,1.725,2.486,2.271,3.139,3.995
			c1.783,0.593,2.215,2.54,3.707,3.423c0.118,1.121,1.257,1.22,1.431,2.283c0.583,0.557,0.935,1.346,1.425,1.997
			c0.96,1.321,1.726,2.839,2.567,4.28c0.964,1.414,1.565,3.188,2.567,4.564c-0.109,1.248,0.814,1.465,0.858,2.566
			c0.765,0.379,0.481,1.801,1.14,2.282c0.189,2.187,1.516,3.238,1.428,5.706c0.612,1.67,0.351,4.215,0.855,5.992
			C83.11,78.136,83.96,84.028,82.479,87.585z M55.375,59.056c-1.824,0.113-2.594-0.828-4.565-0.57
			c-0.096-1.9-1.084-2.908-1.14-4.851c-0.839-0.114-0.23-1.673-0.857-1.997c-0.281-0.762-0.589-1.504-0.569-2.566
			c3.319-0.582,8.179,0.379,8.273-3.424c-0.832-3.01-7.209-2.089-9.986-1.427c-0.427-1.188-0.32-2.912-1.712-3.138
			c-0.062-0.223-0.239-0.332-0.571-0.286c-0.304,0.646-0.647,1.256-1.141,1.712c0.004,1.234,0.663,1.811,0.572,3.139
			c-0.542,0.315-1.347,0.363-2,0.57c-0.906-1.47-0.486-4.267-2.566-4.565c-0.636,0.6-1.522,0.95-1.424,2.282
			c0.149,1.18,0.415,2.246,0.567,3.425c-0.865,1.32-2.242,2.132-3.423,3.138c-0.362,0.969-0.852,1.81-1.427,2.568
			c-0.05,0.426,0.101,1.053-0.283,1.141v4.279c0.313,0.539,0.71,1,0.853,1.713c2.101,1.703,5.132,2.477,8.562,2.853
			c0.809,2.232,1.39,4.696,2.281,6.846c0.582,2.556,1.886,4.392,2.284,7.133c-3.11,0.808-6.58,0.595-9.414-0.285
			c-0.737,1.231-0.575,2.692,0,3.994c1.763,2.634,8.121,2.259,11.124,1.427c1.186,0.525,0.998,2.427,3.139,1.998
			c0.568-1.336,0-3.806,1.998-3.709c1.356,0.639,1.27,2.723,1.996,3.994c0.467,1.529,0.666,3.328,2.569,3.423
			c1.479-3.03-0.509-6.435-0.858-9.415c1.067-0.74,2.122-1.492,3.14-2.282c0.644-1.069,1.172-2.251,1.995-3.139
			c-0.131-1.653,0.478-2.567,0.571-3.994C62.807,63.606,58.899,61.523,55.375,59.056z M43.107,51.353
			c0.427-0.334,1.166-0.355,1.428-0.855c0.33-0.046,0.51,0.062,0.57,0.286c0.446,2.785,1.701,4.763,1.713,7.987h-1.999
			C44.541,56.005,43.223,54.28,43.107,51.353z M51.096,75.888c-1.216-1.256-1.608-3.336-2.283-5.135
			c-0.589-1.882-1.476-3.468-1.71-5.707c-0.337-0.045-0.24-0.52-0.285-0.854c0.671,0.09,1.069,0.449,1.995,0.285
			c1.219,3.631,2.601,7.102,3.707,10.84C52.014,75.477,51.339,75.465,51.096,75.888z M56.517,73.321
			c-0.886-0.066-0.891-1.012-1.142-1.713c-0.572-0.379-0.636-1.266-0.856-1.996c-0.605-1.201-0.805-2.807-1.425-3.994
			c-0.054-0.244,0.11-0.27,0.284-0.285c1.785,0.4,3.464,0.91,4.85,1.713C59.484,69.28,58.188,72.295,56.517,73.321z"/>
	</g>
</g>
<g>
</g>
<g>
</g>
<g>
</g>
<g>
</g>
<g>
</g>
<g>
</g>
<g>
</g>
<g>
</g>
<g>
</g>
<g>
</g>
<g>
</g>
<g>
</g>
<g>
</g>
<g>
</g>
<g>
</g>
</svg>
