<?xml version="1.0" encoding="iso-8859-1"?>
<!-- Generator: Adobe Illustrator 19.0.0, SVG Export Plug-In . SVG Version: 6.00 Build 0)  -->
<svg version="1.1" id="Capa_1" xmlns="http://www.w3.org/2000/svg" xmlns:xlink="http://www.w3.org/1999/xlink" x="0px" y="0px"
	 viewBox="0 0 101.845 101.845" style="enable-background:new 0 0 101.845 101.845;" xml:space="preserve">
<g id="image2_1_">
	<g>
		<path style="fill-rule:evenodd;clip-rule:evenodd;" d="M98.39,86.663c-0.14-9.092,0.315-18.773-0.296-27.391
			C97.802,55,97.017,51.217,97.2,46.47c0.238-2.407-0.424-4.525,0-6.251c0.41-1.221-0.721-2.431,0-2.977
			c0.403-1.304,0.038-1.531-0.3-2.679c-0.612-0.774-1.322-1.453-2.68-1.489c-0.649-0.738-1.624-1.15-2.378-1.786
			c-1.896-0.882-3.306-2.252-5.064-3.275c-1.452-1.322-3.227-2.326-4.463-3.87c-1.767-1.109-2.99-2.764-5.062-3.573
			c-1.504-1.276-3.072-2.482-4.761-3.573c-1.337-1.444-3.366-2.191-5.064-3.273c-1.646-1.132-3.651-1.906-5.061-3.275
			c-1.894-0.984-4.245-1.51-5.358-3.275c0.029-2.012,0.144-4.111-0.594-5.358c-1.135-0.952-2.163-2.006-4.465-1.788
			c-0.402,0.096-0.571,0.426-1.19,0.298C47.896,2.13,45.909,4.81,45.1,8.664c-1.613,1.263-3.525,2.227-5.357,3.273
			c-4.398,4.236-9.522,7.749-14.887,11.016c-5.357,3.275-9.999,7.268-15.482,10.421c-1.43,0.604-2.538-0.318-3.868,0.297
			C3.958,36.79,3.676,41.167,3.422,45.58C3.884,61.886,3.75,78.789,4.314,94.997c-0.355,2.54,0.58,3.789,1.491,5.062
			c1.241,0.572,1.63,0.468,2.976,0c0.774,0.615,2.148,0.631,3.573,0.597c7.948,0.686,17.162,0.105,25.602,0.297
			c1.557-0.229,3.083-0.489,4.763-0.596c2.646,0.335,5.614,0.341,8.633,0.299c1.329,0.257,2.438,0.737,3.868,0.893
			c2.765-0.182,4.931,0.232,7.443,0.297c4.305-0.265,8.256-0.877,12.803-0.893c4.243,0.423,9.043,0.284,13.694,0.297
			c2.318-0.86,5.422-0.929,8.04-1.49c0.235-1.265,0.5-2.658,0.596-4.168c0.1-1.58-0.075-3.178,0-4.763
			C97.993,89.439,98.261,88.123,98.39,86.663z M48.077,5.389c0.565-0.661,1.327-1.683,2.383-2.085
			c0.389-0.146,1.317-0.368,1.787-0.295c0.049,0.005,1.182,0.642,1.488,0.891c0.388,0.314,0.619,0.851,0.893,1.191v2.679
			c-0.789,1.421-2.87,2.685-4.763,2.085c0.066,0.023-0.565-0.279-0.594-0.297C48.16,8.776,47.969,7.619,48.077,5.389z
			 M23.367,27.716c2.752-1.714,5.507-3.425,8.336-5.061c2.659-1.807,5.188-3.742,7.742-5.658c2.013-2.452,5.154-3.776,8.039-5.357
			c1.598,0.387,2.869,1.1,5.058,0.892c1.69-0.199,2.442-1.334,3.276-2.381c0.254-0.054,0.283,0.116,0.297,0.297
			c2.361,2.305,4.765,4.563,8.041,5.955c3.301,1.26,5.857,3.27,8.633,5.061c2.773,1.791,5.482,3.647,8.038,5.655
			c2.148,2.418,5.175,3.957,8.036,5.657c-0.414,0.68-2.073,0.112-2.976,0.298h-8.933c-3.75-0.517-8.339-0.195-11.908-0.893
			c-5.672,0.321-10.867-0.429-16.669,0c-3.017,0.222-8.298-0.207-12.206,0.297c-1.093-0.194-1.145,0.646-2.083,0.596H15.031
			C17.734,31.212,20.744,29.656,23.367,27.716z M9.971,36.052c7.688,0.65,16.541,0.132,24.711,0.297
			c5.216-0.489,11.444-1.386,16.969-0.594c6.319-0.025,11.112-0.09,16.373,0.594c5.022-1.229,12.518,0.017,17.267-1.488
			c2.042-0.056,3.729,0.24,4.466,1.488h2.381c1.217-0.14,0.045,0.801-0.295,0.894c-0.528,0.268-0.872,0.719-1.49,0.894
			c-0.665,0.822-1.87,1.107-2.38,2.083c-1.148-0.24-1.449-1.329-2.979-1.19c-22.598-0.271-43.725,0.931-65.793,1.19
			c-1.347,0.538-3.858-0.087-4.764,0.893c-1.472-0.214-1.405-1.969-2.379-2.678c-0.511-0.383-1.171-0.616-1.193-1.488
			C10.283,37.086,9.341,36.143,9.971,36.052z M84.396,89.936c-9.751,0.977-19.126-0.615-29.176-0.298
			c-6.072-0.671-12.07-1.423-19.05-1.19c-6.143,0.506-12.188,1.109-19.055,0.894c0.149-4.414-0.401-8.132-0.894-11.909V59.868
			c0-5.717-0.349-11.474,0-16.67c-0.022-0.422-0.045-0.844,0.297-0.895c22.397,1.062,44.497-0.002,68.177,0.3
			c0.019,8.005,0.668,15.991,0,23.816C83.948,74.268,84.821,81.96,84.396,89.936z M7.589,37.838c-0.056,0.337-0.3,0.164-0.296,0
			C7.348,37.501,7.592,37.674,7.589,37.838z M8.483,94.104c-0.856,0.035-0.518,1.27-1.49,1.192c-0.406-1.975-0.293-4.47-0.297-6.849
			c0.503-0.927-0.084-3.001,0.597-3.871c0.165-0.209,0.608-0.201,0.596-0.595c0.14-1.134-1.38-0.606-0.896-2.084
			c0.54-14.146,0.163-29.209,1.192-42.869c0.25-0.055,0.281,0.116,0.297,0.298c0.954,0.533,1.017,1.96,1.788,2.679
			c0.236,1.25,1.593,1.382,1.787,2.678c-1.184,0.902-0.208,3.963-0.895,5.359c-0.037,8.528-0.432,16.056,0,24.413
			c0.735,4.621,0.989,9.727,0.895,15.181c-0.145,1.646-1.512,2.062-2.383,2.978C9.474,93.307,8.685,93.413,8.483,94.104z
			 M74.874,97.38c-4.671,0.872-9.646,1.006-14.891,0.595c-5.116-0.402-10.368-0.224-15.476,0c-2.996,0.132-5.842-0.4-8.636,0
			c-1.365,0.275-1.439-0.744-2.678-0.595c-7.582,0.257-15.577,0.1-22.922,0.595c0.491-1.394,1.663-2.105,2.382-3.274
			c1.135-0.649,1.625-1.947,2.976-2.381c2.294,0.283,4.529,0.628,6.848,0.893c5.072-0.202,10.405-0.297,15.774-0.297
			c5.41,0,10.671,0.08,15.482,0c4.9-0.542,10.333-0.299,15.779-0.299c5.357,0,10.661,0.229,15.48-0.296
			c0.166-0.43,0.461-0.728,0.893-0.893c0.238,0.055,0.297,0.297,0.594,0.295c1.065,0.919,2.148,1.824,2.979,2.979
			c0.686,0.315,1.03,0.938,1.488,1.489c0.39,0.469,1.108,1.046,1.19,1.786C87.102,97.057,80.733,97.471,74.874,97.38z
			 M94.521,85.174c-0.411,2.566-0.487,5.469-0.895,8.038c0.051,1.303-1.004-0.279-1.191-0.596c-0.871-0.019-1.104-0.68-1.488-1.189
			c-1.323-0.467-2.255-1.319-3.276-2.085c0.184-4.579,0.205-9.324,0.598-13.696c-0.344-8.748-1.313-19.495,0-27.983
			c-0.024-1.267-0.497-2.083-0.297-3.573c0.304-1.282,1.508-1.667,2.678-2.083c0.562-1.025,1.824-1.351,2.678-2.085
			c0.267-0.131,0.532-0.261,0.595-0.594c0.251-0.056,0.286,0.115,0.296,0.297c0.403,5.433-1.024,11.782,0.302,16.969V85.174z
			 M28.132,59.571c0.238,1.447,1.583,1.792,2.381,2.678c1.461,0.41,3.598,0.41,5.061,0c2.262-1.178,4.123-5.012,3.276-8.631
			c-0.012-0.051-0.242-0.082-0.3-0.299c-0.224-0.891-0.52-0.626-0.595-1.488c-1.596-1.58-3.952-2.401-7.442-2.083
			c-0.183,0.015-0.353,0.043-0.298,0.296h-0.594c-0.926,0.466-1.563,1.218-2.383,1.787c-0.564,1.423-1.315,2.657-1.192,4.763
			C26.457,57.871,27.02,58.995,28.132,59.571z M34.682,52.724c1.225,0.782,2.063,1.946,2.083,3.274
			c0.019,1.156-0.558,1.75-1.191,2.381c-0.196,0.196-0.372,0.76-0.594,0.893c-1.16,0.686-3.126,0.759-4.466,0.298
			c-0.47-0.821-0.83-1.75-1.191-2.68C29.355,53.748,30.935,52.153,34.682,52.724z M80.827,79.518
			c-0.588-0.505-0.802-1.385-0.894-2.382c-2.81-2.748-3.969-7.145-7.145-9.526c-1.042-1.738-2.464-3.094-3.574-4.765
			c-1.238-1.539-1.213-4.343-3.869-4.464h-0.299c-0.44,0.154-0.749,0.441-1.19,0.596c-1.596,1.775-2.834,3.911-4.168,5.954
			c-1.577,1.895-2.661,4.285-4.467,5.954c-1.417-0.964-2.197-2.564-4.165-2.978c-1.782-0.189-4.132,0.139-4.764,0.297
			c-0.382,0.096-0.631,0.23-0.892,0.298c-0.761,0.189-0.793,0.38-1.19,0.596c-0.324,0.172-0.634,0.143-0.896,0.296
			c-2.626,1.553-3.971,3.599-5.061,6.251c-1.137-0.749-1.982-1.786-3.869-1.786c-3.869,0.199-6.118,2.019-8.633,3.574
			c-2.02,2.047-4.618,3.518-5.356,6.848c0.715,0.686,0.453,0.96,0.295,2.083c3.739-0.084,7.515,0.767,11.015,0
			c13.413-0.675,28.793,0.611,40.787-1.488h5.954c0.729-0.56,1.455-1.122,2.679-1.191C80.831,82.489,80.755,81.072,80.827,79.518z
			 M21.282,85.471c-0.262-0.955,0.984-0.41,0.896-1.19c0.956-0.262,0.411,0.98,1.189,0.893
			C23.24,85.838,21.901,85.294,21.282,85.471z M25.155,83.982c-1.124-0.312-0.873-1.346-0.299-2.084
			C25.523,82.027,24.978,83.367,25.155,83.982z M28.132,80.113c0.299-0.004,0.217-0.371,0.295-0.595
			c0.189-0.538,0.304-0.519,0.598-0.895c0.346-0.047,0.529,0.065,0.596,0.299c-0.159,2.142,0.087,3.881,0.594,5.358
			C27.574,84.835,28.192,82.134,28.132,80.113z M32.894,83.982c-0.706-0.187,0.047-1.831-0.592-2.084v-4.763
			c0.907,0.216,0.872-0.514,1.785-0.298C33.081,78.69,33.111,82.214,32.894,83.982z M37.065,83.386
			c-1.326-0.263-0.763-2.413-0.895-3.868c-0.159-0.241-0.312-0.484-0.3-0.895c0.816-0.216,0.599,0.593,1.194,0.595
			C36.117,80.522,37.617,82.575,37.065,83.386z M39.743,81.304v-1.191c0.07-0.921,0.827-1.156,1.188-1.785
			c0.047-0.741-0.153-1.237-0.595-1.49c-0.09-0.687,0.863-0.33,0.895-0.893c0.696,0.075,0.171,1.307,0,1.488v3.275
			c0.23,0.763,0.297,1.688,0.893,2.083C40.898,83.9,39.987,82.161,39.743,81.304z M45.1,81.898
			C45.991,81.96,44.816,83.135,45.1,81.898c-1.478-1.1-1.261-3.897-1.788-5.953c0.052-0.746-0.454-0.931-0.891-1.191
			c0.833-1.053,1.812-1.958,3.273-2.381C44.594,74.962,44.3,78.996,45.1,81.898z M65.046,63.442
			c0.675,0.915,1.508,1.671,1.787,2.977c-1.849,0.633-2.83,2.133-3.87,3.573c-0.678-0.217-0.89-0.896-1.19-1.489
			C62.605,66.558,64.062,65.233,65.046,63.442z M65.345,79.218c-0.905,0.014-1.159-0.628-1.785-0.891
			c0.451-0.838,1.41-1.172,1.188-2.683c0.536-0.034,0.629,0.367,1.194,0.3C65.972,77.267,65.106,77.692,65.345,79.218z
			 M59.983,70.287c0.591,1.099,1.619,1.76,1.494,3.572c-0.589-0.205-0.796-0.792-0.895-1.487
			C60.282,71.74,59.262,71.046,59.983,70.287z M59.095,75.348c0.346,0.051,0.32,0.471,0.297,0.893c0.89,0.061-0.285,1.239,0,0
			C59.045,76.192,59.068,75.772,59.095,75.348c-0.646,0.053-0.135-1.054-0.298-1.489C59.441,73.809,58.931,74.917,59.095,75.348z
			 M58.498,72.075c0.25-0.946,0.392,0.527,0.299,0.893C58.548,73.913,58.402,72.44,58.498,72.075z M69.513,82.196
			c-5.938,1.307-13.698,0.794-20.841,0.895c0.615-0.833-0.375-2.047-0.595-2.978c0.387-2.619-0.676-5.209,0-7.146
			c0.343-0.872-1.428-1.106-0.593-1.49c2.863-0.483,3.877,0.886,4.762,2.381c0.174,1.269-0.214,1.97-0.297,2.979
			c0.424,2.354,0.105,5.45,2.678,5.658c2.684-0.796,0.557-4.174,0.593-6.55c1.003-0.108,0.499,1.29,0.895,1.785
			c0.285,0.609,0.609,1.178,0.894,1.788c0.653,0.836,1.189,1.789,2.679,1.787c0.956-0.04,1.311-0.676,1.192-1.787
			c-0.36,0.031-0.185-0.434,0,0c1.073,0.713,1.691,1.881,3.275,2.083c0.935,0.141,1.216-0.371,1.488-0.893
			c0.966,0.173,1.385-0.204,2.085-0.298c0.248-0.742,0.387-1.595,0.295-2.68c0.443-0.45,0.481-1.306,0.597-2.085
			c0.408-0.414,0.641-1.467,0.297-1.786c-0.385-0.83-1.419,0.138-1.491,0.598c-0.886-0.006-1.01-0.774-1.784-0.895
			c0.395-2.185,1.394-3.767,2.085-5.656c0.969-0.08,0.632,1.154,1.486,1.191c-0.052,1.044,1.008,0.977,1.191,1.786
			c0.921,1.064,1.902,2.069,2.383,3.573c-2.671,0.107-2.694,2.864-3.871,4.465v2.083C68.831,81.53,70.318,81.928,69.513,82.196z
			 M74.275,81.601c-0.127,0.665-1.467,0.12-2.084,0.297c0.733-0.896,0.384-1.329,0.3-2.68c0.241-1.243,0.579-2.396,0.594-3.871
			c0.916,0.473,0.939,1.84,1.789,2.382C74.228,78.389,73.472,80.488,74.275,81.601z M77.551,81.898h-1.487v-2.084
			c0.954-0.262,0.408,0.981,1.189,0.894C77.42,81.315,78.148,81.292,77.551,81.898z M50.459,75.348h-0.894
			c-1.726,2.592-0.022,8.687,2.976,6.55c-0.195-0.994-0.925-1.455-1.19-2.38C50.96,78.225,51.267,76.23,50.459,75.348z"/>
	</g>
</g>
<g>
</g>
<g>
</g>
<g>
</g>
<g>
</g>
<g>
</g>
<g>
</g>
<g>
</g>
<g>
</g>
<g>
</g>
<g>
</g>
<g>
</g>
<g>
</g>
<g>
</g>
<g>
</g>
<g>
</g>
</svg>
