<?xml version="1.0" encoding="iso-8859-1"?>
<!-- Generator: Adobe Illustrator 19.0.0, SVG Export Plug-In . SVG Version: 6.00 Build 0)  -->
<svg version="1.1" id="Capa_1" xmlns="http://www.w3.org/2000/svg" xmlns:xlink="http://www.w3.org/1999/xlink" x="0px" y="0px"
	 viewBox="0 0 110 110" style="enable-background:new 0 0 110 110;" xml:space="preserve">
<g id="pipe_1_">
	<g>
		<path style="fill-rule:evenodd;clip-rule:evenodd;" d="M17.619,37.542c-0.426,1.747-2.156,2.193-1.954,4.568
			c0.542,0.654,0.873,1.519,1.954,1.632c1.848,0.322,1.81-1.234,2.941-1.632c0.605-1.023,0.991-2.268,1.627-3.265v-5.221
			c-0.271-0.377-0.428-0.874-0.325-1.631c-0.886-1.642-1.499-3.252-2.281-4.894c-0.726-1.515-1.988-3.08-1.961-5.222
			c0.698-1.476,2.072-2.278,3.592-2.937c0.473-1.274,2.5-1.043,3.262-1.63c0.286-0.222,0.251-0.865,0.653-0.979
			c-0.022-1.607-1.343-1.922-2.609-2.284c-3.617,1.17-6.727,2.846-8.813,5.546c-0.317,1.312-0.399,2.861-0.323,4.568
			C14.886,28.53,18.058,31.233,17.619,37.542z M26.433,41.459c0.468,0.182,0.797,0.509,0.977,0.979
			c3.618-0.189,5.39-2.228,6.201-5.224c0.1-3.364-1.69-4.836-1.632-8.157c-0.173-1.585,1.388-1.439,1.305-2.935
			c-0.625-1.124-1.702-1.961-3.263-1.633c-0.089,0.018-0.512,0.604-0.652,0.651c-0.195,0.065-0.454-0.049-0.651,0
			c-0.601,1.468-0.875,3.264-0.979,5.224c0.464,1.926,0.826,3.956,0.979,6.2C27.953,38.194,26.145,38.777,26.433,41.459z
			 M3.588,36.89c0.586,1.153,2.049,1.433,2.61,2.611c0.479,1.59,0.7,3.429,2.938,3.262c1.377,0.071,1.15-1.461,1.957-1.957
			c0.39-3.76-1.929-4.813-2.938-7.181c0.722-0.475,0.646-1.746,1.632-1.956c0.781-0.415,1.331-1.065,1.306-2.284
			c-0.397-1.965-3.347-2.539-4.566-1.958c-0.158,0.074-0.208,0.523-0.654,0.325c-1.628,1.962-3.363,3.812-2.938,7.832
			C3.376,35.8,3.541,36.281,3.588,36.89z M108.337,42.439c-2.895-1.515-9.255-1.114-13.053-0.654
			c-5.873-0.214-10.803,0.509-15.663,1.305c-2.604,1.532-5.86,2.406-7.833,4.567c-1.585,0.481-2.335,1.799-3.591,2.613
			c-1.219,0.844-2.023,2.108-3.261,2.937c-3.003,3.956-5.962,7.961-9.788,11.093c-2.9,4.064-6.733,7.191-12.076,8.812
			c-1.748-0.644-4.871,0.084-5.872-1.306c0.163-2.556-0.177-4.611-0.326-6.853c-0.849-2.85-1.584-5.817-2.285-8.812
			c-0.363-1.483-0.767-2.932-0.979-4.568c-0.796-1.165-0.206-2.354-0.98-3.917c-1.289-0.339-1.919-1.34-3.588-1.304
			c-1.888,0.255-2.79-0.473-4.569-0.327c-1.678-0.605-3.585-0.982-5.548-1.305c-5.703-0.049-11.18,0.13-15.337,1.632
			c-1.405,1.206-2.212,3.007-3.261,4.568C0.693,56.522,0.164,60.351,0,65.932c0.332,1.299,0.475,2.787,0.65,4.24
			c0.576,0.627,0.692,1.701,0.979,2.613c0.764,0.542,0.842,1.771,1.307,2.609c1.123,1.489,1.81,3.412,2.612,5.221
			c1.289,1.539,3.183,2.47,3.916,4.569c1.378,1.558,2.718,3.157,3.916,4.894c1.081,0.115,1.415,0.978,1.959,1.632
			c2.609,1.086,4.595,2.799,7.83,3.264c2.812,0.992,7.121,0.492,10.442,0.979c0.42-0.45,1.421-0.321,2.283-0.325
			c5.327-1.745,9.769-4.372,14.683-6.527c4.456-2.612,7.74-6.402,12.074-9.137c5.238-5.858,10.91-11.281,15.338-17.947
			c2.602-1.533,4.662-3.602,7.504-4.896c2.183-0.539,3.861-1.579,6.525-1.63c0.79-0.627,2.625-0.207,3.917-0.327
			c1.448,0.033,1.915-0.914,3.589-0.651h5.222c2.199,0.35,2.883-0.818,4.244-1.306c0-1.091,1.059-1.115,0.979-2.285v-3.265
			C110.185,45.154,109.255,43.799,108.337,42.439z M9.137,50.27c1.332-0.1-0.054,0.451,0.327,1.304
			c-0.278,1.041,0.513,1.01,0.654,1.633c5.585-0.571,12.056-0.403,16.964,0.653c-0.561,1.067-1.881,1.38-2.609,2.282
			c-6.512,0.205-10.6-2.017-16.966-1.957c0.031-1.335-0.045-2.568-1.309-2.611C6.665,50.623,8.132,50.678,9.137,50.27z
			 M86.472,50.595c-1.477,0.044-2.245,0.798-3.59,0.979c-1.481,0.804-2.881,1.686-4.24,2.611c-1.319,0.856-2.366,1.984-3.916,2.609
			c-2.851,3.023-5.174,6.572-7.832,9.792c-2.893,2.979-5.768,5.978-8.483,9.136c-2.798,1.769-5.492,3.644-7.506,6.198
			c-1.598,0.471-2.43,1.705-3.913,2.285c-1.251,0.82-2.745,1.391-3.919,2.284c-2.688,1.335-5.515,2.533-8.483,3.589h-6.526v-2.936
			c0.083-0.954-0.616-1.127-0.98-1.632c-1.711,0.463-1.515,2.839-2.609,3.915c-1.609-0.021-2.714-0.549-3.587-1.306
			c0.203-3.733,3.945-5.591,2.936-9.463c-2.63-0.128-2.899,2.106-4.571,2.937c-0.649,1.414-1.71,2.423-2.28,3.917
			c-1.329-0.658-2.118-1.935-0.655-2.938c0.32-1.423,1.13-2.349,1.634-3.59c0.92-0.816,1.034-2.444,1.957-3.261
			c0.462-0.979,1.508-2.653,0.654-3.916c-2.864,0.154-3.829,2.601-5.875,3.916c-0.304,0.892-1.003,1.392-1.305,2.282
			c-0.767,0.32-0.543,1.635-1.632,1.633c-0.049-1.151-0.936-1.459-0.981-2.61c0.079-1.481,1.237-2.646,1.962-3.915
			c1.018-1.79,2.722-3.76,3.586-6.203c-1.729-0.853-3.313,0.954-4.567,1.635c-0.683,0.404-1.23,0.948-1.63,1.629
			c-0.684,0.004-1.227,1.779-1.636,0.982c0.208-2.432,3.058-3.506,2.284-5.876c-0.591-1.511-2.782-0.87-3.914-0.325v-4.569
			c5.574,1.062,12.599,0.671,18.929,0.979c1.691-0.701,2.981-1.804,4.239-2.936c0.656,0.975,0.683,2.58,0.979,3.917
			c0.569,1.059,0.408,2.855,0.979,3.913c-0.086,2.915,0.01,5.648,0.651,7.832c0.114,0.43,0.573,0.514,0.653,0.979
			c2.151,2.744,6.602,3.188,11.749,2.936c2.354-0.799,4.425-1.88,6.524-2.936c5.386-3.86,9.634-8.857,14.034-13.706
			c1.864-2.704,4.039-5.096,6.524-7.178c2.253-2.317,5.423-3.718,8.157-5.546c1.566-0.068,2.39-0.875,4.246-0.655
			c0.766-0.104,1.226-0.514,2.284-0.327c0.57,0.189,1.915-0.392,1.956,0.327C89.392,50.246,87.321,49.812,86.472,50.595z
			 M94.305,48.962c-1.095,0.336-0.508-1.015-0.653-1.631h0.979C94.451,47.807,95.014,49.019,94.305,48.962z"/>
	</g>
</g>
<g>
</g>
<g>
</g>
<g>
</g>
<g>
</g>
<g>
</g>
<g>
</g>
<g>
</g>
<g>
</g>
<g>
</g>
<g>
</g>
<g>
</g>
<g>
</g>
<g>
</g>
<g>
</g>
<g>
</g>
</svg>
