<?xml version="1.0" encoding="iso-8859-1"?>
<!-- Generator: Adobe Illustrator 19.0.0, SVG Export Plug-In . SVG Version: 6.00 Build 0)  -->
<svg version="1.1" id="Capa_1" xmlns="http://www.w3.org/2000/svg" xmlns:xlink="http://www.w3.org/1999/xlink" x="0px" y="0px"
	 viewBox="0 0 100 100" style="enable-background:new 0 0 100 100;" xml:space="preserve">
<g id="_print_1_">
	<g>
		<path style="fill-rule:evenodd;clip-rule:evenodd;" d="M99.925,72.726v-21.06c0.147-0.95-0.542-1.064-0.302-2.108
			c0.329-7.044-1.096-12.339-2.406-17.748c-0.236-0.065-0.35-0.251-0.3-0.602c-1.298-1.512-3.465-2.151-5.114-3.309
			c-3.235-0.173-6.178-0.642-8.726-1.503h-3.911V16.167c0.204-4.216,1.386-9.609,0.603-12.935c-1.253-1.255-3.407-1.61-5.416-2.11
			c-11.39,0.345-24.294-0.827-34.295,0.906C34.191,2.077,28.4,2.203,23.209,2.93c-1.691,0.259-1.856-1.478-3.309-0.6
			c-0.792,1.009-0.873,2.737-0.901,4.512v5.714c0.694,4.418,0.266,9.966,1.503,13.84c-1.923,0.382-4.251,0.362-6.016,0.902
			c-0.731-0.473-1.283-1.122-2.708-0.902c-3.163,0.947-5.033,3.19-7.22,5.116c-0.201,1.302-1.391,1.612-1.504,3.007
			c-0.744,0.76-1.063,1.947-1.805,2.706C-0.257,49.126-0.33,64.253,0.649,76.032c0.897,0.51,0.809,1.999,1.203,3.011
			c3.054,0.653,7.286,0.133,10.828,0.299c1.564-0.544,3.98-0.232,4.213-2.108c0.259-1.36-0.334-1.871-1.203-2.106
			c-0.191-1.109,0.939-2.069-0.604-2.103c-1.271-0.075-0.528,1.875-1.803,1.803c-1.019-0.394-2.097,0.67-2.406,0
			c0.315-1.753,2.079-3.452,1.502-5.114c-1.81,0.194-2.218,1.79-3.307,2.707c-0.403,1.602-1.034,2.979-3.01,3.011
			c1.158-2.353,2.498-4.523,3.01-7.522c-1.095-0.557-1.87,0.369-2.407,1.201c-0.406,0.297-0.6,0.808-0.902,1.206
			c-0.177,0.267-0.633,1.715-0.904,0.903c-0.315-3.326,1.177-4.842,1.807-7.223c0.521-2.124,2.716-4.049,2.107-6.317
			c-0.933-0.447-1.66,0.089-2.405,0.602c-0.861-0.035-0.99,2.197-1.808,1.206C4.982,55.4,7.237,53.14,7.87,49.261
			c-0.633-0.638-1.174,0.352-1.807,0.6c-0.371,0.261-0.833,1.938-1.204,1.203c-0.288-4.804,0.442-8.585,1.204-12.334
			c2.022-1.89,3.239-4.581,6.016-5.716c2.599-0.513,5.986-0.233,9.028-0.301c1.024-0.38,2.283-0.52,3.308-0.903
			c4.519-0.395,9.521-0.307,14.441-0.298c3.264-1.198,8.85-0.3,12.034-0.304c1.956-0.003,3.665-0.466,5.713-0.299
			c5.443,0.445,12.281,0.045,16.546,1.203h8.424c2.823,0.586,4.841,1.981,8.124,2.105c1.777,1.931,2.62,4.8,3.007,8.123
			c0.324,10.704,0.103,21.96,0.904,32.188h-4.513c-2.289,0.719-6.653-0.634-6.317,2.706c0.931,1.878,4.236,1.378,6.92,1.506
			c1.563,0.442,3.731,0.28,5.715,0.303c1.343,0.09,2.712,0.618,3.913,0C100.313,77.233,99.925,74.882,99.925,72.726z M77.963,7.442
			c0,1.3-0.7,1.908-0.599,3.309c-0.779,1.73-0.404,4.613-0.904,6.621c-0.181,2.925,0.373,6.59-0.305,9.024
			c-2.692-0.315-5.56-0.458-7.818-1.203C53.513,24.76,37.61,25.442,22.91,26.095c0.056-0.949,0.987-1.018,2.107-0.902
			c0.696-0.205,0.803-1.001,1.501-1.204c-0.045-5.671-0.994-10.439-1.203-15.945h6.018c5.466-0.653,11.487-0.75,17.147-1.203H61.72
			c4.945-0.213,9.588-1.84,14.435-1.204c0.449-0.158,0.761-0.447,1.209-0.604h0.299c1.041-0.261,1.029,0.464,0.6,0.905
			C78.361,6.636,78.217,7.092,77.963,7.442z M86.99,42.341c0.43-0.277,0.889-0.692,0.9-0.905c0.019-0.329,0.233-0.154,0.301-0.298
			c0.494-1.045,0.243-2.661,0.301-4.213c-1.989-2.526-7.056-1.112-7.521,2.106C80.932,42.818,85.007,43.611,86.99,42.341z
			 M76.761,38.127c-2.79-0.933-2.916,2.803-1.804,3.912C77.976,42.838,78.241,39.282,76.761,38.127z M79.467,57.681
			c-0.122-0.512-0.385,0.064-0.904,0c-0.335,0.064-0.464,0.337-0.6,0.602c-3.911-0.875-8.559,0.047-12.035,0.602
			c-15.161-0.019-30.358-0.073-45.123,0.302c-0.564,1.241-2.026,1.586-2.107,3.311c-0.678,0.22-0.117,1.687-0.299,2.404v3.01
			c0.236,3.472,0.454,6.967,0.6,10.529c0.347,3.363,0.516,6.902,0.602,10.528c-0.092,1.896,0.045,3.564,0.3,5.114
			c-0.819,1.883,0.367,2.858,0.602,4.514c6.738,1.033,13.247-0.528,19.858-0.602c2.195-0.091,3.678,0.53,6.015,0.301
			c1.729,0.123,1.974-1.24,3.61-1.205c5.809-0.207,11.504-0.528,16.544-1.505c2.595-0.015,5.494,0.278,6.92-0.903
			c1.454-0.25,0.518-2.893,1.506-3.61c1.282-0.821,2.023-2.181,3.307-3.006c0.601-1.604,2.795-1.617,3.01-3.611
			c0.315-9.641-0.597-18.057-1.203-26.774H79.467z M76.46,84.157c-0.109,0.393-0.53,0.473-0.604,0.901
			c-0.792,0.312-1.012,1.192-1.804,1.505c-0.49,1.212-1.114,2.293-2.104,3.008c0.142,0.945-0.812,0.796-0.904,1.502
			c-0.13,0.675-1.485,0.124-2.107,0.303c-0.442-2.666-0.627-5.59-1.201-8.123c3.24-0.229,5.559,0.46,8.724,0.303
			C77.449,83.335,76.921,84.152,76.46,84.157z M65.328,80.246c-1.93,2.715-0.265,7.536-0.299,11.129
			c-4.861-0.151-9.588-0.444-14.741-0.303c-5.71,0.713-10.88,1.961-17.451,1.807c-2.986-0.525-6.341-0.675-9.024-1.504
			c-0.694-4.421-0.105-10.119-0.3-15.04c-0.889-4.126-0.238-9.791-0.903-14.14h44.522c1.486-0.32,3.149-0.463,4.514-0.903h6.018
			c0.281,6.237,0.529,12.502,0.899,18.652C74.32,79.986,68.957,78.933,65.328,80.246z M34.944,69.112h8.123
			c0.949-0.145,1.06,0.545,2.104,0.303H58.11c1.161-0.441,2.987-0.217,4.209-0.603h3.609c0.755-0.551,2.479-0.131,2.409-1.503
			c-0.457-2.453-4.127-1.691-6.922-1.807c-0.382,0.018-0.414,0.389-0.9,0.304c-9.879,0.346-19.516,0.941-29.482,1.202
			c-1.12,0.185-3.178-0.568-3.009,0.904C29.245,69.703,32.3,69.112,34.944,69.112z M67.132,71.822
			c-0.438-0.466-1.538-0.264-2.407-0.302c-1.062,0.344-2.473,0.334-3.609,0.602h-5.713c-4.001,0.515-8.463,0.567-12.336,1.205
			c-2.146,0.161-4.269,0.345-6.319,0.602c-1.694,0.612-4.831-0.222-5.114,1.804c0.624,1.383,2.825,1.189,4.814,1.203
			c2.243,0.237,3.59-0.422,5.717-0.3c3.544-0.568,7.529-0.694,11.13-1.202h6.919c1.56-0.347,3.329-0.484,5.114-0.604
			c0.921-0.983,3.767-0.04,3.608-2.104C68.965,71.794,68.031,71.829,67.132,71.822z"/>
	</g>
</g>
<g>
</g>
<g>
</g>
<g>
</g>
<g>
</g>
<g>
</g>
<g>
</g>
<g>
</g>
<g>
</g>
<g>
</g>
<g>
</g>
<g>
</g>
<g>
</g>
<g>
</g>
<g>
</g>
<g>
</g>
</svg>
