<?xml version="1.0" encoding="iso-8859-1"?>
<!-- Generator: Adobe Illustrator 19.0.0, SVG Export Plug-In . SVG Version: 6.00 Build 0)  -->
<svg version="1.1" id="Capa_1" xmlns="http://www.w3.org/2000/svg" xmlns:xlink="http://www.w3.org/1999/xlink" x="0px" y="0px"
	 viewBox="0 0 100 100" style="enable-background:new 0 0 100 100;" xml:space="preserve">
<g id="pin_1_">
	<g>
		<path style="fill-rule:evenodd;clip-rule:evenodd;" d="M75.836,47.078c0-1.299-0.647-1.95-0.647-3.246
			c-0.516-0.896-1.23-1.586-1.952-2.274c-2.202-0.787-4.276,0.174-6.814,0c-2.081-6.039-3.597-12.639-5.197-19.155v-2.596
			c0.278-0.76-1.134-1.401-0.322-1.625c3.041-0.421,5.267-1.659,7.14-3.248c0.074-0.25,0.011-0.64,0.324-0.649
			c1.038-2.838,1.023-8.601-0.324-11.039C66.835,1.964,65.393,0.919,63.823,0h-4.868c-2.952,1.055-7.286,0.724-10.39,1.623
			c-4.76-0.212-8.536,0.557-13.313,0.323c-0.615,0.36-1.139,0.809-1.949,0.976c-0.234,0.737-1.852,0.096-1.622,1.298
			c-0.88,0.637,0.196,3.229-0.651,3.897v4.87c1.201,1.938,2.513,3.766,4.548,4.87c1.044-0.071,1.371,0.574,2.596,0.325
			c0.883,0.203,2.577-0.413,2.923,0.324c-1.643,7.559-4.065,14.334-3.896,23.702c-1.959-0.336-1.698,1.549-3.571,1.3
			c-0.141,0.725-1.601,0.131-2.274,0.325c-0.14,0.725-1.601,0.13-2.269,0.322c-2.033,1.434-3.84,3.092-5.524,4.872
			c0.041,2.203-0.558,3.765-0.323,6.168c0.381,0.055,0.354,0.514,0.323,0.974c1.153,1.989,1.979,4.303,3.901,5.52
			c3.124,0.642,7.607,0.402,10.389-0.326h3.895c1.091,0.207,3.016-0.417,3.571,0.326v5.196c0.844,5.975,1.787,11.849,2.273,18.182
			c0.429,2.925,0.595,6.113,1.623,8.439c0.603,2.864,0.914,6.015,3.896,6.495c3.464-0.322,2.471-5.104,2.598-8.765
			c0.595-6.019,1.031-13.525,0.323-19.807c0.639-2.932,0.194-6.951,0.327-10.389c4.802,0.149,9.149-0.16,13.312-0.651
			c2.286-1.388,5.088-2.272,6.49-4.546c0.183-0.578,0.169-1.348,0.651-1.623C76.829,51.497,76.871,48.747,75.836,47.078z
			 M35.252,7.467c0.345-0.304,0.1-1.2,0.974-0.976C35.878,6.796,36.122,7.691,35.252,7.467z M40.449,13.312
			c-0.507-0.475-0.287-1.664-0.328-2.598c0.137-1.112-0.973-0.976-1.299-1.624c-0.031-1.547,1.493-1.54,1.627-2.921
			c8.013,0.438,14.13-1.022,22.075-0.65c1.323,1.165,1.361,3.617,1.299,6.169c-1.299,0.541-2.874,0.805-4.221,1.299
			c-1.144-0.044-1.452-0.929-2.598-0.973C51.474,12.251,45.895,14.06,40.449,13.312z M56.03,37.985
			c-2.67,0.034-3.33,2.079-4.542,3.572c-1.016-0.725,0.638-1.5,0.647-2.272c0.48-0.822,1.149-1.451,1.299-2.598
			c-0.21-1.207-1.93-1.099-2.921-0.649c0.242-1.707,1.997-1.9,1.945-3.896c-0.098-1.741-1.943-1.734-3.892-1.623
			c0.203-1.82,2.387-3.134,1.295-5.195c-2.592,0.111-3.388,2.021-4.868,3.247c0.034,0.392-0.474,0.199,0,0
			c0.622-2.082,2.058-3.353,2.921-5.196c-1.502,0.121-1.838,1.406-3.247,1.622c0.323-1.732,0.195-3.917,0.978-5.191
			c4.021-0.417,8.648-0.223,12.336-0.977c-1.806,8.008,0.416,16.357,2.271,22.727h-5.195C55.532,40.52,56.17,39.639,56.03,37.985z
			 M33.303,49.026c0.583,0.921-0.959,2.489-0.974,3.896C31.643,51.896,32.541,49.682,33.303,49.026z M51.811,74.027
			c-0.485-0.706-0.553-1.829-0.648-2.924c-0.34-0.743-0.21-1.957-0.65-2.598c-0.179-1.987-0.699-3.632-1.299-5.194v-1.95h2.921
			C52.252,65.81,52.052,69.936,51.811,74.027z M71.292,53.246c-7.526,0.051-14.624,0.532-22.403,0.325
			c-0.265-1.123,0.606-1.372,0-1.946c-1.616,0.005-1.698,1.547-2.598,2.272c-0.767-0.009-0.956,0.558-1.95,0.324
			c0.146,0.905-1.769-0.254-1.622,0.649c-1.056-1.374,0.838-4.01-0.322-5.519c-1.87-0.027-1.986,1.696-2.922,2.597
			c-0.217,0.867-0.137,2.028-0.652,2.597c0.247,1.33-1.047,1.118-1.945,1.298c-0.418-2.582,1.803-4.87,0.322-6.492
			c-2.245,0.362-2.455,2.476-2.922,3.895c-0.154,0.468-0.065,1.766-0.975,1.624c0.376-2.872,1.869-4.623,2.274-7.467h-0.974
			c0.033,0.392-0.476,0.199,0,0c0.065-0.365,0.357-0.506,0.648-0.65c3.996-0.591,8.153-0.323,12.661-0.323h12.989
			c1.316-0.023,1.566,1.028,2.921,0.974c1.474,0.175,1.947-0.652,2.924-0.974h3.568C70.635,48.706,71.647,50.293,71.292,53.246z"/>
	</g>
</g>
<g>
</g>
<g>
</g>
<g>
</g>
<g>
</g>
<g>
</g>
<g>
</g>
<g>
</g>
<g>
</g>
<g>
</g>
<g>
</g>
<g>
</g>
<g>
</g>
<g>
</g>
<g>
</g>
<g>
</g>
</svg>
