<?xml version="1.0" encoding="iso-8859-1"?>
<!-- Generator: Adobe Illustrator 19.0.0, SVG Export Plug-In . SVG Version: 6.00 Build 0)  -->
<svg version="1.1" id="Capa_1" xmlns="http://www.w3.org/2000/svg" xmlns:xlink="http://www.w3.org/1999/xlink" x="0px" y="0px"
	 viewBox="0 0 100 100" style="enable-background:new 0 0 100 100;" xml:space="preserve">
<g id="robot_1_">
	<g>
		<path style="fill-rule:evenodd;clip-rule:evenodd;" d="M99.97,84.638v-9.883c-0.434-1.543-0.249-3.704-0.282-5.646
			c-0.468-0.286-0.309-1.2-0.566-1.694c-1.548-2.952-5.971-3.835-9.316-2.823c-0.92,0.277-1.587,0.149-2.258,0.283
			c0.295-2.074-0.533-3.922,0-5.366c-0.707-0.704-0.533-2.288-0.847-3.388c-2.536-0.85-6.104-0.674-8.752-1.412
			c-6.589-0.295-11.198,0.579-16.941,0.566c-0.03-1.759-0.471-3.109-0.282-5.083c1.69-0.286,3.674-0.278,5.364-0.564
			c1.232,0.197,1.59-0.48,2.823-0.282c0.859-0.177,2.434,0.36,2.825-0.282c0.956,0.64,1.369,1.827,3.386,1.412
			c0.257-0.498,1.038-0.467,1.129-1.13c0.346-0.504,0.054-1.643,0.566-1.977V26.193c0.314-1.85,1.276-3.056,1.13-5.362
			c-1.063-1.95-4.071-1.956-5.93-3.108c-0.972,0.125-1.584-0.111-2.258-0.281c-11.634-0.058-22.231,0.919-33.035,1.693
			c0.429-2.122-1.317-2.068-1.977-3.106c0.51-1.463,2.049-1.901,1.977-3.952c-0.04-0.807-1.179-0.517-1.977-0.564
			c-0.318-0.529-1.094-0.6-1.411-1.13c0.8-0.985,2.112-1.462,3.104-2.259c0.944-0.682,1.108-2.92,0.567-4.234
			c-3.223-1.195-7.062,0.471-5.648,3.952c-1.468,0.32-3.087,0.487-2.822,2.541c0.066,1.155,1.177,1.269,2.26,1.413
			c0.414,0.902,2.031,0.6,2.821,1.13c-0.599,1.751-3.192,1.511-3.388,3.669c-0.008,0.948,0.389,1.494,0.848,1.976
			c0.243,0.348,1.815,0.782,1.129,1.13c-2.603,0.972-6.249,0.901-9.035,1.692c-1.394,2.842-0.883,7.586-1.41,11.296v9.316
			c-0.227,2.396-0.857,5.479,0,7.341c0.723,0.292,1.943,1.017,2.822,0.282c0.772,0.45,1.705,0.74,2.824,0.848h14.116
			c0.008,1.777,0.555,3.021,0.566,4.8c-2.828,0.098-5.396-0.067-7.909-0.283c-7.017,0.604-12.594,2.649-20.044,2.823
			c-0.048,0.329-0.445,0.308-0.849,0.28c-0.537,0.97-2.076,0.934-2.541,1.979c-0.289,2.408,1.25,4.331,0.85,5.927
			c-0.882-0.343-1.791-0.656-3.108-0.562c-2.954,0.713-5.279,2.059-6.775,4.233C0.525,73.563-0.13,77.99,0.022,83.225
			c0.526,0.698,0.289,2.155,0.848,2.823c0.16,0.496-0.343,1.659,0.282,1.694c0.163,0.498-0.342,1.659,0.282,1.694
			c0.435,2.197,0.344,4.927,2.54,5.363c3.011-0.123,2.127-3.39,1.415-5.363c-0.391-2.53-0.841-4.995-1.415-7.341
			c-0.171-4.406,0.311-8.161,1.415-11.295c1.721-1.381,4.272-1.938,7.057-2.257c0.538,4.072,1.455,7.769,1.978,11.858
			c-0.271,4.786,0.464,8.567,1.127,12.424c0.28,0.941,1.469,0.978,1.695,1.975c0.129,1.095,0.729,1.717,1.975,1.695
			c1.361-0.051,1.857-0.968,1.979-2.26v-4.517c-0.508-0.812-0.541-2.095-0.851-3.106c-0.071-7.83-0.764-15.045-1.976-21.738
			c4.695-0.952,8.462-2.834,13.27-3.671c4.657-1.085,10.524-0.962,15.531-1.695c9.895-0.314,18.688-0.666,28.797-0.282
			c2.157,0.95,5.283,0.928,7.906,1.413c0.795,8.235-0.238,18.304,0.562,26.539v4.799c0.404,1.293,0.372,3.017,1.977,3.106
			c1.706-0.74,1.37-3.526,1.414-5.931V67.131c3.236,0.153,7.496-0.721,8.47,1.695v17.786c-0.287,1.589-0.944,5.021,1.13,5.084
			c1.71,0.113,2.41-0.791,2.257-2.544C99.889,87.756,100.074,86.342,99.97,84.638z M14.423,62.049h-0.566v-0.563h0.566V62.049z
			 M55.642,50.757c-0.842-0.407-1.721,0.989-1.692-0.282h3.669c-0.085,1.778,0.045,3.343,0.281,4.8
			C55.104,55.813,56.44,52.219,55.642,50.757z M55.359,45.957c-0.676,0.172-2.049-0.355-2.259,0.282
			c-6.905,0.036-13.251-0.489-20.325-0.282c-1.525,0.455-3.947,0.008-4.803,1.129c-0.792-0.284,0.081-1.198,0-1.693v-6.776
			c-0.128-2.884-0.425-5.598-0.281-8.752c-0.324-1.653-0.318-3.634-0.282-5.647c5.498-0.056,9.771-1.336,15.245-1.411
			c5.546,0.086,10.874-0.044,16.095-0.282c0.455,0.079,0.484-0.267,0.848-0.282c4.53,0.269,10.296-0.7,13.549,0.847
			c-1.551,6.146-0.63,14.688-0.562,21.738c-3.502-0.017-6.601,0.367-9.599,0.85c-2.005-0.215-3.226,0.351-5.085,0.281H55.359z
			 M68.064,27.322c-0.22-0.061-0.328-0.234-0.279-0.564c-0.292-0.742-1.121-0.951-1.414-1.693c-3.66-1.622-7.102,0.433-7.621,3.671
			c0.101,2.06,0.153,4.174,1.129,5.364C64.686,35.986,68.371,32.375,68.064,27.322z M65.243,29.582
			c-0.074,1.956-2.055,3.332-3.954,2.54C61.847,30.345,63.91,26.416,65.243,29.582z M42.373,28.169
			c-0.812-1.652-3.378-2.745-5.932-2.259c-1.078,0.206-1.792,1.008-2.54,1.412c0.017,0.487-0.215,0.725-0.564,0.847
			c0.044,1.739-0.609,2.779-0.562,4.52c0.415,0.051,0.255,0.681,0.281,1.128c0.353,0.115,0.574,0.364,0.562,0.848
			c1.016,0.583,1.949,1.252,3.39,1.41c1.557,0.054,2.599-0.412,3.67-0.846C41.955,33.585,42.577,31.294,42.373,28.169z
			 M39.266,33.535c-1.139,0.492-2.708-0.047-3.669-0.564c0.252-1.161,1.06-1.764,1.129-3.106c0.642-0.488,1.577-0.681,2.822-0.566
			C39.865,30.568,40.106,32.663,39.266,33.535z M59.029,36.922c-2.004-0.608-4.323,0.432-6.494-0.282
			c-2.058,1.109-4.153,0.491-7.058,0.563c-0.603,0.526-1.876,0.384-2.259,1.13c-0.837,0.385-1.235,1.21-1.693,1.977
			c-0.168,1.582,0.149,2.673,0.566,3.67c1.719,1.395,5.059,0.683,7.339,0.283c3.729-0.037,7.837,0.308,9.88-1.411
			C60.488,41.585,60.56,37.83,59.029,36.922z M46.892,41.44c-0.559,0.457-2.055,0.908-2.826,0.282
			c0.103-1.593,1.395-1.997,2.826-2.26V41.44z M51.408,41.44h-1.697c0.229-0.98-0.417-1.087-0.28-1.978
			c0.365-0.39,1.226-0.278,1.978-0.28V41.44z M57.618,41.157c-0.913,0.577-1.925,0.621-3.105,0.283v-2.258h3.105V41.157z
			 M32.775,77.578c3.498-0.828,7.356-1.301,11.29-1.693c1.022-4.989-0.136-10.206-3.387-11.857h-4.801
			c-3.371,1.237-6.23,2.992-8.754,5.082c-0.207,0.826-0.682,1.388-1.125,1.976c-0.051,0.423,0.099,1.044-0.285,1.13
			c0.323,1.904-0.539,3.869,0,5.082C27.241,78.178,30.145,77.271,32.775,77.578z M28.258,74.755
			c-0.191-1.599,0.256-2.566,0.562-3.671c1.546-1.745,3.888-2.7,5.929-3.953h4.799c1.218,1.326,1.625,3.461,1.411,6.212
			c-1.002-0.239-1.689,0.818-1.974-0.283c-0.426-0.422-1.191-0.504-1.411-1.129c-1.351-0.146-2.425-1.786-3.955-0.847
			c-0.165,1.015,0.328,1.365,0.563,1.976c0.315,0.192,1.465,0.94,0.85,1.131C33.194,74.801,30.74,74.792,28.258,74.755z
			 M75.69,65.72c-0.878,0.99-0.881,2.418-0.567,3.952c0.752,1.277,3.636,1.436,5.365,0.848c0.418-0.996,0.734-2.09,0.566-3.671
			C80.18,65.58,77.335,64.492,75.69,65.72z M78.795,68.827c-0.734,0.17-1.017-0.114-0.847-0.847
			C78.212,68.281,78.988,68.067,78.795,68.827z M64.962,66.849c-0.393,1.821-0.495,4.241,0.562,5.365
			c1.181,0.7,3.174,0.592,5.08,0.565c1.459-0.992,2.541-2.356,2.26-5.083C71.649,65.489,66.75,64.543,64.962,66.849z M67.784,69.109
			c0.374-0.402,1.598-0.402,1.977,0C69.916,69.791,67.552,70.131,67.784,69.109z M54.513,69.672c0.476,1.163,0.464,2.2,1.413,2.825
			c0.036,0.023,0.625,0.299,0.564,0.282c2.114,0.633,5.328-0.774,5.646-3.107c0.119-1.437-0.434-2.2-0.848-3.105
			C58.668,64.513,54.645,66.609,54.513,69.672z M57.899,69.109v-0.848c0.363-0.388,1.688-0.492,1.697,0.283
			C59.676,69.449,58.359,69.571,57.899,69.109z M94.04,69.672c-1.825-0.981-3.782,0.105-3.106,2.542
			c0.623,0.319,0.939,0.944,1.696,1.129c0.587-0.354,1.189-0.691,1.692-1.129C94.265,71.331,94.513,70.143,94.04,69.672z
			 M7.361,75.603c0.894,0.387,0.943,0.061,1.978,0c0.988-0.962,0.852-2.377,0.282-3.672C7.513,70.717,6.538,73.916,7.361,75.603z
			 M53.949,83.225c-0.619,0.606-2.314,0.133-2.823,0.849c-1.336-0.112-2.358,0.089-3.39,0.281c-2.53,0.012-4.484,0.597-7.058,0.564
			c-2.047,0.4-4.519,0.377-6.777,0.565c-1.42-0.195-1.967,0.479-3.385,0.283c-1.321-0.002-2.296,0.342-2.259,1.694
			c0.938,1.332,3.337,0.847,5.361,0.847h6.213c2.859-0.436,5.756-0.833,9.036-0.847c0.209-0.638,1.582-0.11,2.258-0.283
			c0.333-0.513,1.47-0.223,1.975-0.565c1.293-0.401,3.015-0.373,3.107-1.975C56.031,83.591,55.335,83.062,53.949,83.225z
			 M64.677,88.873c0.511,0.617,0.95,1.308,2.259,1.129c1.257-0.438,1.82-1.57,1.692-3.389
			C67.433,84.019,64.348,85.979,64.677,88.873z M42.936,90.566c-1.814,0.16-3.309,0.645-5.081,0.847h-3.388
			c-0.996,0.415-2.643,0.184-3.388,0.849c1.342,0.446,2.99,0.584,4.518,0.846h6.776c1.818-0.725,5.237,0.155,5.081-2.541
			C46.549,89.192,44.246,90.541,42.936,90.566z"/>
	</g>
</g>
<g>
</g>
<g>
</g>
<g>
</g>
<g>
</g>
<g>
</g>
<g>
</g>
<g>
</g>
<g>
</g>
<g>
</g>
<g>
</g>
<g>
</g>
<g>
</g>
<g>
</g>
<g>
</g>
<g>
</g>
</svg>
