<?xml version="1.0" encoding="iso-8859-1"?>
<!-- Generator: Adobe Illustrator 19.0.0, SVG Export Plug-In . SVG Version: 6.00 Build 0)  -->
<svg version="1.1" id="Capa_1" xmlns="http://www.w3.org/2000/svg" xmlns:xlink="http://www.w3.org/1999/xlink" x="0px" y="0px"
	 viewBox="0 0 100.405 100.405" style="enable-background:new 0 0 100.405 100.405;" xml:space="preserve">
<g id="tools1_1_">
	<g>
		<path style="fill-rule:evenodd;clip-rule:evenodd;" d="M99.536,66.321c-0.455-1.115-0.853-2.285-1.179-3.528
			c-0.609-0.167-0.837-0.727-1.76-0.588c-0.694-0.088-0.547-1.019-1.471-0.881c-1.832-2.281-4.164-4.063-6.465-5.875
			c-5.242-0.239-9.77-1.199-15.571-0.881c-1.328-0.248-1.468,0.686-2.352,0.881c-0.519-1.442-2.299-1.618-2.939-2.937
			c1.392-0.274,1.895-1.439,2.939-2.06c1.249-2.176,3.197-3.659,4.405-5.874c2.102-1.427,3.235-3.823,5.293-5.29
			c0.375,0.401,1.386,0.401,1.762,0c1.519-1.127,2.506-2.785,3.82-4.114c1.482-0.672,2.593-1.713,3.524-2.939
			c0.237-1.508-0.312-2.229-0.585-3.232c1.245-0.907,2.605-1.702,3.524-2.936c1.159-0.999,2.698-1.615,3.524-2.938
			c0.157-0.823,0.435-1.528,0.592-2.352c-1.58-4.887-4.488-8.444-6.759-12.634c-1.183-1.069-2.412-2.095-3.82-2.94h-3.526
			c-3.315,1.974-5.912,4.665-7.932,7.934c-0.082,1.059,0.541,1.417,0.583,2.349c-1.547-0.798-1.893-2.806-4.109-2.936
			c-1.81,0.151-2.486,1.431-3.824,2.056c-0.551,1.209-1.467,2.06-1.76,3.525c-1.451,0.511-2.058,1.859-2.939,2.94
			c-1.537,0.421-1.939,1.98-3.233,2.643c-0.545,1.415-1.907,2.011-2.643,3.23c-1.126,0.832-2.142,1.777-3.232,2.647
			c-1.233,1.312-1.989,3.107-3.818,3.82c-0.616-0.856-1.177-1.764-2.06-2.352c-0.471-1.097-1.824-1.305-2.058-2.645
			c0.99-4.337-0.6-8.589-0.879-12.635c-1.675-1.751-2.931-3.924-4.701-5.581c-0.627-1.14-1.388-2.141-2.35-2.94
			c-0.42-1.344-1.8-1.728-1.766-3.525c-1.599-0.455-2.735-1.378-4.407-1.763c-1.515-0.64-3.526-0.781-4.703-1.764
			c-2.042,0.388-3.372,0.264-5.286,0c-0.123-0.499-0.38,0.064-0.879,0c-1.74,0.222-3.09,0.829-4.118,1.764
			c0.082,1.059-0.542,1.419-0.585,2.352c2.227,2.472,6.539,2.862,8.225,5.876c1.63,2.192,2.522,5.115,3.526,7.932
			c-2.715,2.67-4.761,6.011-8.227,7.936c-1.682,0.47-3.259,1.049-5.582,0.878c-1.623-0.921-2.896-2.194-3.822-3.816
			c-1.44-1.106-2.502-2.591-3.231-4.407c-0.119-1.254,0.286-3.031-0.291-3.822c-1.563-0.755-3.568,0.103-4.995-0.294
			c-2.261,4.844-0.819,12.399,0.294,17.335c0.585,0.591,1.498,0.848,2.058,1.47c2.78,4.464,6.2,8.29,10.283,11.459
			c2.422,0.022,4.377,0.518,6.757,0.586c3.5-0.416,7.099-0.738,11.166-0.586c3.385,3.177,6.767,6.359,9.696,9.989
			c-1.855,0.399-2.505,2.005-4.112,2.646c-2.246,2.848-5.26,4.926-7.642,7.638c-1.267,0.007-1.084,1.465-2.351,1.47
			c-0.404,0.867-1.357,1.19-1.762,2.057c-1.006,1.196-3.659,2.144-2.644,4.406c1.245,0.96,1.831-0.776,2.937-0.879
			c0.726-0.842,1.521-1.615,2.643-2.057c0.728-0.842,1.521-1.614,2.645-2.058c0.646-0.924,1.516-1.619,2.646-2.057
			c1.507-1.527,3.108-2.961,4.702-4.407c1.531-1.604,3.675-2.591,4.993-4.408c0.728,0.351,1.148,1.007,1.47,1.764
			c0.587,0.486,1.368,0.789,1.468,1.763c-0.429-0.432-1.925-0.432-2.348,0c-3.196,2.29-5.932,5.041-8.818,7.638
			c-1.557,1.185-2.925,2.56-4.407,3.822c-0.561,0.808-1.249,1.495-2.058,2.056c-0.645,0.723-0.814,1.923-2.053,2.055
			c-1.513-0.56-2.515,0.18-4.41,0c0.308-1.532,0.378-2.662-0.585-3.525c-1.992-0.459-4.383-0.513-6.171-1.172
			c2.773-3.985,6.404-7.113,9.989-10.288c2.08-1.346,3.709-3.147,5.582-4.7c0.609-1.06,1.746-1.586,2.35-2.645
			c1.19-0.572,2.49-1.038,2.351-2.938c-0.014-0.377-0.375-0.407-0.294-0.882c-0.973-0.923-3.455-0.75-3.817,0.588
			c-0.958,0.315-1.688,1.113-2.352,1.764c-1.148,1.122-2.526,3.068-3.526,3.817c-0.27,0.204-0.646,0.094-0.879,0.296
			c-0.752,0.651-1.229,1.822-2.352,2.057c-3.667,3.876-7.511,7.571-10.581,12.046C11.377,79.24,7.452,84.717,6.1,92.765
			c-1.108,1.945-3.647,3.688-1.766,6.465c0.229,0.064,0.581,0.008,0.583,0.292c2.382,0.421,2.653-1.27,4.118-1.762
			c7.328-2.074,13.926-4.875,20.274-7.934c1.06-0.115,1.969-0.38,2.937-0.587c0.475-0.702,0.97-1.383,0.883-2.645
			c3.331-2.74,5.834-6.309,9.402-8.815c1.448-1.589,3.619-2.452,4.994-4.112c1.556-1.483,4.114-1.959,3.82-5.291
			c-0.39-0.293-0.885-0.482-1.177-0.88c-2.925,0.11-3.677,2.394-5.58,3.525c-0.814,0.75-1.76,1.374-2.643,2.056
			c-1.024,0.547-1.364,1.773-2.647,2.059c-1.446,1.689-3.007,3.253-4.701,4.7c-0.642,0.926-1.547,1.587-2.056,2.645
			c-1.258,0.31-1.012,2.119-2.646,2.057c-1.108-1.046-0.382-3.928-0.587-5.877c5.725-4.951,10.979-10.373,17.042-14.985
			c0.163-0.424,0.455-0.717,0.883-0.883c0.161-0.427-0.346-1.519,0.291-1.469c2.26,2.836,4.818,5.369,6.759,8.522
			c-0.071,1.539,0.712,2.223,0.879,3.525c0.179,2.635,0.374,4.098,0.298,7.346c0.225,2.125,1.05,3.652,1.174,5.877
			c2.647,2.741,5.104,5.672,8.226,7.934c-0.052,1.03,0.993,0.967,1.179,1.762c0.487,0.588,0.786,1.368,1.76,1.47
			c4.071,0.537,6.85,2.359,11.166,2.645c1.074-0.004,1.32-0.835,2.056-1.175c0.863-0.217,1.266-0.893,1.765-1.47
			c-0.085-1.189-0.505-2.044-0.587-3.231c-1.207-1.631-2.83-2.85-4.703-3.819c-0.491-0.976-1.946-0.995-2.352-2.058
			c-1.168-0.302-2.192-0.742-2.643-1.763c0.091-1.854-0.044-3.479-0.291-4.996c1.335-1.211,2.699-2.393,4.405-3.231
			c1.722-1.736,3.023-3.829,5.29-4.699c2.2,0.292,3.57,0.092,5.584,0.88c2.219,2.777,1.697,8.29,3.818,11.166
			c2.77,0.472,5.978,0.236,7.933-1.469C101.196,79.543,99.571,72.085,99.536,66.321z M21.082,89.239
			c-1.133,1.022-3.07,1.238-4.407,2.058c-1.146-0.029-1.161-1.187-1.762-1.763c-0.589-0.488-1.366-0.789-1.47-1.763
			c-0.833-0.443-1.251-1.296-2.35-1.471c1.004-4.187,2.38-8,3.231-12.338c1.482,0.476,2.277,1.639,4.407,1.465
			c-0.028,1.205-0.056,2.409,0.294,3.234c0.589,1.762,3.677,1.023,5.878,1.175c0.219,3.275-0.899,4.86,0.589,7.052
			C24.369,88.022,22.692,88.595,21.082,89.239z M84.844,22.247c0.195-1.565-0.171-2.571-1.177-2.941
			c0.048-0.342,0.539-0.246,0.88-0.294c0.896-0.475,1.27-1.474,2.352-1.76c-0.083-0.477,0.28-0.507,0.293-0.883
			c0.577,0.583,1.68,0.188,2.35,0c0.911,1.438,1.758,2.945,2.352,4.704c-1.985,1.439-3.8,3.056-5.586,4.7
			c-1.155-0.708-1.78-1.94-2.935-2.643C83.639,22.612,84.404,22.59,84.844,22.247z M70.152,16.369h0.883
			c2.142,2.85,5.3,4.689,7.344,7.64c1.207,0.652,2.023,1.698,3.23,2.351c1.173,1.77,2.995,2.884,3.822,4.995
			c-1.729,0.723-2.34,2.561-4.116,3.233c-4.276-4.736-9.158-8.862-13.809-13.222C68.003,19.314,69.108,17.873,70.152,16.369z
			 M55.164,32.822c2.404-2.001,4.751-4.065,6.759-6.463c1.002-0.374,1.115-1.629,2.354-1.762c0.165-0.422,0.458-0.717,0.881-0.881
			c4.045,4.086,7.728,8.532,12.047,12.342c-0.104,0.97-0.881,1.273-1.468,1.762c-0.103,0.971-0.883,1.274-1.471,1.763
			c-0.754,1.401-1.874,2.438-2.939,3.525c-1.563,2.745-3.948,4.67-5.286,7.64c-1.036-0.337-1.078-1.666-2.058-2.056
			c-0.375-0.999-1.629-1.114-1.766-2.351c1.434-0.429,1.88-1.841,3.234-2.349c0.881-1.177,1.691-2.423,2.941-3.236
			c0.672-1.379,2.359-1.749,2.935-3.229c0.046-0.732-0.459-0.909-0.587-1.468c-2.345-0.229-3.558,1.251-4.699,2.347
			c-1.193,1.146-2.126,2.594-3.528,3.528c-0.469,1.097-1.831,1.306-2.056,2.646c-1.7-0.362-1.865-2.251-3.233-2.939
			c2.384-2.123,4.778-4.233,7.342-6.172c0.698-1.067,1.444-2.086,2.354-2.937c0.233-1.431,1.987-1.345,1.473-3.527
			c-0.292-0.397-0.787-0.587-1.181-0.879c-0.872-0.05-2.595,0.572-2.646,1.468c-0.03,0.642-1.595,1.715-1.758,2.643
			c-1.235,1.216-2.76,2.139-3.82,3.526c-1.3,1.053-2.541,2.162-3.233,3.821c-1.422-1.323-3.078-2.407-3.82-4.408
			C52.943,34.324,54.015,33.535,55.164,32.822z M25.491,6.086c-0.155-0.153,0.211-0.376,0.292-0.294
			C25.936,5.944,25.57,6.166,25.491,6.086z M46.057,51.629c-0.967-0.17-0.422-1.111-0.297-1.761
			C46.411,49.903,45.889,51.112,46.057,51.629C46.411,51.6,46.238,52.057,46.057,51.629z M96.301,80.718
			c-0.738,0.34-0.985,1.171-2.057,1.175c-0.835-2.689-2.475-4.577-2.937-7.638c-0.071-0.42-0.485-0.495-0.587-0.883
			c-0.461-0.714-1.25-1.098-2.352-1.173c0.095-0.684-0.046-1.128-0.294-1.471c-2.774-0.554-5.417-1.795-8.519-1.175
			c-1.032,0.831-2.076,1.648-2.647,2.941c-0.369-0.122-0.598-0.381-0.585-0.882c0.086-0.579-0.396-0.586-0.587-0.884
			c-1.326,0.246-0.775,2.362-0.883,3.821c-0.67,0.505-1.484,0.867-2.058,1.468c-0.728-0.741-0.235-2.701-1.468-2.939
			c-1.559,0.301,0.523,4.245-1.468,4.114c0.02-1.293-0.018-2.524-0.881-2.937c-1.002-0.024-0.872,1.087-0.883,2.055v2.939
			c-0.211,0.897,0.509,0.863,0.298,1.764c0.125,1.009-0.121,1.646-0.298,2.35c-0.006,0.692,0.509,0.865,0.298,1.762
			c0.943,2.384,2.504,4.152,3.818,6.171c1.135,0.528,1.738,1.591,2.935,2.055c0.268,0.52,1.085,0.485,1.179,1.177
			c0.698,0.184,1.366,0.394,1.468,1.176h-2.939c-0.273-1.195-0.818-2.123-1.762-2.644c-1.504,0.151-0.495,2.699-0.881,3.229
			c-2.629-0.405-1.956-4.119-3.526-5.581c-1.207,0.517-0.686,1.623-0.589,2.938c-1.513-0.252-1.247-2.277-2.054-3.231
			c-0.195-1.666-0.855-2.871-1.475-4.116c-0.969,0.104-0.457,1.693-0.583,2.647c-1.019-0.256-0.646-1.905-1.471-2.353
			c-0.473-3.545-1.157-6.872-1.764-10.285v-2.348c0.215-0.901-0.505-0.867-0.292-1.764c-0.193-1.077,0.634-1.128,0.589-2.057
			c-0.209-4.004-1.379-7.046-1.472-11.167c-0.475-0.7-0.221-2.13-1.174-2.35c-1.449-0.079-0.897,1.845-1.471,2.643v4.702
			c-1.032-0.436-1.268-1.667-2.056-2.351c-0.079-1.49-0.501-2.632-0.881-3.818c-0.431-1.236-0.39-2.945-1.471-3.527
			c-1.424,0.046-1.154,1.783-1.174,3.232c-1.941-1.979-1.895-5.941-2.937-8.815c-0.201-1.763,0.141-4.061-1.174-4.7
			c-1.857,0.396-1.235,3.272-1.475,5.284c-0.801-1.056-1.15-2.565-1.463-4.109c-0.824-1.136-0.629-3.292-1.472-4.411
			c-1.354-0.274-0.563,1.592-1.174,2.059c-0.22,1.885,0.34,2.985,0.296,4.702c-1.487-0.053-1.364-2.315-1.764-2.645
			c-0.081-0.064,0.04-0.484,0-0.588c-0.346-0.917-0.634-1.942-0.883-2.643v-1.764c-0.342-0.439-0.364-1.202-0.881-1.471
			c-2.607-0.585-1.766,3.3-1.47,4.703c-1.396,0.026-1-1.742-1.469-2.645c-0.664-0.707-0.688-2.056-2.35-1.761
			c-1.225,0.394-0.354,2.331,0.294,2.643c-0.195,0.88-0.626-0.281-1.177,0H30.19c-0.495-0.778-1.8-0.747-2.645-1.175
			c-0.462-1.79-0.756-3.75-1.762-4.996c-2.408-0.06-1.149,3.552-1.469,5.581h-2.939c-0.817-1.629-0.612-4.282-2.058-5.288
			c-1.33-0.157-0.684,1.666-1.173,2.353c-0.068,1.283,0.747,2.782,0.294,3.526c-1.278,0.296-1.312-0.65-1.764-1.175
			c-0.244-0.737-0.805-1.155-0.881-2.059c-0.879-1.178-1.074-3.041-2.058-4.114c-1.734,0.575-0.664,2.329-0.881,4.114
			c-2.325-2.179-3.186-5.82-3.819-9.696c-0.513-0.022-0.914,0.065-1.175,0.294c0.322,1.412-0.905,2.795,0,3.82
			c-0.756,0.832-1.269-1.065-2.058-1.177c-0.046-0.344,0.05-0.833-0.293-0.88c0.087-2.828-0.451-5.033-0.881-7.344
			c1.664,1.566,3.032,3.432,4.408,5.287c1.523,1.024,2.635,2.458,4.996,2.645c-0.233,1.019,0.326,1.241,0.586,1.761
			c0.83,0.244,0.762-0.413,1.47-0.292c-0.052,0.733,0.453,0.92,0.88,1.174c0.961,0.079,1.414-0.346,1.472-1.174
			c0.648,0.624,0.73,1.816,2.058,1.764c2.258-0.697,0.303-3.182,0.585-5.292c1.152-0.269,0.213,1.551,0.883,1.766
			c0.245,0.631,0.722,1.038,1.76,0.88c0.974-0.106,0.465-1.695,0.589-2.646c-0.147-1.028-0.439-1.91-0.296-3.231
			c-0.849-0.164,0.453-0.459,0.296-0.882c0.583-0.003,0.37-0.8,1.177-0.589c-0.07,1.634,0.073,3.063,1.171,3.526
			c3.345-0.446-0.678-4.671,1.179-6.171c0.947-0.259,0.41,0.959,0.879,1.177c0.084,0.604,0.786,0.584,1.177,0.882
			c1.678,0.019,1.122-2.076,0.883-3.233c-0.148-1.226,0.858-1.296,0.586-2.644c-0.316-1.641-0.919-2.995-1.763-4.114
			c-0.054-1.233,1.442-0.909,1.177-2.352c-0.283-2.95-3.001-3.461-4.703-4.993c0.251-0.864,0.738,0.381,1.468,0
			c0.25,0.436,0.945,0.424,1.468,0.587c1.402,0.226,1.304-1.048,2.647-0.881c0.25,0.435,0.946,0.426,1.468,0.588
			c1.012,2.906,2.945,4.889,4.409,7.344c1.051,1.104,1.778,2.526,3.522,2.939c0.046,3.875,0.376,7.462,0.59,11.167
			c0.795,1.649,1.804,3.093,3.231,4.111c0.13,1.047,1.064,1.288,1.47,2.059c0.629,0.645,0.914,1.631,1.76,2.055
			c0.768,1.683,2.004,2.895,2.941,4.406c0.765,1.685,2.171,2.729,3.233,4.116c2.569,2.327,5.071,4.724,7.638,7.049
			c1.346,1.106,2.357,2.545,3.822,3.528c1.094,1.356,2.288,2.61,3.818,3.526c3.633,0.007,6.346-0.9,9.994-0.882
			c2.029,0.693,5.172,1.232,7.344,0.882c1.377,0.479,2.001,1.722,3.234,2.35c0.702,1.158,1.935,1.786,2.643,2.94
			c0.961,0.018,1.123,0.835,2.35,0.585c0.028,0.756,0.169,1.404,0.587,1.766c-0.016,2.364,0.235,4.465,0.587,6.463
			C96.394,76.041,96.127,78.385,96.301,80.718z"/>
	</g>
</g>
<g>
</g>
<g>
</g>
<g>
</g>
<g>
</g>
<g>
</g>
<g>
</g>
<g>
</g>
<g>
</g>
<g>
</g>
<g>
</g>
<g>
</g>
<g>
</g>
<g>
</g>
<g>
</g>
<g>
</g>
</svg>
