<?xml version="1.0" encoding="iso-8859-1"?>
<!-- Generator: Adobe Illustrator 19.0.0, SVG Export Plug-In . SVG Version: 6.00 Build 0)  -->
<svg version="1.1" id="Capa_1" xmlns="http://www.w3.org/2000/svg" xmlns:xlink="http://www.w3.org/1999/xlink" x="0px" y="0px"
	 viewBox="0 0 100 100" style="enable-background:new 0 0 100 100;" xml:space="preserve">
<g id="share1_1_">
	<g>
		<path style="fill-rule:evenodd;clip-rule:evenodd;" d="M90.21,71.585c-1.721-1.339-3.958-3.711-6.046-4.232
			c-0.387-0.097-0.642-0.236-0.908-0.303c-0.387-0.097-0.638-0.235-0.906-0.301c-1.5-0.376-2.322-0.153-3.93-0.303
			c-0.672-0.064-1.423-0.327-2.114-0.302c-0.89,0.03-1.724,0.572-2.725,0.302c-1.256,0.756-2.811,1.219-3.926,2.115
			c-0.679,0.331-1.516,0.501-2.115,0.908c-0.971,0.141-1.068,1.149-2.118,1.209c-2.188-1.846-4.857-3.204-6.953-5.137
			c-1.414-0.603-2.623-1.41-3.629-2.419c-1.412-0.601-2.622-1.409-3.626-2.419c-2.738-1.293-4.803-3.261-7.558-4.536
			c-0.917-1.099-2.521-1.508-3.627-2.418c-1.146-0.867-2.851-1.18-3.627-2.418c0.302-0.807,0.622-1.593,0.605-2.72
			c0.621-1.394,2.466-1.562,3.323-2.719c1.532-0.587,2.427-1.808,3.93-2.419c0.881-1.136,2.487-1.546,3.326-2.722
			c1.506-0.61,2.4-1.83,3.929-2.417c2.175-1.955,4.758-3.507,7.256-5.139c1.133-0.982,2.493-1.739,3.626-2.721
			c1.736-0.384,2.909-1.324,3.629-2.72c0.932,1.483,2.557,2.281,3.929,3.325c2.092,0.527,4.201,1.041,6.651,1.209
			c2.55-0.342,4.781-0.589,6.649-1.512c1.875-0.923,3.223-2.314,4.535-3.628c1.313-1.311,2.712-2.713,3.627-4.534
			c0.973-1.933,1.305-4.101,1.512-6.649c-0.129-1.483-0.405-2.821-0.602-4.233C88.064,4.658,81.233-1.291,69.351,0.243
			c-0.257,0.448-0.76,0.65-1.509,0.604c-3.408,3.145-5.462,7.642-6.046,13.604c-2.197,1.53-4.556,2.902-6.653,4.536
			c-2.517,1.31-4.505,3.149-7.252,4.231c-0.846,1.07-2.441,1.39-3.326,2.417c-1.479,0.434-2.251,1.578-3.627,2.117
			c-0.967,0.948-2.359,1.471-3.326,2.418c-1.374,0.538-2.147,1.681-3.628,2.116c-1.241-1.274-3.028-2.01-4.536-3.023
			c-3.198-0.628-6.544-1.109-10.577-0.907c-0.057,0.449-0.73,0.279-1.21,0.305c-0.257,0.447-0.758,0.647-1.51,0.603
			c-0.976,0.738-1.883,1.545-3.025,2.116c-3.388,3.563-5.975,7.927-6.95,13.907c-0.073,3.493,0.22,6.629,0.602,9.671
			c2.152,6.613,7.022,10.512,16.022,10.278c2.667-0.357,4.873-1.173,6.649-2.419c-0.272,1.885,0.555,2.67,1.514,3.327
			c1.608,0.664,2.259-0.269,3.628-0.603c1.073,0.74,1.791,1.834,3.022,2.418c0.896,0.916,1.747,1.88,3.023,2.418
			c0.558,1.257,2.124,1.504,2.72,2.718c1.453,0.363,1.831,1.797,3.324,2.116c0.739,1.077,1.997,1.633,3.024,2.419
			c1.037,0.778,1.984,1.645,3.324,2.117c0.833,0.982,2.178,1.451,3.325,2.116c1.168,0.747,2.702,1.127,3.933,1.813v7.557
			c0.663,1.049,1.019,2.404,1.812,3.325c0.707,1.108,1.678,1.951,2.72,2.72c1.795,1.733,4.766,2.291,7.862,2.722h5.441
			c8.382-1.593,14.194-5.757,15.719-14.207v-6.046C93.365,76.288,91.696,74.027,90.21,71.585z M78.118,25.635
			c0.183-0.724,0.434-1.378,0.302-2.417c1.066,0.043,0.862,1.355,1.209,2.115C78.901,25.21,78.973,25.885,78.118,25.635z
			 M75.398,8.707c0.594-0.631,0.229-2.007,0-2.72c5.521,0.12,7.795,3.491,10.881,6.047c0.3,1.011,0.96,1.66,1.21,2.72
			c0.213,3.842-1.846,5.411-3.327,7.555c-1.38,0.638-2.028,2.003-3.629,2.42c-0.734-1.782-1.283-3.752-2.114-5.442
			c-0.921-0.013-1.177,0.64-1.813,0.909c0.03,0.364-0.44,0.185,0,0c0.487-1.511,0.325-3.333-0.606-4.232
			c-0.922-0.219-0.888,0.521-1.813,0.302c0.594-2.127,1.502-3.94,2.719-5.442C76.778,9.744,76.148,9.164,75.398,8.707z
			 M74.792,24.124c0.593,0.138,0.544,2.121-0.604,1.511C74.318,25.06,74.84,24.877,74.792,24.124z M37.007,36.819
			c0.955,0.051,1.009-0.802,2.114-0.603c0.633,0.174,0.862,0.75,1.815,0.603c1.733-0.482,2.631-1.801,2.72-3.93
			c3.107-1.729,5.651-4.021,9.07-5.44c1.086-1.333,3.198-1.636,4.231-3.023c1.605-0.713,3.083-1.551,4.23-2.721h0.908
			c0.085,1.424,1.235,1.786,1.51,3.022h-2.418c-2.371,1.053-4.242,2.607-6.349,3.931c-1.815,1.506-4.063,2.584-5.744,4.229
			c-1.192,0.522-2.169,1.254-3.021,2.118c-1.36,0.254-1.664,1.559-3.022,1.812c-0.589,1.123-2.058,1.37-2.723,2.419
			c-1.221,0.39-1.665,1.56-3.021,1.815C37.545,39.304,36.87,38.469,37.007,36.819z M15.847,59.19
			c0.157-0.446,0.447-0.762,0.602-1.208c0.706,0.205,0.811,1.004,1.513,1.208C17.603,60.004,16.386,59.189,15.847,59.19z
			 M20.38,59.493c0.414-0.795,1.274-1.146,1.51-2.116c0.503,0.305,0.329,1.283,0.608,1.813C22.106,59.607,21.183,59.49,20.38,59.493
			z M31.565,44.679c0.053,1.063-1.02,0.995-1.21,1.814c-0.094,1.205-0.015,2.234,0.606,2.721c-0.934,3.499-2.364,6.504-4.836,8.464
			c-1.343-2.386-0.953-6.504-3.025-8.16c-1.188,0.524-2.711,0.714-3.322,1.812c-0.497-0.207-0.104-0.566,0-0.906
			c0.091-0.305,0.157-0.742,0.301-1.209c0.051-0.161,0.579-0.79,0.603-0.906c0.085-0.385-0.065-0.821,0-1.209
			c-0.335-0.977-0.961-1.659-2.419-1.512c0.103-1.107,1.199-1.22,0.907-2.719c-0.283-1.183-1.525-0.259-2.417-0.304
			c0.815-1.703,3.018-2.02,3.627-3.929c0.019-1.835-1.284-2.346-2.721-2.72c0.66-0.75,1.759-1.065,2.419-1.814
			c3.846-0.221,6.974,0.279,9.369,1.512c0.274,0.534,0.677,0.935,1.211,1.208c0.134,0.773,0.424,1.391,0.906,1.815V44.679z
			 M40.937,65.236c-1.822-0.681-0.155-2.853-0.303-4.533c0.634,0.373,1.177,0.836,1.813,1.209
			C42.154,63.229,41.399,64.087,40.937,65.236z M43.957,67.353c0.433-0.98,0.763-2.063,0.909-3.326
			c1.123,0.792,0.588,3.241,1.208,4.533C45.082,68.445,44.74,67.677,43.957,67.353z M62.096,76.723
			c-0.617,0.645-1.199-0.084-1.812-0.303c-0.471-0.437-1.414-0.402-1.815-0.906c-1.263,0.068-1.429-0.492-2.418,0
			c-1.183-1.234-3.024-1.816-4.232-3.022c-1.845-0.574-2.658-2.178-4.536-2.722c0.571-1.639-0.119-3.116-0.302-4.835
			c0.258-0.058,0.284,0.116,0.302,0.301c2.83,1.705,5.532,3.538,8.163,5.442c1.288,0.926,2.738,1.694,3.931,2.719
			C60.455,74.308,63.111,74.655,62.096,76.723z M66.936,89.721c-1.056-0.154-0.445-1.973-0.609-3.022
			C67.513,87.426,67.634,88.445,66.936,89.721z M87.49,87.304c-0.208,0.353-0.308,0.362-0.607,0.604
			c-0.099,0.083,0.081,0.498,0,0.606c-0.538,0.711-1.566,1.508-2.417,2.114c-0.958,0.685-2.1,1.432-3.326,1.513
			c-0.644-1.071-0.999-2.425-1.812-3.324c0.409-0.892,0.377-1.872-0.302-2.418c-3.236-0.04-4.769,4.469-3.024,6.649
			c1.153,0.52,1.89-0.896,2.117-0.3c0.04,1.25-2.106,0.313-3.022,0.604c-1.2-0.112-2.897,0.275-3.627-0.304
			c-0.104-2.822,1.288-4.153,1.812-6.347c0.575-0.839,0.826-1.996,1.511-2.721c0.565-0.846,1.348-1.476,1.514-2.721
			c0.021-1.031-1.122-0.895-2.118-0.906c0.466-1.952,2.049-2.79,2.719-4.535c-0.335-1.401-2.445-1.869-3.928-1.209
			c0.028,0.366-0.441,0.185,0,0c1.082-1.158,2.447-1.916,4.229-2.116c2.169-0.241,5.796,0.23,6.35,0.905
			c0.073,0.092,0.495-0.053,0.605,0c0.361,0.178,0.66,0.805,1.209,0.607c1.297,1.325,2.362,2.875,3.326,4.532
			C88.949,82.317,88.543,85.495,87.49,87.304z"/>
	</g>
</g>
<g>
</g>
<g>
</g>
<g>
</g>
<g>
</g>
<g>
</g>
<g>
</g>
<g>
</g>
<g>
</g>
<g>
</g>
<g>
</g>
<g>
</g>
<g>
</g>
<g>
</g>
<g>
</g>
<g>
</g>
</svg>
