<?xml version="1.0" encoding="iso-8859-1"?>
<!-- Generator: Adobe Illustrator 19.0.0, SVG Export Plug-In . SVG Version: 6.00 Build 0)  -->
<svg version="1.1" id="Capa_1" xmlns="http://www.w3.org/2000/svg" xmlns:xlink="http://www.w3.org/1999/xlink" x="0px" y="0px"
	 viewBox="0 0 105 105" style="enable-background:new 0 0 105 105;" xml:space="preserve">
<g id="trumpet_1_">
	<g>
		<path style="fill-rule:evenodd;clip-rule:evenodd;" d="M96.132,20.848c-2.066-2.412-4.067-4.893-6.578-6.865
			c-2.127-2.448-5.031-4.118-8.008-5.721c-0.432-0.048-1.056,0.104-1.146-0.285c-2.842-0.08-5.581-0.051-7.436,0.857
			c-0.928,1.265-1.921,2.465-2.859,3.719c-0.051,0.429,0.102,1.055-0.285,1.145v4.29c0.279,1.532,0.788,2.835,1.142,4.29
			c-0.968,1.32-1.578,2.996-2,4.863c-3.821,4.855-7.442,9.913-12.016,14.016c-0.192,1.045-1.082,1.395-1.427,2.289
			C54.83,44,54.642,45.05,53.515,45.162c-0.249-1.662-0.185-3.634-2.289-3.435c-0.9,0.438-0.475,2.195-0.572,3.435
			c0.624,0.041,0.612,0.721,0.572,1.428c0.662,0.08,0.655,0.765,0.287,1.146c-1.075-1.214-2.016-2.566-2.289-4.576
			c0.765-0.667,1.393-1.467,2.002-2.289c0.359-1.78,0.684-2.971,0-4.575c-2.853-1.454-6.644-0.095-8.009,1.717
			c-0.046,0.335,0.048,0.811-0.288,0.856c0.078,0.971-0.218,2.319,0.288,2.859c-1.043,0.208-0.489,2.18-0.288,2.862
			c0.99,0.438,2.608,0.252,4.006,0.285c0.369,2.11,1.541,3.419,2.573,4.864c-2.439,0.323-3.343,2.185-5.433,2.86
			c-1.082-1.494-2.181-2.971-3.146-4.578c0.807-0.719,1.391-1.659,1.43-3.146c-0.096-1.432-0.881-2.17-1.43-3.147
			c-0.901-0.435-1.715-0.952-2.863-1.144c-1.259-0.117-2.209,0.078-2.857,0.572c-1.443-0.201-1.968,0.513-2.859,0.857
			c-0.382,0.669-0.488,1.613-0.863,2.289c0.16,1.465,1.324,1.921,1.433,3.433c1.191,0.429,2.428,0.813,3.145,1.716
			c0.564,2.488,1.698,4.406,2.287,6.865c-0.569,0.857-1.653,1.206-2.573,1.717c-0.912-0.71-1.208-2.034-2.574-2.289
			c-0.42,0.63-0.866,1.229-0.854,2.289c0.326,0.361,1.306,1.522,0.57,2.002c-0.816-0.709-1.438-1.615-2.003-2.575
			c1.091-1.484,2.877-2.271,2.573-5.147c-1.126-1.416-4.304-0.748-6.29-0.572c-0.591,0.649-1.463,1.017-2.289,1.431
			c-0.618,0.622-0.985,1.495-1.429,2.288c0.133,2.62,2.725,4.021,5.434,3.146c0.482,1.137,1.347,1.892,1.715,3.146
			c-1.124,0.115-1.222,1.257-2.288,1.43c-0.519,0.815-1.572,1.098-2.289,1.717c-0.467,0.772-1.118,1.361-2.002,1.717
			c-0.562,0.772-1.301,1.367-2.288,1.716c-1.187,1.388-3.274,1.873-4.579,3.146c-1.772,0.895-2.547,2.791-5.146,2.861
			c0.345-1.584-0.818-1.662-0.859-2.861c-0.697-0.16-1.471-0.244-1.43-1.145c-1.882,0.072-2.844-0.777-4.862-0.571
			c-1.396,0.512-2.418,1.396-3.432,2.288c-0.812,2.145-1.609,4.304-1.43,7.438c0.24,0.33,0.374,0.767,0.285,1.43
			c2.443,4.135,5.304,7.854,8.58,11.155c1.124,0.497,2.219,1.024,3.148,1.716c1.259,0.074,2.212,0.458,3.717,0.287
			c1.484-1.092,2.84-2.309,4.003-3.719c0.213-2.309-0.463-3.731-0.285-6.008c-0.839-0.685-1.006-2.044-2.003-2.572
			c1.394-0.133,1.803-1.254,3.15-1.432c0.015,1.034,0.711,1.385,0.857,2.289c1.499,1.551,3.189,2.912,4.576,4.576
			c1.92,0.655,3.073,2.076,4.576,3.146c1.265,1.309,3.017,2.133,4.007,3.719c3.956,1.859,8.203,3.428,14.587,2.86
			c1.314-0.496,2.887-0.737,4.006-1.432c1.041,0.089,1.86-0.044,2.573-0.284c4.035-1.975,7.822-4.189,10.87-7.15
			c3.476-2.625,6.086-6.118,9.438-8.868c0.714-1.48,1.874-2.513,2.861-3.719c1.075-2.93,2.261-5.748,2.859-9.153
			c-0.677-0.754-0.385-2.477-1.144-3.147c-0.059-1.372-0.71-2.151-1.143-3.146c-0.79-2.074-2.306-3.416-3.148-5.436
			c-1.594-0.406-1.754-2.252-3.433-2.573c-0.003-1.712-1.79-1.642-1.714-3.433c0.673,0.089,0.531,0.993,1.429,0.857
			c0.883-1.118,1.931-2.072,2.859-3.145c2.493-1.229,4.857-2.583,8.297-2.861c3.094,3.483,6.291,6.865,11.727,8.009
			c2.037,0.13,3.654-0.16,5.148-0.571c2.587-1.609,3.804-4.588,4.291-8.297v-3.718C103.733,31.173,100.017,25.928,96.132,20.848z
			 M45.218,41.727c-0.443-0.415-0.252-1.464-0.286-2.287c1.022-0.789,1.918-1.703,4.005-1.429
			C48.457,40.009,47.091,41.122,45.218,41.727z M34.063,45.734C33.718,45.764,33.887,45.317,34.063,45.734
			C34.919,45.791,33.788,46.921,34.063,45.734z M28.056,55.173c-0.699,0.255-1.243,0.668-2.288,0.571
			c0.712-1.29,2.227-1.775,4.003-2.001C29.815,54.837,28.605,54.672,28.056,55.173z M69.534,35.723
			c0.144,0.146-0.208,0.365-0.289,0.285C69.096,35.859,69.453,35.642,69.534,35.723z M69.534,36.295
			c0.144,0.146-0.208,0.365-0.289,0.285C69.096,36.431,69.453,36.216,69.534,36.295z M68.671,34.863
			C69.414,33.879,69.366,36.335,68.671,34.863L68.671,34.863z M37.782,46.878c-0.617-0.434-0.879-1.222-1.431-1.716
			c-0.041-0.914-1.056-0.85-1.144-1.717c1.559-0.785,4.256-0.816,4.862,0.857v1.432C39.347,46.155,38.791,46.743,37.782,46.878z
			 M39.498,49.165c-0.129,0.417-0.25-0.028-0.574,0C38.995,48.807,39.493,48.876,39.498,49.165z M71.821,53.171
			c0.554,1.256,1.57,2.051,2.574,2.858c0.999,2.34,2.278,4.396,3.43,6.581v5.147c-0.194,2.474-1.277,4.06-1.999,6.008
			c-0.598,0.165-0.816,0.708-1.717,0.572c-1.676,2.424-4.001,4.196-5.436,6.863c-1.427,0.955-2.573,2.193-4.002,3.146
			c-1.441,0.942-2.845,1.922-4.005,3.147c-0.808-0.235-0.74,0.403-1.431,0.286c-2.876,2.274-6.423,3.875-10.295,5.149
			c-0.705-0.038-1.379-0.043-1.718,0.285c-1.063-0.462-2.814-0.236-4.292-0.285c-1.991-0.2-3.731-0.653-5.432-1.145
			c-1.901-1.818-4.27-3.166-6.294-4.861c0.168-1.502-0.503-2.166-0.286-3.719c-1.034-0.081-0.654,1.253-1.144,1.715
			c-1.992-1.917-4.065-3.751-4.577-7.149c1.01-0.233,1.329-1.153,2.577-1.146c0.212,1.311,1.13,1.921,1.426,3.146
			c2.406,3.221,5.093,6.159,7.727,9.153c1.003-0.648,2.021,0.721,3.145,0.857h4.862c2.07-0.409,3.748-1.206,5.721-1.714
			c3.091-2.153,6.81-3.681,9.153-6.581c0.653-0.206,1.463-0.255,2-0.571c1.17-0.93,2.222-1.979,3.151-3.146
			c1.416-0.585,1.891-2.112,3.715-2.289c0.52-2.437,2.939-2.974,3.436-5.435c1.041,0.185,1.522-0.193,2.001-0.572
			c0.193-1.047,0.399-2.08,0.287-3.432c-0.228-1.678-1.203-2.614-1.432-4.291c-0.928-0.884-1.556-2.068-2.003-3.434
			c-1.576-2.045-3.256-3.987-4.576-6.292c0.514-0.725,1.404-1.075,2.287-1.431C70.398,50.779,70.422,52.662,71.821,53.171z
			 M48.079,84.635c0.567,0.004,0.363,0.781,1.144,0.571c0.517-0.795-0.548-1.987-0.859-2.859c-0.583-0.755-0.982-1.687-1.43-2.575
			c-1.22-1.545-2.112-3.419-3.718-4.575c-0.883-2.073-2.065-3.848-2.86-6.009c-0.113-1.161,1.219-0.879,1.432-1.715
			c0.24-0.052,0.268,0.111,0.285,0.285c0.239-0.053,0.269,0.112,0.286,0.286c1.449,2.938,2.767,6.004,4.292,8.867
			c1.617,2.673,2.602,5.979,4.862,8.009c-1.372,1.301-2.681,2.659-4.578,3.433c-1.22,0.171-1.892-0.205-2.86-0.284
			c-2.89-1.686-5.583-3.571-8.011-5.722c-1.024-1.265-2.166-2.408-3.43-3.433c-0.901-1.292-2.245-2.145-2.862-3.718
			c2.207-1.229,3.903-2.962,6.58-3.72c0.176,1.062,0.803,1.675,1.145,2.575c1.687,2.127,3.491,4.134,5.147,6.292
			c1.136,2.582,2.792,4.644,4.576,6.58C47.97,86.622,48.154,85.761,48.079,84.635z M57.231,57.46c0.464-0.08,0.493,0.271,0.86,0.288
			c0.867,1.132,0.873,3.131,2.001,4.004c0.265,1.736,1.328,2.676,1.713,4.291c1.03,0.973,1.533,2.473,2.289,3.718
			c0.952,1.052,1.562,2.444,2.578,3.432c-0.254,0.599-1.598-0.092-1.431-0.857c-0.576-0.377-0.966-0.938-1.146-1.716
			c-0.991-0.916-1.737-2.076-2.574-3.146c-0.81-1.097-1.653-2.16-2.288-3.433c-0.899-1.007-1.248-2.563-2.001-3.719
			c-0.159-0.635,0.546-0.406,0.572-0.858C57.487,58.923,57.439,58.112,57.231,57.46z M58.662,56.889
			c0.148,0.148-0.207,0.365-0.285,0.285C58.228,57.027,58.583,56.81,58.662,56.889z M68.96,61.752
			c0.502,0.259,0.472,1.052,1.144,1.143c-0.077,1.031,0.526,1.38,0.571,2.289c-0.283,2.291-1.198,3.949-2.289,5.436
			c-1.668-1.665-2.489-4.185-4.003-6.008c-0.855-2.385-2.131-4.353-3.147-6.578c-0.627-0.517-1.173-1.116-2.003-1.429
			c0.991-1.206,2.865-1.525,3.721-2.861c0.334,0.046,0.239,0.521,0.285,0.856c1.047,2.388,3.136,3.728,4.862,5.436
			C67.947,61.05,69.114,60.738,68.96,61.752z M60.379,71.477c0.881,1.121,1.931,2.074,2.859,3.147
			c-0.297,0.753-1.136,0.963-1.433,1.715c-0.939,0.108-0.576,1.521-1.713,1.432c-2.77-5.43-5.095-11.307-8.01-16.592
			c0.196-0.664,0.951-0.766,1.146-1.43C56.155,63.116,57.66,67.901,60.379,71.477z M54.085,71.477
			c0.745,1.258,1.259,2.748,2.003,4.005c0.319,1.681,1.549,2.454,1.715,4.29c-2.029-2.357-3.573-5.196-5.148-8.009
			c-0.821-1.374-1.583-2.802-2.288-4.29c-0.5-1.692-1.967-2.421-2.003-4.578c0.445-0.414,1.335-0.381,1.715-0.857
			c0.257,0.129,0.515,0.251,0.574,0.573C51.708,65.653,53.216,68.248,54.085,71.477z M50.653,73.192
			c0.594,1.598,1.672,2.712,2.288,4.29c1.018,1.176,1.49,2.896,2.861,3.719c-0.553,1.068-1.82,1.422-2.573,2.289
			c-1.181-0.728-1.243-2.572-2.576-3.146c-0.121-1.689-1.183-2.438-1.715-3.719c-0.391-1.326-1.107-2.324-1.718-3.433
			c-1.203-2.229-1.998-4.864-3.433-6.864c0.088-0.583,0.775-0.562,0.859-1.145h0.856C46.632,68.442,48.929,70.529,50.653,73.192z
			 M78.972,39.44c-3.905,2.294-8.168,4.228-11.727,6.866c-4.225,1.973-7.461,4.936-11.443,7.149
			c-1.731,1.416-3.599,2.695-5.435,4.005c-1.452,1.601-3.589,2.515-5.149,4.006c-3.706,2.489-7.392,5.004-11.155,7.438
			c-1.251,0.246-1.273,0.062-2.289,0.283c-3.001,2.146-6.179,4.118-9.153,6.294c-1.523,1.052-3.422,1.727-4.577,3.147
			c-1.122,0.213-1.553,1.114-2.573,1.43c-0.367,0.873-1.715,0.765-1.715,2c0.3,1.15,1.161-0.037,2.289,0.288
			c1.253,1.618,1.192,5.854-0.29,7.15c-1.862-0.044-2.998-0.813-4.576-1.145c-0.61-1.2-2.016-1.607-2.574-2.86
			c-0.967-0.748-1.362-2.067-2.289-2.859c-0.419-2.156-1.156-3.992-1.715-6.008c0.197-1.616,0.414-3.207,1.43-4.004
			c1.362-0.028,2.133,0.532,3.147,0.857c0.293,0.852,0.212,2.072,0.856,2.576c1.638,0.204,2.558-0.307,4.007-0.288
			c1.253-0.015,1.532,0.946,2.573,1.145c1.053-0.091,0.672-1.616,1.144-2.287c0.871,0.013,1.111-0.604,1.715-0.858
			c0.92-0.252,0.392,0.942,1.147,0.858c-0.088,0.659,0.823,0.317,0.857,0.857c1.145-0.19,0.828-1.841,0.859-3.146
			c1.033-0.874,2.65-1.165,3.433-2.288c1.585-0.32,2.121-1.691,3.719-2.003c0.914-0.23,0.815-1.47,1.428-2.001
			c2.47-0.676,4.085-2.213,6.296-3.148c1.846-1.297,3.441-2.85,5.717-3.717c1.589-1.561,3.776-2.519,5.151-4.292
			c1.848-1.297,3.568-2.723,5.435-4.003c3.476-2.719,5.808-6.586,8.863-9.727c0.944,0.205,0.968,1.326,2.005,1.43
			c2.51-0.533-0.428-3.453,1.144-4.574c0.661,1.053,0.587,2.844,1.718,3.432c1.334-0.012,0.543-0.815,0.571-1.718
			c0.534,0.562,1.046,0.089,1.719,0c0.357-1.223-0.023-1.415,0-2.858c1.044,0.381,0.606,2.25,2.287,2.001
			c0.231-0.054,0.283-0.287,0.571-0.287c0.959-1.729-0.582-3.417-0.571-5.147c-0.041-1.01-0.822-1.279-0.86-2.288
			c0.957-1.143,1.986-2.209,2.287-4.005c1.382,0.547-0.419,1.268-0.285,2.289c-0.202,1.214,0.515,2.1,0.574,3.145
			c0.021,0.404,0.132,0.757,0.285,1.144c0.327,0.821,0.918,3.258,2.862,3.148c0.777-0.801-0.338-2.13-0.573-2.86
			c-0.42-0.917-0.982-1.69-0.859-3.147c1.544,3.031,4.532,4.62,5.435,8.295C79.982,39.115,79.306,39.109,78.972,39.44z
			 M97.85,47.449c-1.734,0.02-2.912-0.52-4.291-0.859c-1.077-0.637-1.924-1.506-3.146-2c-3.741-3.792-6.615-8.451-9.44-13.158
			c-0.238-1.67-1.76-2.053-1.714-4.005c-1.258-0.554-0.909-2.716-2.002-3.432c-0.404-1.504-1.22-2.596-2.004-3.72
			c-0.072-0.878-0.622-1.284-0.857-2.001c-0.413-0.444-0.381-1.333-0.858-1.718c-0.176-1.702,1.553-1.496,1.145-3.431
			c3.429,0.284,6.615,0.819,9.438,1.716c2.087,1.917,4.112,3.894,6.581,5.434c4.595,4.938,8.079,10.988,10.009,18.593
			C101.002,42.977,100.457,46.245,97.85,47.449z M93.558,31.718c-1.099,1.507-0.173,3.592-0.285,5.72
			c-3.766-3.863-7.106-8.152-8.583-14.302c0.939,0.49,1.208,1.651,2.862,1.431c1.009-1.523-0.719-2.428-0.86-3.719
			c-0.71-0.529-1.614-0.863-2.002-1.717c-1.387,0.055-0.898-1.77-2.288-1.716h-0.572c-0.357,0.692-0.707,1.39-0.859,2.289
			c0.306,5.13,1.922,8.948,4.004,12.3c1.752,3.781,4.94,6.121,7.154,9.44c0.953,0.188,1.398,0.889,2.287,1.142
			c1.044-0.479,1.282-1.767,2-2.573v-3.718C95.606,34.629,95.887,31.869,93.558,31.718z M12.038,81.487
			c-0.176-0.775-0.568-1.339-1.144-1.716c0.012-1.059-0.441-1.658-0.859-2.289c-0.409-0.068-0.481-0.47-0.856-0.571
			c-0.05,0.334-0.454,0.311-0.858,0.286c-1.282,3.789,1.39,6.025,2.859,8.009c0.22,0.064,0.565,0.008,0.573,0.286
			c1.27,0.344,3.198,0.579,3.43-0.857C15.067,82.654,12.888,82.732,12.038,81.487z"/>
	</g>
</g>
<g>
</g>
<g>
</g>
<g>
</g>
<g>
</g>
<g>
</g>
<g>
</g>
<g>
</g>
<g>
</g>
<g>
</g>
<g>
</g>
<g>
</g>
<g>
</g>
<g>
</g>
<g>
</g>
<g>
</g>
</svg>
